<mxfile host="app.diagrams.net" modified="2022-08-11T02:45:52.135Z" agent="5.0 (Windows)" etag="_3-9vxDmj5gezlk-zXyu" version="20.2.3" type="github">
  <diagram name="Page-1" id="5f0bae14-7c28-e335-631c-24af17079c00">
    <mxGraphModel dx="668" dy="1181" grid="1" gridSize="20" guides="0" tooltips="1" connect="1" arrows="1" fold="1" page="1" pageScale="1" pageWidth="1169" pageHeight="827" background="#F1FAEE" math="0" shadow="1">
      <root>
        <mxCell id="0" />
        <mxCell id="1" parent="0" />
        <mxCell id="f5-iDyckK68P6CHZA5I4-2" value="" style="shape=image;html=1;verticalAlign=top;verticalLabelPosition=bottom;labelBackgroundColor=#F1FAEE;imageAspect=0;aspect=fixed;image=https://cdn2.iconfinder.com/data/icons/whcompare-isometric-web-hosting-servers/50/server-128.png;fillColor=#A8DADC;strokeColor=#457B9D;fontColor=#1D3557;" parent="1" vertex="1">
          <mxGeometry x="540" y="-700" width="128" height="128" as="geometry" />
        </mxCell>
        <mxCell id="f5-iDyckK68P6CHZA5I4-3" value="" style="shape=image;html=1;verticalAlign=top;verticalLabelPosition=bottom;labelBackgroundColor=#F1FAEE;imageAspect=0;aspect=fixed;image=https://cdn2.iconfinder.com/data/icons/whcompare-isometric-web-hosting-servers/50/server-128.png;fillColor=#A8DADC;strokeColor=#457B9D;fontColor=#1D3557;" parent="1" vertex="1">
          <mxGeometry x="560" y="-299" width="128" height="128" as="geometry" />
        </mxCell>
        <mxCell id="f5-iDyckK68P6CHZA5I4-19" value="" style="swimlane;startSize=86;fillColor=none;strokeColor=#457B9D;fontColor=#1D3557;swimlaneFillColor=none;glass=0;rounded=1;shadow=1;sketch=0;" parent="1" vertex="1">
          <mxGeometry x="700" y="-299" width="280" height="299" as="geometry">
            <mxRectangle x="700" y="-299" width="100" height="86" as="alternateBounds" />
          </mxGeometry>
        </mxCell>
        <mxCell id="f5-iDyckK68P6CHZA5I4-21" value="" style="shape=image;verticalLabelPosition=bottom;verticalAlign=top;imageAspect=0;image=data:image/png,iVBORw0KGgoAAAANSUhEUgAAArwAAACwCAYAAAGa4I2HAAAACXBIWXMAAABJAAAASQHjiblMAAAKT2lDQ1BQaG90b3Nob3AgSUNDIHByb2ZpbGUAAHjanVNnVFPpFj333vRCS4iAlEtvUhUIIFJCi4AUkSYqIQkQSoghodkVUcERRUUEG8igiAOOjoCMFVEsDIoK2AfkIaKOg6OIisr74Xuja9a89+bN/rXXPues852zzwfACAyWSDNRNYAMqUIeEeCDx8TG4eQuQIEKJHAAEAizZCFz/SMBAPh+PDwrIsAHvgABeNMLCADATZvAMByH/w/qQplcAYCEAcB0kThLCIAUAEB6jkKmAEBGAYCdmCZTAKAEAGDLY2LjAFAtAGAnf+bTAICd+Jl7AQBblCEVAaCRACATZYhEAGg7AKzPVopFAFgwABRmS8Q5ANgtADBJV2ZIALC3AMDOEAuyAAgMADBRiIUpAAR7AGDIIyN4AISZABRG8lc88SuuEOcqAAB4mbI8uSQ5RYFbCC1xB1dXLh4ozkkXKxQ2YQJhmkAuwnmZGTKBNA/g88wAAKCRFRHgg/P9eM4Ors7ONo62Dl8t6r8G/yJiYuP+5c+rcEAAAOF0ftH+LC+zGoA7BoBt/qIl7gRoXgugdfeLZrIPQLUAoOnaV/Nw+H48PEWhkLnZ2eXk5NhKxEJbYcpXff5nwl/AV/1s+X48/Pf14L7iJIEyXYFHBPjgwsz0TKUcz5IJhGLc5o9H/LcL//wd0yLESWK5WCoU41EScY5EmozzMqUiiUKSKcUl0v9k4t8s+wM+3zUAsGo+AXuRLahdYwP2SycQWHTA4vcAAPK7b8HUKAgDgGiD4c93/+8//UegJQCAZkmScQAAXkQkLlTKsz/HCAAARKCBKrBBG/TBGCzABhzBBdzBC/xgNoRCJMTCQhBCCmSAHHJgKayCQiiGzbAdKmAv1EAdNMBRaIaTcA4uwlW4Dj1wD/phCJ7BKLyBCQRByAgTYSHaiAFiilgjjggXmYX4IcFIBBKLJCDJiBRRIkuRNUgxUopUIFVIHfI9cgI5h1xGupE7yAAygvyGvEcxlIGyUT3UDLVDuag3GoRGogvQZHQxmo8WoJvQcrQaPYw2oefQq2gP2o8+Q8cwwOgYBzPEbDAuxsNCsTgsCZNjy7EirAyrxhqwVqwDu4n1Y8+xdwQSgUXACTYEd0IgYR5BSFhMWE7YSKggHCQ0EdoJNwkDhFHCJyKTqEu0JroR+cQYYjIxh1hILCPWEo8TLxB7iEPENyQSiUMyJ7mQAkmxpFTSEtJG0m5SI+ksqZs0SBojk8naZGuyBzmULCAryIXkneTD5DPkG+Qh8lsKnWJAcaT4U+IoUspqShnlEOU05QZlmDJBVaOaUt2ooVQRNY9aQq2htlKvUYeoEzR1mjnNgxZJS6WtopXTGmgXaPdpr+h0uhHdlR5Ol9BX0svpR+iX6AP0dwwNhhWDx4hnKBmbGAcYZxl3GK+YTKYZ04sZx1QwNzHrmOeZD5lvVVgqtip8FZHKCpVKlSaVGyovVKmqpqreqgtV81XLVI+pXlN9rkZVM1PjqQnUlqtVqp1Q61MbU2epO6iHqmeob1Q/pH5Z/YkGWcNMw09DpFGgsV/jvMYgC2MZs3gsIWsNq4Z1gTXEJrHN2Xx2KruY/R27iz2qqaE5QzNKM1ezUvOUZj8H45hx+Jx0TgnnKKeX836K3hTvKeIpG6Y0TLkxZVxrqpaXllirSKtRq0frvTau7aedpr1Fu1n7gQ5Bx0onXCdHZ4/OBZ3nU9lT3acKpxZNPTr1ri6qa6UbobtEd79up+6Ynr5egJ5Mb6feeb3n+hx9L/1U/W36p/VHDFgGswwkBtsMzhg8xTVxbzwdL8fb8VFDXcNAQ6VhlWGX4YSRudE8o9VGjUYPjGnGXOMk423GbcajJgYmISZLTepN7ppSTbmmKaY7TDtMx83MzaLN1pk1mz0x1zLnm+eb15vft2BaeFostqi2uGVJsuRaplnutrxuhVo5WaVYVVpds0atna0l1rutu6cRp7lOk06rntZnw7Dxtsm2qbcZsOXYBtuutm22fWFnYhdnt8Wuw+6TvZN9un2N/T0HDYfZDqsdWh1+c7RyFDpWOt6azpzuP33F9JbpL2dYzxDP2DPjthPLKcRpnVOb00dnF2e5c4PziIuJS4LLLpc+Lpsbxt3IveRKdPVxXeF60vWdm7Obwu2o26/uNu5p7ofcn8w0nymeWTNz0MPIQ+BR5dE/C5+VMGvfrH5PQ0+BZ7XnIy9jL5FXrdewt6V3qvdh7xc+9j5yn+M+4zw33jLeWV/MN8C3yLfLT8Nvnl+F30N/I/9k/3r/0QCngCUBZwOJgUGBWwL7+Hp8Ib+OPzrbZfay2e1BjKC5QRVBj4KtguXBrSFoyOyQrSH355jOkc5pDoVQfujW0Adh5mGLw34MJ4WHhVeGP45wiFga0TGXNXfR3ENz30T6RJZE3ptnMU85ry1KNSo+qi5qPNo3ujS6P8YuZlnM1VidWElsSxw5LiquNm5svt/87fOH4p3iC+N7F5gvyF1weaHOwvSFpxapLhIsOpZATIhOOJTwQRAqqBaMJfITdyWOCnnCHcJnIi/RNtGI2ENcKh5O8kgqTXqS7JG8NXkkxTOlLOW5hCepkLxMDUzdmzqeFpp2IG0yPTq9MYOSkZBxQqohTZO2Z+pn5mZ2y6xlhbL+xW6Lty8elQfJa7OQrAVZLQq2QqboVFoo1yoHsmdlV2a/zYnKOZarnivN7cyzytuQN5zvn//tEsIS4ZK2pYZLVy0dWOa9rGo5sjxxedsK4xUFK4ZWBqw8uIq2Km3VT6vtV5eufr0mek1rgV7ByoLBtQFr6wtVCuWFfevc1+1dT1gvWd+1YfqGnRs+FYmKrhTbF5cVf9go3HjlG4dvyr+Z3JS0qavEuWTPZtJm6ebeLZ5bDpaql+aXDm4N2dq0Dd9WtO319kXbL5fNKNu7g7ZDuaO/PLi8ZafJzs07P1SkVPRU+lQ27tLdtWHX+G7R7ht7vPY07NXbW7z3/T7JvttVAVVN1WbVZftJ+7P3P66Jqun4lvttXa1ObXHtxwPSA/0HIw6217nU1R3SPVRSj9Yr60cOxx++/p3vdy0NNg1VjZzG4iNwRHnk6fcJ3/ceDTradox7rOEH0x92HWcdL2pCmvKaRptTmvtbYlu6T8w+0dbq3nr8R9sfD5w0PFl5SvNUyWna6YLTk2fyz4ydlZ19fi753GDborZ752PO32oPb++6EHTh0kX/i+c7vDvOXPK4dPKy2+UTV7hXmq86X23qdOo8/pPTT8e7nLuarrlca7nuer21e2b36RueN87d9L158Rb/1tWeOT3dvfN6b/fF9/XfFt1+cif9zsu72Xcn7q28T7xf9EDtQdlD3YfVP1v+3Njv3H9qwHeg89HcR/cGhYPP/pH1jw9DBY+Zj8uGDYbrnjg+OTniP3L96fynQ89kzyaeF/6i/suuFxYvfvjV69fO0ZjRoZfyl5O/bXyl/erA6xmv28bCxh6+yXgzMV70VvvtwXfcdx3vo98PT+R8IH8o/2j5sfVT0Kf7kxmTk/8EA5jz/GMzLdsAADpCaVRYdFhNTDpjb20uYWRvYmUueG1wAAAAAAA8P3hwYWNrZXQgYmVnaW49Iu+7vyIgaWQ9Ilc1TTBNcENlaGlIenJlU3pOVGN6a2M5ZCI/Pgo8eDp4bXBtZXRhIHhtbG5zOng9ImFkb2JlOm5zOm1ldGEvIiB4OnhtcHRrPSJBZG9iZSBYTVAgQ29yZSA1LjYtYzA2NyA3OS4xNTc3NDcsIDIwMTUvMDMvMzAtMjM6NDA6NDIgICAgICAgICI+CiAgIDxyZGY6UkRGIHhtbG5zOnJkZj0iaHR0cDovL3d3dy53My5vcmcvMTk5OS8wMi8yMi1yZGYtc3ludGF4LW5zIyI+CiAgICAgIDxyZGY6RGVzY3JpcHRpb24gcmRmOmFib3V0PSIiCiAgICAgICAgICAgIHhtbG5zOnhtcD0iaHR0cDovL25zLmFkb2JlLmNvbS94YXAvMS4wLyIKICAgICAgICAgICAgeG1sbnM6ZGM9Imh0dHA6Ly9wdXJsLm9yZy9kYy9lbGVtZW50cy8xLjEvIgogICAgICAgICAgICB4bWxuczpwaG90b3Nob3A9Imh0dHA6Ly9ucy5hZG9iZS5jb20vcGhvdG9zaG9wLzEuMC8iCiAgICAgICAgICAgIHhtbG5zOnhtcE1NPSJodHRwOi8vbnMuYWRvYmUuY29tL3hhcC8xLjAvbW0vIgogICAgICAgICAgICB4bWxuczpzdEV2dD0iaHR0cDovL25zLmFkb2JlLmNvbS94YXAvMS4wL3NUeXBlL1Jlc291cmNlRXZlbnQjIgogICAgICAgICAgICB4bWxuczp0aWZmPSJodHRwOi8vbnMuYWRvYmUuY29tL3RpZmYvMS4wLyIKICAgICAgICAgICAgeG1sbnM6ZXhpZj0iaHR0cDovL25zLmFkb2JlLmNvbS9leGlmLzEuMC8iPgogICAgICAgICA8eG1wOkNyZWF0b3JUb29sPkFkb2JlIFBob3Rvc2hvcCBFbGVtZW50cyAxNC4wIChXaW5kb3dzKTwveG1wOkNyZWF0b3JUb29sPgogICAgICAgICA8eG1wOkNyZWF0ZURhdGU+MjAxOC0xMi0wNlQxMToxNDowOCswNTozMDwveG1wOkNyZWF0ZURhdGU+CiAgICAgICAgIDx4bXA6TW9kaWZ5RGF0ZT4yMDE4LTEyLTA2VDEzOjM1OjQ2KzA1OjMwPC94bXA6TW9kaWZ5RGF0ZT4KICAgICAgICAgPHhtcDpNZXRhZGF0YURhdGU+MjAxOC0xMi0wNlQxMzozNTo0NiswNTozMDwveG1wOk1ldGFkYXRhRGF0ZT4KICAgICAgICAgPGRjOmZvcm1hdD5pbWFnZS9wbmc8L2RjOmZvcm1hdD4KICAgICAgICAgPHBob3Rvc2hvcDpDb2xvck1vZGU+MzwvcGhvdG9zaG9wOkNvbG9yTW9kZT4KICAgICAgICAgPHBob3Rvc2hvcDpJQ0NQcm9maWxlPnNSR0IgSUVDNjE5NjYtMi4xPC9waG90b3Nob3A6SUNDUHJvZmlsZT4KICAgICAgICAgPHhtcE1NOkluc3RhbmNlSUQ+eG1wLmlpZDpjYzdmZGM5My1iYzY0LWQ2NGEtOWY4ZS1lNzdiZGY3NGZkOTI8L3htcE1NOkluc3RhbmNlSUQ+CiAgICAgICAgIDx4bXBNTTpEb2N1bWVudElEPmFkb2JlOmRvY2lkOnBob3Rvc2hvcDpiYzI4ZjRjMi1mOTJkLTExZTgtOGM1Zi04YTQ3YjlhYmY3NDE8L3htcE1NOkRvY3VtZW50SUQ+CiAgICAgICAgIDx4bXBNTTpPcmlnaW5hbERvY3VtZW50SUQ+eG1wLmRpZDplNDQyNDE2My05OTNlLTYyNDItOTMxNC04N2U4MzRkYWZkZTI8L3htcE1NOk9yaWdpbmFsRG9jdW1lbnRJRD4KICAgICAgICAgPHhtcE1NOkhpc3Rvcnk+CiAgICAgICAgICAgIDxyZGY6U2VxPgogICAgICAgICAgICAgICA8cmRmOmxpIHJkZjpwYXJzZVR5cGU9IlJlc291cmNlIj4KICAgICAgICAgICAgICAgICAgPHN0RXZ0OmFjdGlvbj5jcmVhdGVkPC9zdEV2dDphY3Rpb24+CiAgICAgICAgICAgICAgICAgIDxzdEV2dDppbnN0YW5jZUlEPnhtcC5paWQ6ZTQ0MjQxNjMtOTkzZS02MjQyLTkzMTQtODdlODM0ZGFmZGUyPC9zdEV2dDppbnN0YW5jZUlEPgogICAgICAgICAgICAgICAgICA8c3RFdnQ6d2hlbj4yMDE4LTEyLTA2VDExOjE0OjA4KzA1OjMwPC9zdEV2dDp3aGVuPgogICAgICAgICAgICAgICAgICA8c3RFdnQ6c29mdHdhcmVBZ2VudD5BZG9iZSBQaG90b3Nob3AgRWxlbWVudHMgMTQuMCAoV2luZG93cyk8L3N0RXZ0OnNvZnR3YXJlQWdlbnQ+CiAgICAgICAgICAgICAgIDwvcmRmOmxpPgogICAgICAgICAgICAgICA8cmRmOmxpIHJkZjpwYXJzZVR5cGU9IlJlc291cmNlIj4KICAgICAgICAgICAgICAgICAgPHN0RXZ0OmFjdGlvbj5zYXZlZDwvc3RFdnQ6YWN0aW9uPgogICAgICAgICAgICAgICAgICA8c3RFdnQ6aW5zdGFuY2VJRD54bXAuaWlkOmNjN2ZkYzkzLWJjNjQtZDY0YS05ZjhlLWU3N2JkZjc0ZmQ5Mjwvc3RFdnQ6aW5zdGFuY2VJRD4KICAgICAgICAgICAgICAgICAgPHN0RXZ0OndoZW4+MjAxOC0xMi0wNlQxMzozNTo0NiswNTozMDwvc3RFdnQ6d2hlbj4KICAgICAgICAgICAgICAgICAgPHN0RXZ0OnNvZnR3YXJlQWdlbnQ+QWRvYmUgUGhvdG9zaG9wIEVsZW1lbnRzIDE0LjAgKFdpbmRvd3MpPC9zdEV2dDpzb2Z0d2FyZUFnZW50PgogICAgICAgICAgICAgICAgICA8c3RFdnQ6Y2hhbmdlZD4vPC9zdEV2dDpjaGFuZ2VkPgogICAgICAgICAgICAgICA8L3JkZjpsaT4KICAgICAgICAgICAgPC9yZGY6U2VxPgogICAgICAgICA8L3htcE1NOkhpc3Rvcnk+CiAgICAgICAgIDx0aWZmOk9yaWVudGF0aW9uPjE8L3RpZmY6T3JpZW50YXRpb24+CiAgICAgICAgIDx0aWZmOlhSZXNvbHV0aW9uPjE4NTEwLzEwMDAwPC90aWZmOlhSZXNvbHV0aW9uPgogICAgICAgICA8dGlmZjpZUmVzb2x1dGlvbj4xODUxMC8xMDAwMDwvdGlmZjpZUmVzb2x1dGlvbj4KICAgICAgICAgPHRpZmY6UmVzb2x1dGlvblVuaXQ+MjwvdGlmZjpSZXNvbHV0aW9uVW5pdD4KICAgICAgICAgPGV4aWY6Q29sb3JTcGFjZT4xPC9leGlmOkNvbG9yU3BhY2U+CiAgICAgICAgIDxleGlmOlBpeGVsWERpbWVuc2lvbj43MDA8L2V4aWY6UGl4ZWxYRGltZW5zaW9uPgogICAgICAgICA8ZXhpZjpQaXhlbFlEaW1lbnNpb24+MTc2PC9leGlmOlBpeGVsWURpbWVuc2lvbj4KICAgICAgPC9yZGY6RGVzY3JpcHRpb24+CiAgIDwvcmRmOlJERj4KPC94OnhtcG1ldGE+CiAgICAgICAgICAgICAgICAgICAgICAgICAgICAgICAgICAgICAgICAgICAgICAgICAgICAgICAgICAgICAgICAgICAgICAgICAgICAgICAgICAgICAgICAgICAgICAgICAgICAKICAgICAgICAgICAgICAgICAgICAgICAgICAgICAgICAgICAgICAgICAgICAgICAgICAgICAgICAgICAgICAgICAgICAgICAgICAgICAgICAgICAgICAgICAgICAgICAgICAgIAogICAgICAgICAgICAgICAgICAgICAgICAgICAgICAgICAgICAgICAgICAgICAgICAgICAgICAgICAgICAgICAgICAgICAgICAgICAgICAgICAgICAgICAgICAgICAgICAgICAgCiAgICAgICAgICAgICAgICAgICAgICAgICAgICAgICAgICAgICAgICAgICAgICAgICAgICAgICAgICAgICAgICAgICAgICAgICAgICAgICAgICAgICAgICAgICAgICAgICAgICAKICAgICAgICAgICAgICAgICAgICAgICAgICAgICAgICAgICAgICAgICAgICAgICAgICAgICAgICAgICAgICAgICAgICAgICAgICAgICAgICAgICAgICAgICAgICAgICAgICAgIAogICAgICAgICAgICAgICAgICAgICAgICAgICAgICAgICAgICAgICAgICAgICAgICAgICAgICAgICAgICAgICAgICAgICAgICAgICAgICAgICAgICAgICAgICAgICAgICAgICAgCiAgICAgICAgICAgICAgICAgICAgICAgICAgICAgICAgICAgICAgICAgICAgICAgICAgICAgICAgICAgICAgICAgICAgICAgICAgICAgICAgICAgICAgICAgICAgICAgICAgICAKICAgICAgICAgICAgICAgICAgICAgICAgICAgICAgICAgICAgICAgICAgICAgICAgICAgICAgICAgICAgICAgICAgICAgICAgICAgICAgICAgICAgICAgICAgICAgICAgICAgIAogICAgICAgICAgICAgICAgICAgICAgICAgICAgICAgICAgICAgICAgICAgICAgICAgICAgICAgICAgICAgICAgICAgICAgICAgICAgICAgICAgICAgICAgICAgICAgICAgICAgCiAgICAgICAgICAgICAgICAgICAgICAgICAgICAgICAgICAgICAgICAgICAgICAgICAgICAgICAgICAgICAgICAgICAgICAgICAgICAgICAgICAgICAgICAgICAgICAgICAgICAKICAgICAgICAgICAgICAgICAgICAgICAgICAgICAgICAgICAgICAgICAgICAgICAgICAgICAgICAgICAgICAgICAgICAgICAgICAgICAgICAgICAgICAgICAgICAgICAgICAgIAogICAgICAgICAgICAgICAgICAgICAgICAgICAgICAgICAgICAgICAgICAgICAgICAgICAgICAgICAgICAgICAgICAgICAgICAgICAgICAgICAgICAgICAgICAgICAgICAgICAgCiAgICAgICAgICAgICAgICAgICAgICAgICAgICAgICAgICAgICAgICAgICAgICAgICAgICAgICAgICAgICAgICAgICAgICAgICAgICAgICAgICAgICAgICAgICAgICAgICAgICAKICAgICAgICAgICAgICAgICAgICAgICAgICAgICAgICAgICAgICAgICAgICAgICAgICAgICAgICAgICAgICAgICAgICAgICAgICAgICAgICAgICAgICAgICAgICAgICAgICAgIAogICAgICAgICAgICAgICAgICAgICAgICAgICAgICAgICAgICAgICAgICAgICAgICAgICAgICAgICAgICAgICAgICAgICAgICAgICAgICAgICAgICAgICAgICAgICAgICAgICAgCiAgICAgICAgICAgICAgICAgICAgICAgICAgICAgICAgICAgICAgICAgICAgICAgICAgICAgICAgICAgICAgICAgICAgICAgICAgICAgICAgICAgICAgICAgICAgICAgICAgICAKICAgICAgICAgICAgICAgICAgICAgICAgICAgICAgICAgICAgICAgICAgICAgICAgICAgICAgICAgICAgICAgICAgICAgICAgICAgICAgICAgICAgICAgICAgICAgICAgICAgIAogICAgICAgICAgICAgICAgICAgICAgICAgICAgICAgICAgICAgICAgICAgICAgICAgICAgICAgICAgICAgICAgICAgICAgICAgICAgICAgICAgICAgICAgICAgICAgICAgICAgCiAgICAgICAgICAgICAgICAgICAgICAgICAgICAgICAgICAgICAgICAgICAgICAgICAgICAgICAgICAgICAgICAgICAgICAgICAgICAgICAgICAgICAgICAgICAgICAgICAgICAKICAgICAgICAgICAgICAgICAgICAgICAgICAgICAgICAgICAgICAgICAgICAgICAgICAgICAgICAgICAgICAgICAgICAgICAgICAgICAgICAgICAgICAgICAgICAgICAgICAgIAogICAgICAgICAgICAgICAgICAgICAgICAgICAgICAgICAgICAgICAgICAgICAgICAgICAgICAgICAgICAgICAgICAgICAgICAgICAgICAgICAgICAgICAgICAgICAgICAgICAgCiAgICAgICAgICAgICAgICAgICAgICAgICAgICAgICAgICAgICAgICAgICAgICAgICAgICAgICAgICAgICAgICAgICAgICAgICAgICAgICAgICAgICAgICAgICAgICAgICAgICAKICAgICAgICAgICAgICAgICAgICAgICAgICAgICAgICAgICAgICAgICAgICAgICAgICAgICAgICAgICAgICAgICAgICAgICAgICAgICAgICAgICAgICAgICAgICAgICAgICAgIAogICAgICAgICAgICAgICAgICAgICAgICAgICAgICAgICAgICAgICAgICAgICAgICAgICAgICAgICAgICAgICAgICAgICAgICAgICAgICAgICAgICAgICAgICAgICAgICAgICAgCiAgICAgICAgICAgICAgICAgICAgICAgICAgICAgICAgICAgICAgICAgICAgICAgICAgICAgICAgICAgICAgICAgICAgICAgICAgICAgICAgICAgICAgICAgICAgICAgICAgICAKICAgICAgICAgICAgICAgICAgICAgICAgICAgICAgICAgICAgICAgICAgICAgICAgICAgICAgICAgICAgICAgICAgICAgICAgICAgICAgICAgICAgICAgICAgICAgICAgICAgIAogICAgICAgICAgICAgICAgICAgICAgICAgICAgICAgICAgICAgICAgICAgICAgICAgICAgICAgICAgICAgICAgICAgICAgICAgICAgICAgICAgICAgICAgICAgICAgICAgICAgCiAgICAgICAgICAgICAgICAgICAgICAgICAgICAgICAgICAgICAgICAgICAgICAgICAgICAgICAgICAgICAgICAgICAgICAgICAgICAgICAgICAgICAgICAgICAgICAgICAgICAKICAgICAgICAgICAgICAgICAgICAgICAgICAgICAgICAgICAgICAgICAgICAgICAgICAgICAgICAgICAgICAgICAgICAgICAgICAgICAgICAgICAgICAgICAgICAgICAgICAgIAogICAgICAgICAgICAgICAgICAgICAgICAgICAgICAgICAgICAgICAgICAgICAgICAgICAgICAgICAgICAgICAgICAgICAgICAgICAgICAgICAgICAgICAgICAgICAgICAgICAgCiAgICAgICAgICAgICAgICAgICAgICAgICAgICAgICAgICAgICAgICAgICAgICAgICAgICAgICAgICAgICAgICAgICAgICAgICAgICAgICAgICAgICAgICAgICAgICAgICAgICAKICAgICAgICAgICAgICAgICAgICAgICAgICAgICAgICAgICAgICAgICAgICAgICAgICAgICAgICAgICAgICAgICAgICAgICAgICAgICAgICAgICAgICAgICAgICAgICAgICAgIAogICAgICAgICAgICAgICAgICAgICAgICAgICAgICAgICAgICAgICAgICAgICAgICAgICAgICAgICAgICAgICAgICAgICAgICAgICAgICAgICAgICAgICAgICAgICAgICAgICAgCiAgICAgICAgICAgICAgICAgICAgICAgICAgICAgICAgICAgICAgICAgICAgICAgICAgICAgICAgICAgICAgICAgICAgICAgICAgICAgICAgICAgICAgICAgICAgICAgICAgICAKICAgICAgICAgICAgICAgICAgICAgICAgICAgICAgICAgICAgICAgICAgICAgICAgICAgICAgICAgICAgICAgICAgICAgICAgICAgICAgICAgICAgICAgICAgICAgICAgICAgIAogICAgICAgICAgICAgICAgICAgICAgICAgICAgICAgICAgICAgICAgICAgICAgICAgICAgICAgICAgICAgICAgICAgICAgICAgICAgICAgICAgICAgICAgICAgICAgICAgICAgCiAgICAgICAgICAgICAgICAgICAgICAgICAgICAgICAgICAgICAgICAgICAgICAgICAgICAgICAgICAgICAgICAgICAgICAgICAgICAgICAgICAgICAgICAgICAgICAgICAgICAKICAgICAgICAgICAgICAgICAgICAgICAgICAgICAgICAgICAgICAgICAgICAgICAgICAgICAgICAgICAgICAgICAgICAgICAgICAgICAgICAgICAgICAgICAgICAgICAgICAgIAogICAgICAgICAgICAgICAgICAgICAgICAgICAgICAgICAgICAgICAgICAgICAgICAgICAgICAgICAgICAgICAgICAgICAgICAgICAgICAgICAgICAgICAgICAgICAgICAgICAgCiAgICAgICAgICAgICAgICAgICAgICAgICAgICAgICAgICAgICAgICAgICAgICAgICAgICAgICAgICAgICAgICAgICAgICAgICAgICAgICAgICAgICAgICAgICAgICAgICAgICAKICAgICAgICAgICAgICAgICAgICAgICAgICAgICAgICAgICAgICAgICAgICAgICAgICAgICAgICAgICAgICAgICAgICAgICAgICAgICAgICAgICAgICAgICAgICAgICAgICAgIAogICAgICAgICAgICAgICAgICAgICAgICAgICAgICAgICAgICAgICAgICAgICAgICAgICAgICAgICAgICAgICAgICAgICAgICAgICAgICAgICAgICAgICAgICAgICAgICAgICAgCiAgICAgICAgICAgICAgICAgICAgICAgICAgICAgICAgICAgICAgICAgICAgICAgICAgICAgICAgICAgICAgICAgICAgICAgICAgICAgICAgICAgICAgICAgICAgICAgICAgICAKICAgICAgICAgICAgICAgICAgICAgICAgICAgICAgICAgICAgICAgICAgICAgICAgICAgICAgICAgICAgICAgICAgICAgICAgICAgICAgICAgICAgICAgICAgICAgICAgICAgIAogICAgICAgICAgICAgICAgICAgICAgICAgICAgICAgICAgICAgICAgICAgICAgICAgICAgICAgICAgICAgICAgICAgICAgICAgICAgICAgICAgICAgICAgICAgICAgICAgICAgCiAgICAgICAgICAgICAgICAgICAgICAgICAgICAgICAgICAgICAgICAgICAgICAgICAgICAgICAgICAgICAgICAgICAgICAgICAgICAgICAgICAgICAgICAgICAgICAgICAgICAKICAgICAgICAgICAgICAgICAgICAgICAgICAgICAgICAgICAgICAgICAgICAgICAgICAgICAgICAgICAgICAgICAgICAgICAgICAgICAgICAgICAgICAgICAgICAgICAgICAgIAogICAgICAgICAgICAgICAgICAgICAgICAgICAgICAgICAgICAgICAgICAgICAgICAgICAgICAgICAgICAgICAgICAgICAgICAgICAgICAgICAgICAgICAgICAgICAgICAgICAgCiAgICAgICAgICAgICAgICAgICAgICAgICAgICAgICAgICAgICAgICAgICAgICAgICAgICAgICAgICAgICAgICAgICAgICAgICAgICAgICAgICAgICAgICAgICAgICAgICAgICAKICAgICAgICAgICAgICAgICAgICAgICAgICAgICAgICAgICAgICAgICAgICAgICAgICAgICAgICAgICAgICAgICAgICAgICAgICAgICAgICAgICAgICAgICAgICAgICAgICAgIAogICAgICAgICAgICAgICAgICAgICAgICAgICAgICAgICAgICAgICAgICAgICAgICAgICAgICAgICAgICAgICAgICAgICAgICAgICAgICAgICAgICAgICAgICAgICAgICAgICAgCiAgICAgICAgICAgICAgICAgICAgICAgICAgICAgICAgICAgICAgICAgICAgICAgICAgICAgICAgICAgICAgICAgICAgICAgICAgICAgICAgICAgICAgICAgICAgICAgICAgICAKICAgICAgICAgICAgICAgICAgICAgICAgICAgICAgICAgICAgICAgICAgICAgICAgICAgICAgICAgICAgICAgICAgICAgICAgICAgICAgICAgICAgICAgICAgICAgICAgICAgIAogICAgICAgICAgICAgICAgICAgICAgICAgICAgICAgICAgICAgICAgICAgICAgICAgICAgICAgICAgICAgICAgICAgICAgICAgICAgICAgICAgICAgICAgICAgICAgICAgICAgCiAgICAgICAgICAgICAgICAgICAgICAgICAgICAgICAgICAgICAgICAgICAgICAgICAgICAgICAgICAgICAgICAgICAgICAgICAgICAgICAgICAgICAgICAgICAgICAgICAgICAKICAgICAgICAgICAgICAgICAgICAgICAgICAgICAgICAgICAgICAgICAgICAgICAgICAgICAgICAgICAgICAgICAgICAgICAgICAgICAgICAgICAgICAgICAgICAgICAgICAgIAogICAgICAgICAgICAgICAgICAgICAgICAgICAgICAgICAgICAgICAgICAgICAgICAgICAgICAgICAgICAgICAgICAgICAgICAgICAgICAgICAgICAgICAgICAgICAgICAgICAgCiAgICAgICAgICAgICAgICAgICAgICAgICAgICAgICAgICAgICAgICAgICAgICAgICAgICAgICAgICAgICAgICAgICAgICAgICAgICAgICAgICAgICAgICAgICAgICAgICAgICAKICAgICAgICAgICAgICAgICAgICAgICAgICAgICAgICAgICAgICAgICAgICAgICAgICAgICAgICAgICAgICAgICAgICAgICAgICAgICAgICAgICAgICAgICAgICAgICAgICAgIAogICAgICAgICAgICAgICAgICAgICAgICAgICAgICAgICAgICAgICAgICAgICAgICAgICAgICAgICAgICAgICAgICAgICAgICAgICAgICAgICAgICAgICAgICAgICAgICAgICAgCiAgICAgICAgICAgICAgICAgICAgICAgICAgICAgICAgICAgICAgICAgICAgICAgICAgICAgICAgICAgICAgICAgICAgICAgICAgICAgICAgICAgICAgICAgICAgICAgICAgICAKICAgICAgICAgICAgICAgICAgICAgICAgICAgICAgICAgICAgICAgICAgICAgICAgICAgICAgICAgICAgICAgICAgICAgICAgICAgICAgICAgICAgICAgICAgICAgICAgICAgIAogICAgICAgICAgICAgICAgICAgICAgICAgICAgICAgICAgICAgICAgICAgICAgICAgICAgICAgICAgICAgICAgICAgICAgICAgICAgICAgICAgICAgICAgICAgICAgICAgICAgCiAgICAgICAgICAgICAgICAgICAgICAgICAgICAgICAgICAgICAgICAgICAgICAgICAgICAgICAgICAgICAgICAgICAgICAgICAgICAgICAgICAgICAgICAgICAgICAgICAgICAKICAgICAgICAgICAgICAgICAgICAgICAgICAgICAgICAgICAgICAgICAgICAgICAgICAgICAgICAgICAgICAgICAgICAgICAgICAgICAgICAgICAgICAgICAgICAgICAgICAgIAogICAgICAgICAgICAgICAgICAgICAgICAgICAgICAgICAgICAgICAgICAgICAgICAgICAgICAgICAgICAgICAgICAgICAgICAgICAgICAgICAgICAgICAgICAgICAgICAgICAgCiAgICAgICAgICAgICAgICAgICAgICAgICAgICAgICAgICAgICAgICAgICAgICAgICAgICAgICAgICAgICAgICAgICAgICAgICAgICAgICAgICAgICAgICAgICAgICAgICAgICAKICAgICAgICAgICAgICAgICAgICAgICAgICAgICAgICAgICAgICAgICAgICAgICAgICAgICAgICAgICAgICAgICAgICAgICAgICAgICAgICAgICAgICAgICAgICAgICAgICAgIAogICAgICAgICAgICAgICAgICAgICAgICAgICAgICAgICAgICAgICAgICAgICAgICAgICAgICAgICAgICAgICAgICAgICAgICAgICAgICAgICAgICAgICAgICAgICAgICAgICAgCiAgICAgICAgICAgICAgICAgICAgICAgICAgICAgICAgICAgICAgICAgICAgICAgICAgICAgICAgICAgICAgICAgICAgICAgICAgICAgICAgICAgICAgICAgICAgICAgICAgICAKICAgICAgICAgICAgICAgICAgICAgICAgICAgICAgICAgICAgICAgICAgICAgICAgICAgICAgICAgICAgICAgICAgICAgICAgICAgICAgICAgICAgICAgICAgICAgICAgICAgIAogICAgICAgICAgICAgICAgICAgICAgICAgICAgICAgICAgICAgICAgICAgICAgICAgICAgICAgICAgICAgICAgICAgICAgICAgICAgICAgICAgICAgICAgICAgICAgICAgICAgCiAgICAgICAgICAgICAgICAgICAgICAgICAgICAgICAgICAgICAgICAgICAgICAgICAgICAgICAgICAgICAgICAgICAgICAgICAgICAgICAgICAgICAgICAgICAgICAgICAgICAKICAgICAgICAgICAgICAgICAgICAgICAgICAgICAgICAgICAgICAgICAgICAgICAgICAgICAgICAgICAgICAgICAgICAgICAgICAgICAgICAgICAgICAgICAgICAgICAgICAgIAogICAgICAgICAgICAgICAgICAgICAgICAgICAgICAgICAgICAgICAgICAgICAgICAgICAgICAgICAgICAgICAgICAgICAgICAgICAgICAgICAgICAgICAgICAgICAgICAgICAgCiAgICAgICAgICAgICAgICAgICAgICAgICAgICAgICAgICAgICAgICAgICAgICAgICAgICAgICAgICAgICAgICAgICAgICAgICAgICAgICAgICAgICAgICAgICAgICAgICAgICAKICAgICAgICAgICAgICAgICAgICAgICAgICAgICAgICAgICAgICAgICAgICAgICAgICAgICAgICAgICAgICAgICAgICAgICAgICAgICAgICAgICAgICAgICAgICAgICAgICAgIAogICAgICAgICAgICAgICAgICAgICAgICAgICAgICAgICAgICAgICAgICAgICAgICAgICAgICAgICAgICAgICAgICAgICAgICAgICAgICAgICAgICAgICAgICAgICAgICAgICAgCiAgICAgICAgICAgICAgICAgICAgICAgICAgICAgICAgICAgICAgICAgICAgICAgICAgICAgICAgICAgICAgICAgICAgICAgICAgICAgICAgICAgICAgICAgICAgICAgICAgICAKICAgICAgICAgICAgICAgICAgICAgICAgICAgICAgICAgICAgICAgICAgICAgICAgICAgICAgICAgICAgICAgICAgICAgICAgICAgICAgICAgICAgICAgICAgICAgICAgICAgIAogICAgICAgICAgICAgICAgICAgICAgICAgICAgICAgICAgICAgICAgICAgICAgICAgICAgICAgICAgICAgICAgICAgICAgICAgICAgICAgICAgICAgICAgICAgICAgICAgICAgCiAgICAgICAgICAgICAgICAgICAgICAgICAgICAgICAgICAgICAgICAgICAgICAgICAgICAgICAgICAgICAgICAgICAgICAgICAgICAgICAgICAgICAgICAgICAgICAgICAgICAKICAgICAgICAgICAgICAgICAgICAgICAgICAgICAgICAgICAgICAgICAgICAgICAgICAgICAgICAgICAgICAgICAgICAgICAgICAgICAgICAgICAgICAgICAgICAgICAgICAgIAogICAgICAgICAgICAgICAgICAgICAgICAgICAgICAgICAgICAgICAgICAgICAgICAgICAgICAgICAgICAgICAgICAgICAgICAgICAgICAgICAgICAgICAgICAgICAgICAgICAgCiAgICAgICAgICAgICAgICAgICAgICAgICAgICAgICAgICAgICAgICAgICAgICAgICAgICAgICAgICAgICAgICAgICAgICAgICAgICAgICAgICAgICAgICAgICAgICAgICAgICAKICAgICAgICAgICAgICAgICAgICAgICAgICAgICAgICAgICAgICAgICAgICAgICAgICAgICAgICAgICAgICAgICAgICAgICAgICAgICAgICAgICAgICAgICAgICAgICAgICAgIAogICAgICAgICAgICAgICAgICAgICAgICAgICAgICAgICAgICAgICAgICAgICAgICAgICAgICAgICAgICAgICAgICAgICAgICAgICAgICAgICAgICAgICAgICAgICAgICAgICAgCiAgICAgICAgICAgICAgICAgICAgICAgICAgICAgICAgICAgICAgICAgICAgICAgICAgICAgICAgICAgICAgICAgICAgICAgICAgICAgICAgICAgICAgICAgICAgICAgICAgICAKICAgICAgICAgICAgICAgICAgICAgICAgICAgICAgICAgICAgICAgICAgICAgICAgICAgICAgICAgICAgICAgICAgICAgICAgICAgICAgICAgICAgICAgICAgICAgICAgICAgIAogICAgICAgICAgICAgICAgICAgICAgICAgICAgICAgICAgICAgICAgICAgICAgICAgICAgICAgICAgICAgICAgICAgICAgICAgICAgICAgICAgICAgICAgICAgICAgICAgICAgCiAgICAgICAgICAgICAgICAgICAgICAgICAgICAgICAgICAgICAgICAgICAgICAgICAgICAgICAgICAgICAgICAgICAgICAgICAgICAgICAgICAgICAgICAgICAgICAgICAgICAKICAgICAgICAgICAgICAgICAgICAgICAgICAgICAgICAgICAgICAgICAgICAgICAgICAgICAgICAgICAgICAgICAgICAgICAgICAgICAgICAgICAgICAgICAgICAgICAgICAgIAogICAgICAgICAgICAgICAgICAgICAgICAgICAgICAgICAgICAgICAgICAgICAgICAgICAgICAgICAgICAgICAgICAgICAgICAgICAgICAgICAgICAgICAgICAgICAgICAgICAgCiAgICAgICAgICAgICAgICAgICAgICAgICAgICAgICAgICAgICAgICAgICAgICAgICAgICAgICAgICAgICAgICAgICAgICAgICAgICAgICAgICAgICAgICAgICAgICAgICAgICAKICAgICAgICAgICAgICAgICAgICAgICAgICAgICAgICAgICAgICAgICAgICAgICAgICAgICAgICAgICAgICAgICAgICAgICAgICAgICAgICAgICAgICAgICAgICAgICAgICAgIAogICAgICAgICAgICAgICAgICAgICAgICAgICAgICAgICAgICAgICAgICAgICAgICAgICAgICAgICAgICAgICAgICAgICAgICAgICAgICAgICAgICAgICAgICAgICAgICAgICAgCiAgICAgICAgICAgICAgICAgICAgICAgICAgICAgICAgICAgICAgICAgICAgICAgICAgICAgICAgICAgICAgICAgICAgICAgICAgICAgICAgICAgICAgICAgICAgICAgICAgICAKICAgICAgICAgICAgICAgICAgICAgICAgICAgICAgICAgICAgICAgICAgICAgICAgICAgICAgICAgICAgICAgICAgICAgICAgICAgICAgICAgICAgICAgICAgICAgICAgICAgIAogICAgICAgICAgICAgICAgICAgICAgICAgICAgICAgICAgICAgICAgICAgICAgICAgICAgICAgICAgICAgICAgICAgICAgICAgICAgICAgICAgICAgICAgICAgICAgICAgICAgCiAgICAgICAgICAgICAgICAgICAgICAgICAgICAgICAgICAgICAgICAgICAgICAgICAgICAgICAgICAgICAgICAgICAgICAgICAgICAgICAgICAgICAgICAgICAgICAgICAgICAKICAgICAgICAgICAgICAgICAgICAgICAgICAgICAgICAgICAgICAgICAgICAgICAgICAgICAgICAgICAgICAgICAgICAgICAgICAgICAgICAgICAgICAgICAgICAgICAgICAgIAogICAgICAgICAgICAgICAgICAgICAgICAgICAgICAgICAgICAgICAgICAgICAgICAgICAgICAgICAgICAgICAgICAgICAgICAgICAgICAgICAgICAgICAgICAgICAgICAgICAgCiAgICAgICAgICAgICAgICAgICAgICAgICAgICAgICAgICAgICAgICAgICAgICAgICAgICAgICAgICAgICAgICAgICAgICAgICAgICAgICAgICAgICAgICAgICAgICAgICAgICAKICAgICAgICAgICAgICAgICAgICAgICAgICAgICAgICAgICAgICAgICAgICAgICAgICAgICAgICAgICAgICAgICAgICAgICAgICAgICAgICAgICAgICAgICAgICAgICAgICAgIAogICAgICAgICAgICAgICAgICAgICAgICAgICAgICAgICAgICAgICAgICAgICAgICAgICAgICAgICAgICAgICAgICAgICAgICAgICAgICAgICAgICAgICAgICAgICAgICAgICAgCiAgICAgICAgICAgICAgICAgICAgICAgICAgICAgICAgICAgICAgICAgICAgICAgICAgICAgICAgICAgICAgICAgICAgICAgICAgICAgICAgICAgICAgICAgICAgICAgICAgICAKICAgICAgICAgICAgICAgICAgICAgICAgICAgICAgICAgICAgICAgICAgICAgICAgICAgICAgICAgICAgICAgICAgICAgICAgICAgICAgICAgICAgICAgICAgICAgICAgICAgIAogICAgICAgICAgICAgICAgICAgICAgICAgICAgICAgICAgICAgICAgICAgICAgICAgICAgICAgICAgICAgICAgICAgICAgICAgICAgICAgICAgICAgICAgICAgICAgICAgICAgCiAgICAgICAgICAgICAgICAgICAgICAgICAgICAgICAgICAgICAgICAgICAgICAgICAgICAgICAgICAgICAgICAgICAgICAgICAgICAgICAgICAgICAgICAgICAgICAgICAgICAKICAgICAgICAgICAgICAgICAgICAgICAgICAgICAgICAgICAgICAgICAgICAgICAgICAgICAgICAgICAgICAgICAgICAgICAgICAgICAgICAgICAgICAgICAgICAgICAgICAgIAogICAgICAgICAgICAgICAgICAgICAgICAgICAgICAgICAgICAgICAgICAgICAgICAgICAgICAgICAgICAgICAgICAgICAgICAgICAgICAgICAgICAgICAgICAgICAgICAgICAgCiAgICAgICAgICAgICAgICAgICAgICAgICAgICAgICAgICAgICAgICAgICAgICAgICAgICAgICAgICAgICAgICAgICAgICAgICAgICAgICAgICAgICAgICAgICAgICAgICAgICAKICAgICAgICAgICAgICAgICAgICAgICAgICAgICAgICAgICAgICAgICAgICAgICAgICAgICAgICAgICAgICAgICAgICAgICAgICAgICAgICAgICAgICAgICAgICAgICAgICAgIAogICAgICAgICAgICAgICAgICAgICAgICAgICAgICAgICAgICAgICAgICAgICAgICAgICAgICAgICAgICAgICAgICAgICAgICAgICAgICAgICAgICAgICAgICAgICAgICAgICAgCiAgICAgICAgICAgICAgICAgICAgICAgICAgICAgICAgICAgICAgICAgICAgICAgICAgICAgICAgICAgICAgICAgICAgICAgICAgICAgICAgICAgICAgICAgICAgICAgICAgICAKICAgICAgICAgICAgICAgICAgICAgICAgICAgICAgICAgICAgICAgICAgICAgICAgICAgICAgICAgICAgICAgICAgICAgICAgICAgICAgICAgICAgICAgICAgICAgICAgICAgIAogICAgICAgICAgICAgICAgICAgICAgICAgICAgICAgICAgICAgICAgICAgICAgICAgICAgICAgICAgICAgICAgICAgICAgICAgICAgICAgICAgICAgICAgICAgICAgICAgICAgCiAgICAgICAgICAgICAgICAgICAgICAgICAgICAgICAgICAgICAgICAgICAgICAgICAgICAgICAgICAgICAgICAgICAgICAgICAgICAgICAgICAgICAgICAgICAgICAgICAgICAKICAgICAgICAgICAgICAgICAgICAgICAgICAgICAgICAgICAgICAgICAgICAgICAgICAgICAgICAgICAgICAgICAgICAgICAgICAgICAgICAgICAgICAgICAgICAgICAgICAgIAogICAgICAgICAgICAgICAgICAgICAgICAgICAgCjw/eHBhY2tldCBlbmQ9InciPz7yVAqpAAAAIGNIUk0AAHolAACAgwAA+f8AAIDpAAB1MAAA6mAAADqYAAAXb5JfxUYAAHuNSURBVHja7NgxjyRHFQfw//9VVXdPz+ze2sgJICTQIUHmb4BMykkGIYEuQAIkZAlkIYf+Bg4tQhIEAUJOnBFaAhkTIhxAYAwEOPPd3s7szOx0db1HUN0zPbN961vfOfJ0NuruqapfV71Xr/jzl//yjgi/DQIkYAbAABAAgNQaxi4fBKaG/B5hahBHPO5qmoSTOwGqBhiwXiakZAiFwAwoSkFsFADQRs39ABAKAQA4R6RkUDWEIHB+vK31MqGsBOXEISVDbBSbdcJk6rG6bAEA9cxvn29jbrPZKEQI54nUGopSoGqgsKdAVbvRNq/WCXGjEEf4IEhRAQKxUfCVe+8+APC8D/JDEbx1CPw4ZNVMEArhEfgJgPuHQyG8DfD2vSA8Aj8BMJDDxPRkfwRXq3QjcHddG3VROrStwsyOwI8D7jsmwlsBnz4XoAlYrVqYHoFHgftO9VeP/EnA0xMP53kEvgn4EPcI/AyBSYyOwHWJjEK0UW0MmMyDOAI/BvhJrlDkqaxqv0ut/WgILI6wZB+o4e7sjmdzlWAGxMasnvk3neNrl/O4BYzN7kOFQngIPLzvPDmpHRYX4xv0ohDWM49HDxsrKvmwnvq7i0cRmswo+JYZ/ozdm1YPQqEIIY6/aqO+2j9QThy9J5wXXDxsRldtPXVYr9L2HgkNhbinAu4G+0cRfgdAj7ADVvubGV6cnu6A22g2mfo3nOPrl/MIEmp2faWQYDfYPdyuwGE1EVzOx4FDyMAX542FUv5eT/2Li0dxGNKG7Vk928s1NhISWZSConKYn48DT6Ye6+X1/oRS+FTAg1n3gnP8OHbLzQx7wMt5Cx+4B7xetkhpV6yoGjQZzPIgi8oxRUVKZiIonJfYh5+iFFzOW4QgiF2YCoUwNgrnBbOTG4GHyFbPPOMm9ztGNRF+2Qf5KI8jF09llUPD/Lyx07Nwn8Qf8uoFTIGktgUmwVAImo2aAff4yx/8FadnBRYXMZfKakjJkFpD2xpIwHkiFAIRwgzQ1D+zW8pFKRBHqHYxtAM+/BiTqX/DCV/fbBJioyaO7L+KATDtgEvH2KQteId4Fhu96GYqyonD5TzaMGTV0xxfPwG4R7Z65qlquOqWuOv6QyG8J1SzxfQ0XJvBZ88XzKFPseqAq9qx/y8fSP7ie+/hi1+Z4H//WX2oal/D013XQgSAjwb3v9TP4M1VByzkaAleCuNG4YMAwHfbqG/3LYiQPeSnACYAE8ffaLKf1DNPU2C9ykDeC8Vn3NVlayT+6xy/Wp9k4BDkTwD+DQCzO/6nBqBZ74AHk+HHsdHf8pV77z5wju+L50tQbJfcswKennquFi2c3w8Rq2ULHYSIdhderI+loSBiNLQxL/3BroXiiHrqbw0sQlLwzdTaP7odBZurBDDnCB/k6xT8KwQZBT49C/dVc4gAgM1Vgg+yDREiZN+Wc9yPwX0nB0nrmQCPJbnlIu4t/8P/ESFIbOP0YeKpJg7i+KmAhyulT3LrZTvan0Pgw/tl5SiOW+CyEjYbfWiG564BD7NfN5sx0iBI3lhodMAfmOLu9MyzWXfAjdlk5t/0nq8tLsa3aUUpbBod5nPbweJjki90hRAAYHGxDzzt9rjnD/I2bTrzd+fn+8B9z83M+op1uWhRVg5tq79Prd0fbhubjeLsCwUePbgOXE0cXRdO8gdzXC8VZrmVz6yS65PiMBmWlYOqwSwnDrP8HAGIJ1I0UIAhcCgkFyNdskl5pzHcKvYrDv3H7ZOuppyoNRl8YFdY2LaXvisq+jGXlYOaoW0U1cSh7e7FJhch5USuFzarBAJwXrqTR+36lX/f6iziNoc9R+AnBB5WObc5rjwC74A3AIrP4jy4rNwR+NXvv9cfdthNwIfxOJQCAt9oNvrPmw7cnWOH+jkH7vN106iNAR8id8AwBdTs16m1n40BH87ozxvw/wEAAP//7Jq7jhxFFIb/U11VPeud23qRLEEG4g0gQDKCjMQJICAhIrGEjAgQAYIUR84JiUj8BGRYaFkkeAUTIjkwvuyOd7a7LoegLlPT0zN7MUSeDkYazfT09NdV5/L/h7748BDeAyKey/5sP44IB1VF1z3H8xjwzKgqsdaPG09VbrNDBxa0BFCAGORCxHq524ILtKcuNCutR71T9cuVDFjrsRNr4dO5QzN3ULWAlAIns3BNVYteuVJpEeSCyIEoPDDaIFXOTxyc5XyutR7sASkF6OaNA06153nhFl3KT5WkT7dwz4BbynzdDd4F3E1sUokfAP58C/cMuGXLeMGqYTWxEaB1BWO2cHvhtqcO1vJ5moq1LvKzmdnC7cJtTt1SSDijJV6CO95T4btbuKtw04rt0xzOgksEjKZbuL1wK0m0brBP1yKalJ63cC8B96xDKkEU69sO5Dx/5mzAM5xIauYOpg3vR5NQ0c+OzJJnFkFWzPAlXCHogfd8LZZ+d73nT3aH8t3jI/tL338bTRQdPzEMAqb7mo6fGDDzn+zxBlIdxIvXKyNJREGO7HGwr4uKfqsHFZ780zJRj2M8rNA2/q41/FH6XGmxL6V4dCm4pS7L0Sc2oY3OcJMTsTsOcK2JsMeKopDe69AmU1Cq4kYLI0cqQYOBeHt2bH/tO3c4VjR7GuBOrma495jxTtfMTCGw6D4X16OFcD+cKDx91A93Z1eibdx9Z/m1lQ+fB2469q/VdBRmCvKK827F/s5wS6dYCBDRsvWu64qc9Qs3Odbe6ea0FpgdWwzHCrMjw8kpBoDJng5zCWvgxtlmKuGaxucdVEmiNNNMRIAA6rrKcKf7mjg+cyJC0/gMd2dXkjU+3wd9+fHvOVEtucDG5wWja4FKhpiSLPPU66deWmnKsasDd2VlJRMz6gGUbO/YIXJyiYWgr5zjO6V7YhqP4VjmZ5bgAoBpPCZXN8KVAGzphfU5xcklThXTaKp7V+5kT5NpPZrG/eUsv1rvVMRgaufeAwDdev8we/x4/mMlLBQu8Su9cHtcYlUvYHXjYHoYpUtc2j/MWAu3hFpWRl2XWA9EtnSkJLoyWoQFpcSPeZ5uLD9rTxdwV/LSzRsHrHXYdhuqgEvDHexWZFu/FHNLdzjuLpQxVsWEKaqgXFUVwTqGLSaBhmN1Kbig5V1VlJ3Zp3OO83e6cKf7mqzhtCAhBBVhoaL5M7fkDi/Nd4Wtj/es8T//F3D7EtrJLCS0Xnc4REOKQ3u9CaYcxLsw3E6XeWUoaf7MrjVku3A7OszXUok7bbuA25z6fO8rCU0q8a2z/naybLo3TsBmyzzBjSthdyqpOXGwqRSbhlLs+KmB0mFeIde0A0HWcK6FlRYvm9b/XVYn1nCewEzOcII7HAW4jx8GuHsvaTp6bMDMfzDjzQQ3PNj4/2IpNjuy0LVYMg9I0H32/Prkqsbjh6twtRbfKS2+bxr3wFm+llxhIfCNc3x7bYeWar8uXEF0rvY3zWM5FwY/Fu99Fq7zaGkcMQpNwBLcnGClEhAiCt7LDU+vWJ6Sq3dhPmzpXEJOWKVgrmsBz4BSBKLwu5vE8vL3iSiL5SnJb9QWuoAvoi1s4Z5DFUuAL6qKbeH+j3puGA2tXmy4tz44BICBaf18HdwVg1KLsuXdKJZXMTG+yHDT8ZZp/eF54aaaoaiNaZP7+6LB/RcAAP//7Jw9iCRFFMf/r6q7Z2fndlk8kUVE3Eyzw1AwExQRRQ30TAQPUVHE4MwEQQwVEUENREyEM1FEDC4wUzODS4zvouNQT7ndvd3p7qpn0PVqqqs/tmdv727hupKB3Zn+qPrVq1ev/u95BY5O6GMiOkvBHl5uigO6ris82XOweV4peoK96M9dnKvYBKP7sLOv5XllviS86e5ZCw9JkoyIreWdpHOl0yjMsQ5Ck7FB9GFKdkfqzMjn1odErWXYkjGZ6pocYFDjKqSZZuQGeBH2lEQcAJjvGS95SNyxfm0yRGHWsJWREFPCF5K4Iya+LBg6JWhF7mSqemcBOnyrrvBsV9u7bvw92DKyFY2ysD6RyRgLOMUFEaC1wv5e2Z2nkk3UFoCLQ+AdCnDXWpgk9LXS6swI7wjvkcAbtzZVw7IA9zhy8VL1fpKoD0Z4R3iPBN4upd5C6GBRlrYh8D0MvAfb+bpAAljk0Y7wjvAOhjefm4aTHwZ8bga8Ij6RY/wR3hHepeAVS3tQGxhcGwyvlIUY4R3hXRreLkvb6b+6bAnXCZetxeZh4Q1LbozwjvAeSdGGQVqoIEXVheI2i9xeHgqvhO9GeEd4bym8EYTbSabWKQKhRaRCgfpmMZ5RoY3ZetXDklHvAvT+WpJdL4MgSeCuNZIg22ZQUi930IJY78RVADibKIDRKSzsi/JMphpak9dpOFAvrM6SUwCw/V/hnq0mRESSUlIWbNqnRfM0qpa2rKlTqhZNXgr6GgC6xIydBkp+1yV0jNt0NaHbAm8jxpuqV4nwlYDhZvTjRW7PLwOvlOTpgzewMtn+npnHg2ANSzGTxmRKM3USwNXK2rNYv7DI03o20dtEgK3KBQHA62D+kgGsTDXAwM52/SStUUVhbuP+8TqYZeHtccEa8JrSYr5vWydkOlF3E+gfUi7LDlU83lp+j4g+lBVRWgjv+kZ6Wik61xvidO/cIscjcrp5MD7Jc/tOOF5eYHoc2swN0s61onasWOv1Zokj6rMsAi9RJfKPrXyaqaeJ8JOPU4cnjIwny5J/jq2M+PCirQ/8+1+UpsfCJ5M6UifWEw+vlFECFpV+YismLsHGXZnvgxuAFzqh503J33fBW+ZVCTtT8m/G8CPB70j2LqQq2WSS1DbhKHKLtY2sC97niPBD/DxFsG+S94st73SWEDN71y8UoqUT9Si9+ezv2LxvCmsZV/+aP0hElqqSvcwMC2ZrLSwzG2th2bKxlg0zLIB/wzNwrSs/iYg8AE4V54p6hZ/cAFOnClqhUVk5tEZd9bk6lxgHLzOwu1004A6BaXMCImEztUDxtin5065NblwTUrSx0rrgBRayzhCKZeBVVbHqz4zht6J3aMDbyG1wbtbKVJM3geTdi/A7l7SmBwBgdS0d7DZIDbLqcMku5TYQ4SqAk/TaU78WaaZSeWyi6vXy+ZGo0W/IPR7iNkxnmkJJlpTqanMb5vtNy6s1vcjAdxRYVFJ+E/KCMXyuDa40JdiqapWfqEJF7HJIYnt1v3oR0ZsNrw1KbrR1sre8zqUyJf9hDD8c9H1leRX5TV8E70WtaasL3vWN9HSR8zkb4TRb02ALzPcXKSQxvGmmzpQlf8GWszYuGj5vNlGnmHGh9k3CWj63144jvMts2KSwKhGdZOa/Y59XBrCWzbWAfBPAlZACAn5Ump6RwZ/OEpQlgw3fUxT2ivx2MtU1HaNEBG4FvO7vshJ0ajPLchG94Cgen62oe5lxuXBRmPA6Q+AN6+VFq5qrSaI63AZNe7tGrEKoXb8I5q3eDRsR5kmqVmrLYGWhXjGG49jLlgNO+bGl2jqrmHH2dsLbEm3IAaQHLFGgwIKlqeqLkLTFuSlEIdzY3Cp4Q4CVos+N4Tfaog2726VfRSYrejbfNzsDlvBeeA+IpLyrNH2kFLnVvgmvHIjFG+RWy9t3SHHCgbJ/3TQzVzrwI/GXjuiETYqdhfFO2S3L1UXbKhsKDm4rlY7kWuHNVBCbZQOQ+3dZciNeHP7emiqOe32nxHRVoygYyrlf4f06NlKIN2ltk9atikF8m30JAol+iK52EcPl1t4MN1yxmCrsQ5Z6vgyYwlbxW67cqvBZvd7XjUubNrcrymDMovy16HYXz2Zb+ksdDt7weLg1O6jnaHiEd4T32MDbB3GXsmyEd4T3WMEbQry3a3qvcRTwEoBsRY/wjvBWRSCH1BA4CF6gOgSwPb6w0wGofG7NYeENm9ShHeG9w+EVcYn7vL/I7aVl4ZXNnO2YBz6xEL4sAZj55bLgbw4Dbx/UI7x3Lrw+4O4Kj7xU5PbbIfBWAJewdhi8YRERqgb7T2P4oRHeEd6D4P0fAAD//+ydTagkVxXH/+fequr3+r15bzIzGlCyCIEEBgkYDCMoIi6CQhRMFooLEzRBIoPZiFlkkVmIi4CbEUECISQbFfxAFCELF0EYosQvQohBcKUoSWYmM/Ne9+uqe+9xcetWnaqu7q7u9ym5tXmv6e7qqrq/OnXuOef+D1186ArBp4ObQIVQFzVPqr31XTnsg/+Eur1GCKOhUZYIZpBSoCXRDevXmH1JpBzkZlzVVImI6jcIsAWX2Tnnkwjl3atThcnYTA1uAE9OHn1zs7ptHpXt7gZlUc5S5ZCo5xCDNRWSHQ0XLYATzjFUZ5VZsJmx5eaNzA3Yw1MzCFOWxqtq/WfL1lsh7V+JkIv9LlMSSeRLIgFfB6JKUcr1jQQEYHfHYLCuq3JXWS9SKWKkAx/RPkx4ZYfoCG+E98DgbWR5loB3GYC7um9HeCO8BwZvucNbSaK2Dhte4ctRhDfCeyDwignDX5OEProI3r4AL4rzeqsf4Y3wHgC89URLXSbCk4cNb22JNUV4I7wHAi/gY7yLXId2qGcfGbZnATzVA/I6XFNEeCO8K8Lb1Q7zMOHdPpPCipKK3Z0iwhvhXR7eWc1yDwve7TOhyU2EN8K7D3jntdI+DHgDuB7MCG+Ed0V4u8CdB/BBwNulUxbhjfAuBe88cGcBvF94ZZ+8CG+EdyV4+4DbBXCEN8J7rPAuA26ZAq7UJOd0ZloIbwAtwhvhXQneRWvWZiQ4qkH0wml8yRT8TIQ3wntk8K66KU0va02flYqL/kK5nHnmsvMGvDLbFuGN8B4ZvJX7kKmvEeGF6lqF9s/dy48a8MqibKkPtrld0xBkPv2A1p8JPblreIsGvM7hh9a4b7YPQCf0C0X08EJ4Nd1ZTNw/uzOAaljkbrxxKjSRNEtd66zUcRhuJiACrl/Nq++fPptVMgQhs9lQdZQyU6168/DPYKgva01PdgG/oNE8lKI3lcb5AG9YAECE7feu5u/1OL2nAXwPAIYb/rvjkR0BWJ/6JANJSi8pTY8cC7xiQO5wjH+Fu660fvfmE/e3PvDKAQqCI214pejI5lYN760bRWVtk9R3NF10vOvDRO2Na+i4qVz2Dhjn5p7vQFGSegu9c3M5eNO0Ce9712p4t890wCsmxF06aVPwrutntaangkUbCbeQCHvMGPQwSg2ZUiJs3biW3+hxet8G8H353fGu6VNn8xtr3OePBd7qIDJf/C5dAmv4d9byZw4FXgJ2mmo5vc9bQpAsoZijE/UYEZ5fH6pS/fLo4C2t43Xn+EwfeMe7proxSZFjx1PgBzdCjMtpMG74p2B6JPCWN8y9ILx+bPBKy1QeUKVInk/cZQDf6gtvvufgXC141wUvc70mam9s2wX4H2TGO5W5Ipwpcne1y8IE/9I5fosZd8v3bbnWrVobVx5GLWfanPAO1vVPJmP7pYYtb012mX2f6lXgLQF+yDn+5SJ4K5eBsAHGjvRJk1SR0l4F1FmGdQw4fJWBl8JpBteoDe/p8jhnbdLPHgl4h5sJ7Y0skkyBvYzq9EKG44a3POFbG1vp1tq6ws3rhZdB5W593ja8+Z6rBs/Lq3bDO9419eRM+M1K03kivEliBWoJ6J3OceXLZmuaIG4A53jMjDUB2lQZZ3gdFk5KeDe3UhSFa8CbZopkZZ4Ull4V3o6bohPe4EcW064UpZnCFLxB0p+ALNO1UmYb3rMZcccDKlysiZCvlZZ3fcP3bDeGAa/Re9EU/ANxEidHXPqOuzZw7e0Jdm8ar7TYA950oKiYUhKnTngnY682aC2/4ix/qm35WeoFd1hwpemPWtMFRqV6/rQ1/N2WdR4CGIMBlAGLfOKQJIS1oa7gDRq9XfCGCELpdmCztmhLwasU3nIO93QA3AlvUMiU0rY6UQ8CXlw7SRUUEYrCNVYfT/YslCJsbHW7Ddu3pZ2WN4hLc6NfSBNe/76PcDjLP7OWH5ZjX8G7eSopVQLlJJXBDkHCvVoSzq1sAylCUglLCyFirvfhuPzr6tdyJ6QISSlQLe1EW+a+T58EuVXwdmjzllCSHF1pvNihpbOrS7js3KSL0vSaTuh+EsefJL4RiRSXngVvAFiqoi8PL5F8TYQcwEAes4Q3PLr3RlZqF5Mcn8pAtOD1Icyst8/LXLsT8kkzmg3vM0XuLslx0ikRXXriz9AJYbxrPjbaMbeIiAG4cmwcOzhmOOcV0R07WGa2zL4/g4Q3SWfDa9mDvyy87LyO637hDSGy9kStISs6XxV9yidta9V2TCw+XuTuDxUsa7qhFTEPXmYvcSp/a1l42fdyFpaUzllT6xIHeNkB49G0Mvr6UHfCK8Wlk1L2P8ibLgtvnne7DQs9TfK6DVjf0NjzIr59pZgOe+sVbQDw7xnf/3Bvyys0bNMBoZjUb0+tdi5djGBRy8lMcDGuMfNtHVa4AfxQJBKOCN6ZkRVpeblkaDwSYKb1SvJsTa0Eb5qpF9q/zgy1uZ08GibbXZZ3XmgunC9d/OKVh0H4edDSdQ4gwgOyG89JhXdjK6HRTdOwh21Z/za81vDvneNPtuEiImQlvIEB+VtK0xWt6RP1bJcaTUHqJwU/bYQvrBT9J0npQ8L1ODJ4gztAil5lxxfmwdvt89JXmPFjoOxmtAK8p89m1BZg9NEJDWbIDkQNy5tm6uulsXl+1tNvSnRExvOc5eeM4cdPMrxAHVwP6dcueEe7pnMfSuF+EL2mFCHNCCb3k0Vm3Gct/6kdc/UXlpqTDucnitZ6S2fmuBt9fd6Dgjf8cpe7FeAlquPkxkzFin2SRdep8GXhtZYryy63yZ5txM2bEzZNRc5gxxes5VfF0+DL7PinU0mKsucVVZpl5cBYw/9l5ttPKrx9khSmcFU9AKb7jN3NDv8I8IJwT5G7vzcSDuLxz/XAPkKEF9kBSeZz8tTRw032pGi0BTgCeEPUpkyF8yzLG+oLCDjvHL/RjsUrTcgnDutDjd1b/eE9tZ3OXD4WnoYB4Da8RMBo1zb6UcikUWecVyf0olL0aDur0qcHw0mFFxCtrGg6ktCVQeqynFpXLU3PGyMGmdEpDag03QfGX0Tw/Wgtb+P8+G1mfGBWhk38dnefT5q+RqtM2MQEluT4tuH1gE/XbRCVbbrmJSnSTN0O4O1w4OGg84l7rPXRu8TwUSsODR/1hGPGd44TXlnbMFjTmOwtbqyRpiorjCumrGbPG1lCRNSs/DoqeGXl2KxQWbu2AQzuo9N52PCGCR0zXnaOH5BzlV4ZtjRVZIyrSgDbsdc5mbNGbGPVlRQNeIVPtnFawCt6sRlZVXa6GSQP3YAGa7oM2/ElY6bri3VCzylF32BGVUwv7VE2ULCGf20tP9g5qKn6dJLQK/JahRRqFcPO3a8mY/uFWfBunmrCe+3dGt7bzmVl5rAPvPJJgAes4ZdLeC8nSV1VtnOz7gYU5GiLOf34klQ9YQr3IwDYPpuFPn7b19/tVVVWNSgMcxXpSw83dTnhBCbjAPB0N6BeQG1u+ZUUpuDKV+kL7wrdgGYuwBx0SPrL2fL0Z9xULl3CG6C0lmGtb01KqtnBcxa8vqa17iyvNFW6vM75YP68G51Uc5nUMvq8Yb8yM5iI+3SWNq9MMjjb1A6W/8t4NDOQlTCPdkypcE9g5iltXn9T9NPnFX52lVGsxm2BNu9S8Mo1bLJf1yJ4pe8Q4Y3wHju8VXiKFvp7zdRuhDfCexLgLX2U3uBGeCO8JwreWRb4MBVzIrwR3gODt+0DH7ZWWYQ3wnug8AaAtT58lciwEjfCG+H9v9TnDXBGeN/n8F586Aqc499aw5/bD7yLJnDhgljDrzvHH9kPvAG+CG+Etx5Ax284y+dXhbdP+9bQwsoYzpk5XRVeAA03RYIc4X0fwhvWIFrLV9tLpvvAu8j6SnhDrUQ+WSw6suwW4X0fw0vKl0Ia46pscl94F/UebsMb9tkqdInwRnj3By8pPwimcNwX3nnWdx685UVKTeHyCG+Etw+8/wMAAP//7J1rrG1XVcf/Y8y19uOcc1+tUYvahhYRSWorVdPgrfIUiw9aodR+ICHhQxOwbUJbAvpJYgyWh7ZISAxfavxwERJaSRvENgVaekMQS5GkNlq0oEjR4m3PYz/WnGP4Ye2193rMtc5e++yzz7n3zvnlnvbss/fac47xm2OOOR50828/9jyAC0xE9xlD16sAmAgvMwrZq5lAT/+t+V3bltfOLj9MOPNsGMMPmwhvQJbvqYXutMjSn1DIIVbkX59FQ/MC/eEWGVlbrrzwHDsRe3vh+Rp6FwRk2xXOA6mQc+k7z766SirUvTUzrew52LYwUfFvsjUHpULlrBQOzT6FqArjLDujDDITpcVGiFK5Gg2kouyUljJIz1kKdNdMYS7aFjZsNXSmfKmyU0mB/cUGnat65fLFEqfv1+W04OO8G0PMiLvcWu+0YYHyBWGmQGUq9BDP1iGVxZzsJJKeSScbgyqmTd1n/ce1CqSaZ2lTvLHtyJIe8rptE50Wd+SIEEWM4Y5FFPMU7Gm1gTQWvtObAN1pNe6dAMOMYa7m4RS8HqW4wxj66CrAmzb20X0Br8dB8SAx/VYAbwBvAG8A76EDb/nB4g6/WgWn9wO8+2H5znuXF0V0L5s0Wy+AN4A3gDeA99CAt/qg9L24Q6/USR3MZYE3W6RVgrcC4pj/ihk3B/AG8AbwBvAeKvB6FOjzTPS7ewbvEi3fRcHr+W73MOG2AN4A3gDeAN5DBd6yoq1tGMIesOccvEp8EOAtjXsA3Lbf4CVGAG8AbwBvAG878GalSRa2+IYOsjfu7hd49xQqlB/HLojhPDq0s2NR7t4QwBvAG8AbwLtv4B0PXdr2pbTQ5xJ4j10wA6iv+HwAbwBvAG8A70rAOx7KLNC7ZrQF8GEDbx6402cM4A3gDeAN4F01eMcjae3LnRfAhwW860eiWgAE8AbwBvAG8K4MvD6XQtuxG4APA3iJ0s4TAbwBvAG8AbwHBt5lAHdeAB80eLNJD+AN4A3gDeA9EPDO48NddJgsck0PD3jzCxjAG8AbwBvAu1LwLuLDXQS8xARmIBnPBGkyOVcnYzm9SvCWEywCeAN4A3gDeFcC3rjDtN/A9YFXFZWuv/kJcFa/JqK/sl/g9WW1BfAG8AbwBvDuO3gPckQRfZiI3pfVYq2D8aQOw402kVPLAm9dKnFTVEObBIrjF/jB69xSwdsRh98Xp681Eb1KRLvMNHJWnmBDX2Giz4Cwuc/gPamib1PQSaiug6BEGDqLx9jgUWb6PIDhPOCN4v0F7852PXjrQGHt/ODNd2bPxvZmPXg7vXbgtclSwdsRhxuc09eZiK4S0R4RBMAmAadB9PfM+BKAwSLg7a/vL3i3t5rBG8ccDbZtJ4r5ZXGHNwDElNo9o8G2fbrT4xeJSdWeh+Atj06XT6riq3lrLl9jODfxxib6HRG9eFHwck3bLhV9QhVXeqF8tErk8dB5YWUTv4b016MPGUMf8FvUip3tqqJm4BXVjzurf7CH08b9bOi6vYAXiked05OLPgMb+jOovj87/UwtTcU1W5v2K/spX3E8I223b6Y9UYiAM8+P1UeRuMtPrq1HBXkY7rgKjFX1S6r4db9cm4vHI/e9dttEdXT75i5jyCvPIsBwpyo7GXjF6d3W6q171tGe2QCwnZeX/npxAyXC0TPPj19YYp2UOwB8tKRHRT0cuX9zVi/bI9Bd3OGrQHjyvAJvSUGfNoYuJ0IiviLvuS4GqrjdJvKRsxm8Iuo9lhITdB8uHuMOG5tUE73rPokNfUqcvmuPgm2JKM5bRVPlPIfBO1tLkM7n0WsFXhHFcMe1eq8FN+6/ZaYby/JZPi2creAtnsb5H5yT3zjvwOux+v6cCO8tgBeA0rQib9ZS5ngylu+q4sgqwDsauLpjXyvwDrar7cuh+LRz+vbGDYrpX9nQzSr6KBGsAhERXSNO7xbRy3fZ3P5RRX+5qDRUOfKr4JYkkXv8NAHimK9mQ19LRoJOlzEcOHR6Bip6uXP6SXH6qwDQ7THlN898yxcoXrG1aT+4y3e9WkR/pubXn5lDhqZz2TsA8E5ODfeL0+t22exagXewbSuuMyK6zzl9S/NGQM9GEd3Bhh4C4UxkCMlYwYwTzulrndM/Fpe2C6XURVWZof5aVCkS1QTe/pr5AjE93VL97wfwSNMMjUbuGWf10pp5+83RwD3JTFDVl8Qd83Ln5F3O6ht2MRRGxlDvvAZv2ccTRfxqYpxWTa2XXp/xwo+SWf+qFBi1PrE6y25e8I6HUlA+E1HZ5zQ3eMcjqfjmxOk3RPRVTdMQxzz1T2UXWzqB5+wCReFsvcVMjO9CcUkRDlzybeuOqvbr3gJI+2RZq2XwNvrU8329oMBWgz+02zdIEjk1Grgbayx4yvyvDeDNXpv29co926rAm8keG6ypYLBXi9d3WZuM5RvO1cgOAb2eoewegYim4DSGYBMFc/q++bBPZvI6dPM95+YB79Hj8U1s6NRe7PCRp7dck8XbX0/1djSwaTBB10wBMB4JiPC/qrjQ97e9vvlFAN+kW972+J0A+ghjqr8vuWTt/s0zydez/7H1ok0Fpwa8TQf33cBbBq7PD0rUDryjYfGiQBVvTsbyQM2ms6XAkZkVmNYdLoNXVUG5N3VWzqjimP9YRTeB6FSd7jurz6ji0tpNsMMRBM5jsReiKtqCN4oZvVy0wTzgzcHHC95Oh4uW9gGAN3fi+CdxetWi4CUCRsPy99S32kQ/W7PJ/jCO+SfKJC6DN10rnTbYzINXRZGMBArgyImO93JtHvCqzEfeJNG5dHce8E7WKV3DgcvP8nUAPlfjXrmFCH9Jt739tBckSy34TcUf9yW1YYnj4p9dx/P/PcLmixZQrd2dsx2u0RppAO8yhg+85ULyw6ETFaUasHtrJ4sAxmT/kndNS62hi366XhFctnRrn4zm0xQiqIn4/US4awpemslSef6jaOIjzIE3s3CrSjg/eH0A7q9HBUt3VeAlmqiR1vpOSYpGwvwWb2mdRkPRug+KO0zqUXWadCour4tviBSjPDaOV+HbBN42nEqjgzqVrFrfptrkauivp3kKqYtSCycFazUWp+Naq67LHQAJ3XrDaRABJy7sIIoZzilGA4ftLTsJOaJZ6JEi35Js+kN+J1Od7Wyq+d/rrtZhFo/Lk+NKBrzKc+TEKXuOLGws/cjic5WfQ3e5IiCmabtrIjSCdzf4Hgh4S23BB9v+fkpEQG/NUJOgNh7RBq5W+cvvK04r88RMD4no69t+Z2Z6JorpZU1zn54UqGDhLgO82VgrXcasErzMRCIKE9GVzuoTNa/5hMg0YmVu8Jbn0yZSKzt5yy+/ztYjbobpTQA8l686TMbyaF6nj5zozA3eNkMVOHFhFbzjcTtXQ/k5vCGr/jV5n4h+GADoPdc/DlXFj1/Unx5rn/vPAazTB53Va1fR6mZRxW80rvfnuT8O4NaaY94hsnhL4N1ZDLy7+c2GLcDrg+/kgiW1kJz+tXP6jrbf30T0SnH6VN3vN47GtXK0KHhVgY0jUe37rgK8UysrdQVtquqGTxc0d1c8D3hHQ1f2x7cCb93Y2bJ17/MfxtBLC5vakfhQg7c1kxj/ZQz/dD7ckt5z/eMFgkdxGpOZNa+cWIoXWytPq6J3nvt/lxrV0F831BC2U7De2vh4y+BtAmQU+8XZ2TQDabjtYGoSEeqeKXU1eCZk4tMDFCLpES8Dr0+xRfAnNpE/2m1+oojfCcK9XoDGXJvAcraDtyR/V9ukXXq8D7xlN9V41OBq6HLFTcUGMIZXBt6jx+ObkrGekjk8V2k5A1NYN1WfX3s54I07fKGI/ii7GymAN4tqIMZWFPFlAH4IAkgnoVWapsUVssCA25JE/iKAd2/gzaIaxPnjJvPAaBfVUGmW+ZZkLPf5BZ+2Ol0+klN4iKTw7q0ZDHdcmrpKKFyuJWO3pYr1mo3iHQD+pqLoucsv0eampnkzjVJIXquKB2utr7UaulJ9BbtzCbzZ5zo3/znRB97qc+DdNpFP1Gywm0w4mnsugIHIEGiSLrwK8LKhUyBgtFON5imv2/oRg2SsSJI0W9AY8spHk493bcOQnVzS2UQhTrXuhM1M3wfhpyrfuy6cLIr5dmZ8bOrW1VmsK2UQnrg+baKPiiyefXS+gzd/FK+zMNuANxlXBdBZfUpEX1HnUuitzUKCVP3gBdKLtuHANYaTRTFfUoZo+XLFB16V1D/d7RswE8ZDB454KnjjYaNZQ3XrUuePPVfA60nrPS2iVy8K3vL3clb/T1WP1816ZJjYzLxTxtBEbgidSXjYfoM3rTsxvyJn4M1kmkrL3RzVkCq7c4rxxFpmpq+L6C81+HdpLvCW/ujZKKZLVavO8axQRC4T7OdsIk/V7wEBvHXgBZaXubb1YlJBETN9WZz+WqM/iugMG3qvOHmgv25eGGy7Y8bw7zinH1PVo81ygn8mpl/wyE9V8HMREcz0FBv6EBSfc042u2sGhgmjgQNH3BMrH7RW72yQz2+xoSv8bgiaxtueyxZv2R1ARG8S0S+0BW/2PB7Afl+cXrQLJ/7dRPROE9Pp4bZL2BDEKdY2os7Olh3tB3i7PfMgM/1LW0V2on8H1S/P9Lfo8poHvOW5IqJrRfTB2vkxdLkKvj03eD1C+XuoiVPLCyczIE7vtFbvCuBdLXjrUoYnyrD0gD5jqOukFEaTWkOV14rTb4roFcv4XCJsTbIKvWPjaNxk9Zyz4M0+ThXjtuB1ViuXbBPZ+TFx+j/LlJtVXq4VJibmO9nQRwrGwQLgBdLKebln7Tmngwbj5N0i+OSeM9fY0GPG0DXTcwYDdiSIOjytYEWcLqZzS9T3hggvIlp5IfTDWCTHOU1Th6tWQpoQonq3TRYvdGIMfdZEdINICvrCkbd+9o8S0XOquqeLWmY60+nxiWQktQDsr0eNcZ7nmo8X/nDrWr9vU5Ecm2jlriAvOyL6gLP65iWA9zlj6CfPZvA6lyZX1Z3oqqcw/sOlpwzHXb4yGcmTOcJPIiX2H7z5y5/D0uwy7nDt5Y7vcsk5P0h8qZSZZduUtZPVQvUpj8/XC+A11uo1UUw/Px5J1OmydVafNTE9rIKHsljqfGGhluBFp8uVm2UVfbkCJ6OYr0lGsq6qMIbUGHpBgUdU8QgzfoDcZS8zeX2S+fdtNhoaLt7GzYkxtEvPv27f794Qq5XsKWh1jdjQtH6tD4rze7lnLhfPyQPSsmx2JjvTMp75uH7FSWflirhjrgR0DUQC0Z3xWJ7ur0fP2kS+CuAHWSZk3VyTh7D9dV6qIo+GUuBROROEJ3HgXp3y1Rr3vNRE9c+8sp5rw4GrZMUsC7y+CTorwOuZD2cXAG/DV/VdOjSBlyitGdvpMQbbDv11g2QkMDFBHLCP4IUiLTYz3HEQ0bTodExwVqewbQPeXUWIFwcvm2bwdmqKkovTSt9BlYMDb2O6u7YGL5wV9NciKNIUcxXFYMdhbSOazulu4PWtSd1GtugYj0rg9axvLXjnbGN2KMCbHcHqCjkvAl5uOHsE8AbwBvAG8AbwlgH8ol04u2y31u4BvAG8AbwBvAG8TQBuYQHPA9wA3gDeAN4A3gBe7B3AbYAbwBvAG8AbwBvA23Jsb86q3y8C3ADeAN4A3gDeAN4FhvN0Yj1bwdsEzgDeAN4A3vMUvLe89XE4p59ydm+NB5cJXgDY2bR7Ku0YdxjO6cPi9HWHAbwzAZp1UA3gDeAN4D2PwavFVsqwiT4ioq85SPAC8Ka8tgFvNqOT7LkL7Fi+rYqLDhK82SJ3eiaAN4A3gDeAdwZeFeQ6P+BIkuiTKvrSVYO37PPdI3gByVVWA96YJPLFlk3ylgLeZbkqAngDeAN4z13wzv47neTLkkS+pYq1VYB3UbfDHOAtfFcV/YC1+qcBvAG8AbwBvIcRvLNavOnkvz4Zy0P7Cd5F3A5twesB2hed1TcG8AbwBvAG8B468KbKn/6cKqHe1uubu5ceU0DA1gvzux32Ct4MKJMW50ed1e+o6L0Abg/gDeAN4A3g3Qt4/5+9e4+yparvBP797V1VfU4/7gMwiDGCjkskAUUxK84YAiGJI+qEEImjEhXBCUFgLjFKTIYlE10kMYoKIqADCoaRmSxJmAjE13BjVGaZh4jBJb4ivgZGE7j3dvd51d6/3/xRVaer6uyq8+hzuvt27/MP3NPd51Tt2vuzf7Vr79+mS379vleI4H8olVZoyhV4ClOW5Dw7jv7WxmXIkHzGOGOyddu/rOP1Yh2QJsLHy5VIZG070Ow4iYr7AUpuh0Dpb0lM7m3Op/xiFpjShW009VpH4mg8da9lR2fVmNdJuWdbPJUaqLWSVLzc9XQ1UkKybXujodFumZEbb1b2StHa9kayVt5Z441jRhgpdDsWYahS3Iv1MGsEOqBkp4x+pZ/tteq0iuk75xqqAEfogpeAzqottnICuqX3ki1qBtNOdlrGmU0svcscuwMyMQ/FqdhREeYaSabBrM3kvzNIO0kdJPs2hqFCa9UgjHThd/OWlDswqujE1AzbnjEyWBaydi3bLZMEBG2LxnyQGJldu7ZFGCnEXU6xToM5tRakZOWQb2h04Us/L+nJPZ8FX9wm8L6EWe5KT/pMInzCw+vh9fB6eLccvGlj6ISROl4E39soeEUw3XSReXhzjTwI1QsBfNrD6+H18Hp4txS8uQL+v0FATwehPWt4ZxT1FuDNN3Yd0BkA7ffweng9vB7eLQVvv/Jq+hIpOmXW8M4AXye8uasbB4H6OSLc7+H18Hp4PbxbCt5cY7yTFJ29beBda/xxEKrnEdFXPLweXg+vh3dLwZsr2PcoRW+cBbxTxnckeNcQoE4Y0c8CydbLHl4Pr4fXw7tl4F0rYHWpUrhuu8CbA7gdRvRcETzk4fXweng9vFsK3hzAv6EUPjYteKc4w2EieHMorIShOkWAb3h4PbweXg/vloI3a0BBqH4ewBfWC+8Uo951wZs7t0M6UKcA8i0Pr4fXw+vh3TLw5hrSahipE5nxMK2zjKaA71TgzZ3bozpQJ2tN/8/D6+H18Hp4twy82SuM1J8FAb1mcuWAbovXlQR92vAOqRfT/QIa/BYPr4fXw+vhrX1Fc+qOIFTnrIe2zord3vAKEDWU8+Pi2A685+H18Hp4Pbwzh7e9YkHbGN75xaAyK9bqSuzh9fB6eD28GwgvAauHTL9Rbkd45xcDBGmKRQ+vh9fD6+HddHjL2/ysA98tB2/WmIKQUjA9vB5eD6+HdxPhJQJWDrmTnE+I75aDN4t018D08Hp4Pbwe3k2Ed9iGlhPgu6XgnV/UCEJVAtPD6+H18Hp4NwPe3JjusNeY+G4ZeF3oeng9vB5eD++mwFs3vDAFfLcMvLuPCJ0NwsPr4fXweng3HN5hwwvrxHdLwEsAdnl4PbweXg/vVoB3UnTHwNfD6+H18Hp4PbzjjumuE99Nhzfb1MLD6+H18Hp4NxXe9Ua6Y+Dr4fXweng9vDsb3kkepI2Mr6aiHFsA3v55eng9vB5eD+9mwTvtSLfwfZGCGUwj6eH18Hp4Pbw7FN4pjulWvcJIgRlgy/mrd4ow/mEz4C2cq4fXw+vh9fBuKLwbgG4GL1GaQDyWfqMOIwVr5VPWyK94eD28Hl4P746Ad5bDC254AaWSykLpyUrSwJfiHn9fBLtnDe/A+Xp4PbweXg/vhsDb0P+z27av2Ah0XfAKJ9Gv1pTBmzXqX457/GkPr4fXw+vh3XbwbviLgChSL2DGfRm8lJvokIM3u+hXm5jfOG14nR2Nh9fD6+H18G5LeNca8nIYqROE8cM6eInSBmvlAbbyrFnDu/tIN7zWjAdvNOeGd9jGoGPC+yxF+E1j5FQQdqU/XtaaPgfgz0XwdzOGdw+z/Edr5MwgVE9nlkApMtbyD8JQ/SOAO5jxpVHgzafgnMWrvVoPb9Rww9tetoAaDq8L0vZqNbxLu8eHN+5NFd4TlcK5JpZfIEW7Jbl23TjmbwShul8p3CWCr0wC71xjtvDGcTW8WhNaqwbNed1ot+yTGvPBUYowJ4ACIe627YFwTv1z3OHOjoQ3V+kfCkI6SQQma+D5KCmDN30da2L+jsjICyOcv1dTKZQ14oxt55f0PqXo2vL73bZ1RbWftxYvcH3Orj0hVTU4tpJccNTCe0ps5C5heeKoHVwQqlcCuHta8DLjnSbmN43RyR4MAnW+AH+RwasUobmg1zqwQ0Z4hjU7itTpAD67dj2DfsMyRn5v5VD8J66yOOInIi0MzpfDwcfigc7RWpFyrSKFAyLYW1XOFbXwIwBe7ayDuwJCVd3hJMIeAu/JcSx3C8uTxrh2UJquVore5Go7c009MC+/dcg8FhveO9375CLsOn8chKjb5odF5Bjh5LfznYUrwMo+USn6tlL0FtL42I6CN3erebdS9NLC+K8MwJtV2tebmP/bLOBl64a3uagvUopuHBHeTzLjha7PWdrthpcIWD4YOw8qhXevifkREcytA5/jjZVvrAPeE62Vf1pfR5teE0nxy+BdNiIzrNlhqE4F8PkKeH9ndTl+t6ss9h4VaZHh8DK7jz4I1DeM5eMx+rl9AMBvuTt/N7xEydz7gfczeK3sMT1+RASNdbbRv9KBOqv0HsJSGtXWsvmuMfyU2cGri22Y0Gwvm9a6NvoSQIfqDh3gnB0F79otp7oawJsyeB1Rb76y32mNnLUd4K2KdtOKdn63Y2+e0h3G+xpN/Z8ngPe5IvjHdX23pq8EAT07Pxa43eFNb38/aa28aFbwMgs6LeuEN4rUBd2OvWlKZXgBCB8qR7zlVACHJbzFYaPdrVVzaEfB27/IkXo9gJv78DJAygnDvDHyLWE55nCFty7aVQrvYMblUy7b203MrxoZ3nR4cN3oazoRgq+mt+FozusdAW+K73+xVv5oFvC2VtydKCm8Sxi/O8V6M/D9zcVg8HgOY3hz7a4hgu6Ogzer5EGofoEIn+vDy1Wc4tS4x397OMIrAqwux67jfBFb+euZ3FkEdLG1cr3jjsN1Pv/LWvnVKdzN0Nr/E4LcTIbtDi8ECCJ6ponl69OEVyR5iOeoO2exlTvHifSy83M2DKIfgvDk8t/s2jv4MHo7wEuEOIhUtCPhzRXCchCoE0jhhxm8+alTpQbwJ9bI7x1O8Pa6FtYxzcya4RRpTX8YhOr93Y79MQBEDf0EG/PF1sqVIww7NESkW4pqBn6v1+W62+h7SNHL2EonmlMwMUMpAgsaIJxvY75GBEEQqI8ojdfmvyd/7VaXzZ+PAO9vVNSP74ngi0PQfyuAh7J/L+amf20IvGuRVCACW3OHMRa8va4dmKIoAsgIdyha0weVpveamL+2sBhAAKyuGASangHgDdbKvuz4glLH1T+mMSPehcXgvTJenuwAwCXlTqx0/Zsry6bl6jTmmvpDvY69hoh+xCxoNPVz4phfwFbeUPXgMxecPAPAN3csvDkovq4DOgGAUFZpFaAVDcBlrXyZrZw8M3gJWDlg0qic1gWva35mr8dfZivPrmw0Af13IvrNtAGh20kOO2posBWQAtjIzdbK+TXl+YgO6EmlYx84dWul5QaPvgfCsVoT2ApK8IJU0kiIcIyIrECwnPvuwtzZ1WVTOb4sAuzaE+LQgVhcjUtrul2AV9XNkc5H8lGkCh3MRsJLBBFA1bA4MrxVWQRJ0deF5Rk1ded6peji7Om+iRnzCwm8rVWDQBNIUfZs5Qi2ci8pOtnVjhpNPRa8e46MaL2DVuVpcyA0V6vhvYwZ15iYISxozmsYI1mZLfW6fKimY9qvFJ2x4+HNFchf64BenEW/u48M0V6x6HW40JdyRaBW00RGgpcIWD5QrPDFreDHg7czGDWHJuZeTeP9QBCq35bc3EUnvFYAwR9ZK79f81m7ARzKg0jFhyVPNjF/v+LPLyPgmrSx18HrHEbK41cFb4YugFp4laZXWSuVC1QyeEWApdKc242ENy3j+5nludMYanCcb9Bp27jqu6M5tU8E1/Yjx+HwggjlOpF+lnZe21p4j0rhnVAxEwtsqV0TodmqGGqYa+rLlKJrmAXdti3Aa2KBiBwtgkcr2gbPNbT28A703OrdSuF3sw0qmaUA4izgdaFbxncceLMKUXrdaq28pqIytEBYSG6FFEQq4KVCJH1IBEsV0c+dWquz1+7iBFxc5PFka+X7FYA8JJATAp0OG5TmYKcP5SaGN0M3a/zD4E3vdJz4ZvCGkUJUGk7ZaHjTsnsds9yyHnhFAFNaVMEit1sjr3DWHUU/EpajCUA4p/rPS8aCt/8fqlwkNAq8IjIUX2ulsMgGALpddtWlofBmnZRSyco3ZIHBkKG0bFiELj3nvisn7y+25Wv30u6w8OT20GNxioCMg+5weDXduHKgJpkQJUt4x4LXCozhkcdUSeGpInh4bRxKOeHNTxKHyBONkUdqbsMJ1YNoiyaW5aq/DUN1pQBvUw54qWYi+zB4k9VdYeH3R4G3Ct8gVM5od7PgTRo+LYnIyqTwWisDKyFNXF13ojl1BIDH+4dQBW9A/SlieXgp90yDNLC4K5oMXpaRVu1ZKwMr/yrmwI8EL5AsMglCVV4FKDXjvAm8+17+fzy15QH7dCI+UdIjdtN1+dOEd34pOG/1kLl1aDIhAhThbma8eBR445gLSFDSq0vV90Rzg/d8RGvwzjV0siyXBm7RpCr6n2uogSi80ACGPORLZ5+cQ4Q7BuDNHoZScWwuWzbrgjcf6U4CrwvfIFTOaHfW8CpNN7CVi6rKzbEKcyx4y8v9up3quqOD0k8kGac1MWN+MUDc437HqSueg2T1DACW9kwA75ERjbpEcdrwKpXUszBSUGotSKgKdIiAIFJueJll1C3UR39R4U5xy8fXi7sCdNuMdstCB8ktEjkOO58DeFx4CxHkOl5leB25G05qt8xXKm5PP0uE013wZlFzGKqqSnwPs5zpjObn9bMB9L/TlKJFtrjNGj53xFvof9ABvRLAt+rgLeObwetCdxJ4s7uJ7KGrDpQz2p05vIr2AVhhlpsrnld8ihn/Pvk+GQtex5DKz3Ta9kH3ceDTKlAvdFXsJFEVFcp6FHiVIizsCseCd5wsiM2F4KYwVP+p3IYH2syQh2tK0TXCAh1QH97sd+OY7xLGSyqu3cNBSE8twCuSJGN5ytMX8fUHDvSzU4HIme5QskJOB7YlHWdZizKkX/HByb+5Zr0zUXKxskQTSlEh0hk4jvyQTjbXpXQcImsVIXt/WJSaHYfWibbZ8VBFf9Hr8mTwTulVhrfXteVb7ItNzNdVjNG9jgi3VHUMUpMAAILzRPBh53BBpC4losJ3xj1bRmi87jdZ8/4GCG6ogjeP7+pyklBmaU+IqmWx48Kbj3ybC4Ez2p01vES0T0Su1QH9pTXyaxW3s89nxhfTO43Rx3i5eFGYsa/Xse+tQOSNRHiPo045y3oUeKui3mnN451fDD4YhurCdcL7BgA3ZOeUg/eEOJbP1OWtCEJ1LiAf7cM719D9qGD3ERG++eDB6cJb+tlWh1epdExqBHjZ8UBiM+G1lstR2lu7Hf7Disj0dNBaopcxh1FO67Ts37h+MNdQV5Kit+XLtL1SzMBFCvPCWJ3knINQnacUbq3q9ESS28DFXWFtrohJ4O034oWg8mezhpcI1zILiNASQbP+PnN0eB13EFdYw2+viB5fTISBxThxjwfaCQFPUop+xnWMva69F4DJDaVgYSncUHjLezbWDTWUr5OMHT6k/3Ppy+7DE5/c7I997D4iWvjmgwePU5pMCq/Q2uVJGO0bKiyS/lsgyStNqyrJz0TAyc/T3wW6AFpD4dUENQG8LGnPvUHwDol6Nxze1eW4fH5vB3BFRWT6c0Ax1SNGekQAAPjZOOaqv30bgKELLuaaGr0OHxSRXeOet9b0sLXy1LpOwzXEMA14w0hVDsFsFLwiSYawmiGJ74rgOBEZGd72iilf8j8G8BbX3zaa+gwi7B8l4hWWC9ste2NFdL4EYCU/3NAodWpbCd5JX0rRSSLyYAFerQlHHdOEsKDXZTz+L93nxz3e3KduMtlQMGE6Y6fDeqzSA4+tE/GWZjQwTx7x1l4Awenttt3vBlW9lYjeXoauvWpLkbEGs0BYnmctPisi82NW5gPCsrfqejfmg8pb3MMf3iSQUIpOYpaqMfxXM8upo0e8xWEqCK6wVsaKeJ1VheW32i37gZ0Krw7oNGukkH6ALn3Zfdl4Do75qSZ6XcZjP+5meWwvNDHfCP+aBbwHgJFvtY8C3Okbh4/xyiUmlve5x3hxEYFurD3T6tVfF4kM5mZIhwIuIYX3DwzLlKYr5eDNIqUms3zEGjlnjMj3zQK8q2IMG03HSqjtAG+GRnq8N1krF1Rcx+sgpSWyVWO8pYUIzHJZt2PfU1HuVxDRVeX3o6YaqDOzhDcI1YdH9bExr+/VAd02AG9vcIx3GvCSou+EkXqaNTwwjtyHVyR5Yry0N8TKwbiQwYtZrjexewqLh3cyeOeXggvbK+aDQ78w+ehPZE+qx414ATyr3bIPuCMi7Fc6WcJYBiKLFNm6H7Cxlf3MgzMikkg6KMxqKDbCZGpap80uePOvZ1ojdzPL00YY86WqiL2xoKf6cG0rwZv/DGbpiSAcKwJ0TCcrlBXhpG7bVkXT9+mABpLzh3MbC++eIyNqrdiRZjfMNdTAllDd9uCY9DSS5ChF3xXguCAg5wM8uuisLzwYBHSiaz8tkWLqRGbZb42c7uFdP7zNRX2R1nTj6iFT02MmFXGcBRQm5mKeCQLiDlfusaF0scoSssUBkjV0mJhdU+mc8xJc83hzjazfQHrx2iFVwJutBmrGPf7XyodIAkRNtQTBiuvH0dz2jXjzUS8RonzawUngZSuFOdeUdJDuebzJs5CBebxRQw1MR50pvEdFBAZaq8PxzcObPQNyPp+pgTcM6XYQfSYtgj29Hl9dczd2nbVyqfM6ZkuGg4DeSYouL4zvUTFpePr/i9bIg8xyrId3ffBmS4Zd+GYPGNMGMTK8yeqj0VeuzTX0cQC+u1YZUwRz8CZP0AvneFyva79TM6blXJQRRWtv92JB9jWV26qkdTAFIRZBUBFhn0WEvxrn2myniDeH1qXG8LUTR7xGBha7xL2aTHIBHQvB97JLld0l6SBZULBh8KZHOCzynWuoJGGClf40Nud1rJ1Opi4DcI1wkpuBFD5kjbyupoyOceVuGMjVEIbql0C41zXBv4Tw8b0e/xPGvL3x8Bbhzcp1dXlta5As0s1FImPlahhIkiP4C2Y5u8oJACFRslwY2Tr6ErxZNJ2+2lXbvmhNdylF/6HsZx7dMrz5jqbXZURzKtnVONvvKvmQ80zMH644h9cA+DMX3Iu7w+0NLw3c1tdNMauPeBkwpfnWzPgCs/y7CuhXASwmwz3Uv5ZxjwvpHTcK3iGLmYpDDCm8WtPg3VZNxDvXVOkCCvSTaIlIVwRRFRjlu0onvGll+HEQqqflC8RVcdMlcmfGPb7Hwzs5vH1805R85c8bNztZeVI6ERq9LrdrxkhvAfC6bEZIFbzpTJNbTMyvrfqsaE4tSH66oAChY8ffOniz1IDdtgUpyvbLe03c41srvvZVAG7fifDmp0mOO+Tgzsc7kCLxaNPjR2tup68JQnVZfp6+iZOtzqOGToYsNwDecdAtt5GBZP0jwAuszU0nwpwIOjVl9FERnDsU3lyYfKdSdHYdvNke8yL4HRPzuz28k8G7Nti/vkToKSiDOVUJPxDBT1YeqKb9WtEZdfBaI3/DLKdVd8b0L0rhCRVDseXnB18KQvpFERwcBi+RwMTyiAicOyFHDX0mET7hRLICyO001FDeakMperu1csW48BIBq67bdZFO3aaoQaBuUxqvLsNrYkFzQYOAmcG796iI4t74E0/z8Gqt+pnFxoE37nF/KppWdJW18geV7UvRXhE5MBK8uR7hPCLc6qpIGbzZhbNGbrFWXuvh3Rx4gSQfrxmc3RBAEA87QR3QbTpQ74fIl9OG/hxj+PKq5anFekJzIuiVx3Ydq31+28R8Qw7cm7WmG1RAD/Q6bLK90zotC1L0XLbyGWbZW1M/AwDWpX1jXu84eOvfHhLxduxAIhlSONoaeXSEunO1UnSViflxpQnWCIJQQWu6pNux75sFvM35YJJgL7CW9+WvSyHqHRFekbX2mj6nkJoFO12AGmPBm/6hBKE6FsD38wSRFOHNpqAZI3/PVp7n4d2MPdfEuWGhUnSutXLbLApGa3qLtfIOx/uD58MVEVT2XEHqSnugXjIR6aooeyG3F9p2hbeipj6RbXXqzip4xfWMIPnem5gr5gqv47WRCygKgDaKFTPfhuuzk6lCWshuh/M4/KS18oOaNvKrAD4+Fry5A3xAB2vbdtDa2N/A7r1EWDCxfJtZjvbwbhy8lbsMJykmb2LGBVNuPB83js0ry0mn00MI4pjjqV0QwskieKDqulTlVNhu8LpCLSK6j1n+7TjwVm7/k/z7qyL46e0O76gRLwDE3eJMEBH5mgieOcyQiXegCEL1TlK4nHIDeIXItzh2dFyvy7885COXkKzQyp+ucsJHTgUp99ZTRPDynQovkEwrc+0Wm8ChL4t77hVJ476UpuujSF3cGXigV9z1NxdR/akx8uZpfHc4p662sbyp6ufNhaA2G952hzf9ThkH3vT40evYqnP/WNzjl3l4s/qMYhJ0qs83rQN6swjete6tf6JInQbgb4Fkx0ixydPNUug+LH3iRPxVbtxA9BJmuWsnw1sZ9SJZVCAie0wsPxw3P0L+88NQPZ0F3w4CQhnequauA7rJmvXfsuqALo4ifX23AghQfQaxbTfUULmNOi42Rq4bB97+3HIXPA0FETyv1+O/n0Ze7SCgXUBx09LDCV5gcEaFCG40MV9YE7TSVPZcI0WPhyH9lACrkiWLThpmf3L8RsGbTvTfOvCaCniX9D6laaABdVtOeD/HFj/v+pxde93wAsmE+JYj6k3hTabCCJ5hjNzDLP9mtGuNR4NAvZwIn8uywY0Db5Y0mhnnW8PvGrYltqOh3gxFr0+mqSlUwTu/GNROpicCDj5eCe+dStPZlcHG3FB437J8MP5jF7xH/sQgvAf+dSx430zkzk1RHWeJMyBe2BVU7tBrjHPvvgzerF3/oon5o8zu2SY1ZW+VpjuUpivjLj9UCuTQLG3xvnrIPBbHvHeaDbkxrwvnXlhKTJhvHTKrFfBerjW9M/9ee5VHLPH+d1011c0udUB3E/DSfLafIExWsWwEvLnVVRsK75Ce1Y2idadfc8xGyJ4MVzQQrj4ocs9vLMG7Nj4vOArArxDRi0zMDQAIItURK58G4VMg/Ai5ebfrgbc0FLWXFJ1uenyq0nRM3GMNAqJIx72efSgM1RcA7Ed+A5Mh8I6SJzUIqfLa1G3t7sxRXeiIi/u/5StPp82u4ZfRj83U5LWuinrTudADdadm7mtVGtQSvPl1Vk9Qik63Rk4jTUsQBCD0rOEDAP4Ogn/WgfpqYU84AuKSC4oG+4KoQZX1f9JW3Fou5Ycufamu6FjZcrKwZ0i5J+lkqaobnP4uw9GcuieM1EvyDcDEPHN4Syd5eMDrgjQeD95y4vNRGlcNvMluAYHqj/HNNXXSOKjYGqcMb3/eZxBQ8lSdgOZ8gE7b9O+cCh89BN4RA4WJ4CVVDy+p6vnDrnbg3sV49vA6toka2nnVwAulCcJpuaY/SPZdSyqZDlRxLNoFryNnRzhH092OzJWYf6Bu1MA7gpibAe8dQajOKV/Aqgc904DXcYIeXg+vh9fDu7PhzW6Jex2eOrwVJ+fh9fB6eD28Ht6p4ktr40EVLw+vh9fD6+H18OYh6HXtugtO1Sff9PB6eD28Hl4PbxmX9TxsG+EieHg9vB5eD6+H13XRJ2k0I14AD6+H18Pr4fXwusd8q5cmrgNdD6+H18Pr4fXw1uM72gO3MQvew+vh9fB6eD2864l8Jyh0D6+H18Pr4fXwDnvFPS5m+ZkcXQ+vh9fD6+H18I766nUs8nke1lHYHl4Pr4fXw+vhHR1fhjG83oLeMvCGkXKei4fXw+vh9fBuGXhBQKdUKIczvFX4eng9vB5eD+92g/csZrlzq8ALJHlGKVd5PLweXg/vDob3kl+/76dNzPeLINoS8CLZXZZ58v4gxeN0Y3g/ZGvAW8bXw+vh9fDubHj72eTjmO9dL1TTgBcAWstmYuYyPJQCmPFKE/NHtwK8+WEHD6+H18Pr4QWpfiM8M+7xPZsNb6dt63cBGBHerJBE5A9MLFdtNrwZPlUXz8Pr4fXw7kx4kx8QXRD3+KbNghcAWitmavD2T5rlJjP5ZotTu/rVkIqH18Pr4d2x8CoCJQ1rn4n5vZsBb6dlwDxdeNONFiEi/9saOWOz4B3n5eH18Hp4dxi8WSUXyDtMLJdvJLxIt5kmmj686c/IGvkasxzv4fXweng9vFsOXlBS0NbKddbIxRsC74RjvWPAm713RNyTh0TkCR5eD6+H18O75eDNCh0if2mM/Nqs4Z1krHdceEEAGIDCM+Me3w9Bw8Pr4fXweni3HLyURcBGPmmtvHCW8I4b9a4DXggDRPgl0+PPiIfXw+vh9fBuRXgl+Z2QrXyRrTxnFvASAStjjPVOAd6s4l1g4sLMDg+vh9fD6+HdIvAKoJKG2VSKfl8H9NZp49NujR71Tgve7PetlSutkf/q4fXweng9vNOA9/+zd+dx0lTlvcB/z3OqunvmfdlBiRE0KoJrYrzRqBDjJXq9ERcCEfEqUTGCioAafREQBUUEhbBcF9SghqhvjBsq8sE9CpirSBajCCTGJcoiINs7vVSd57l/VFVPdU8vVTXdM90zz/nnfWeml6o627dOnfMcOuaQq5ogNJjp28z0VmZ8PSvcqknFJM7Nbsg3ugN+182w9H3dL5Plxjv/mpG/066oS89sKJrEa6ELOSPpEBH9QtpQfZ2Z3k1EVwDazQNoX5uXzEhZUbSor7RRvjVd8Urt5g/1t6tZ/qTfkr2HxzRO85REFHEsYxuphUWHWp1LlaesUaoMkh1JKNVx1zoIGUFI8FEuE9OsHZTryNW/MCS0W4IgJAQhQ0Th46STpHQVZqflUV9wiCNNUCODO4Jup5truL1X1OoOTEAUycBFRGU6hyIwY5d8edJALrdh+TKd/w6iZHFTfSEAU9o5i8I5SjocVXTaAhWgVmdEkcA56umkBgFQta+TV8Cl13lYuRgGhrlImgwd61CYDe9kmQlhnUt1sD7WZTiOeF3UFkisI1+nCtQavAKCQ4fIS06HVk3CStQaPPU+KQFc9S+JIx0b1oOYQEiuWb6fJaJ0rVDPBJdlzGXtTo3Qbi63O6rJjlWUwsalbU+75RGEDCKCiHaRmf+8/M9d/FBSd8cUocKpVuexnzeriQiIIkXUkZF9SXZzFHUEYY0RdQT1hkMUC+KOoLEYAKrJzVO330lutvL9DAFQSvqJTtvDx4rGokv6lkgR1JIyk3dKt0+hvnxJfwhDhnig1YqHtp10zCFX3QFg976Tj52j7WA6l4B/GYbbjQDe7NhWE5NnDdPgaJcEOEdfdUzvBuHKnnbMwGvgNfAaeA28Bl4Dr4HXwLsSvCsbGtzOjt9PhPeo4paNBt4MHiozXy4LhXcnApjpCmY6D4SvJg2bgdfAa+A18Bp4DbwGXgOvgbdwYqYfuYDOJcLfqaKzEcA7J+ittp8RAY7pcmJ6C4DvG3gNvAZeA6+B18Br4DXwGnhLJmb6mgvoTGJ8Azq/4AVmfk7vRDbwJELETNvZ0XkE/IsaeA28Bl4Dr4HXwGvgNfAaeEtdOGGmTzLTW4hx47yBd8bRO5Ud64nQdo4+zo7PB/TfDLwGXgOvgdfAa+A18Bp4DbzlRn9/w47eR8CFINw6D+AFAPWKGVzHNhXwDij8TRfQ3zHT+QD9yMBr4DXwGngNvAZeA6+B18BbBsCOrncunf8raM8qeLMLPGPRG9YEvAMarh2OcWkCYNxg4DXwGngNvAZeA6+B18Br4C2RnKOvuIDeCeDrswbeDCQztJBtXcC7siHDvcz0EWa6CIqbDLwGXgOvgdfAa+A18Bp4DbzFL7ow0yXs6N1EuGEWwDtj6J0J8A7It3uY6RJinAPgZgOvgdfAa+A18Bp4DbwGXgNv8ZHEOx3z+0H4ayLcvq7omY2FbDMJ3gGV51cu4BMJ+IcNAV4d37gbeA28Bl4Dr4HXwGvgNfBWbx8VqDf4c2GND103cBLgowINp4E3n84BsG1Wy1SJm65CI9UGXgOvgdfAa+A18Bp4DbyrBe+nwxofbuA18K6mowUBi1uDBAwFy9KOHTG0wMJFA6+B18Br4DXwGngNvAbeuQUvEdBuCqJIsi17DbxzCN7FrQHCWgIQ8cXft7Rk4DXwGngNvAZeA6+B18C7gcHbaXlE0WBMrBN8DbyloesQ1no7EAOvgdfAa+A18Bp4DbwG3k0P3k5reUR3XFpj+Bp4K4zorkCmgdfAa+A18Bp4DbwGXgPvpgRvOnUhLgjddYKvgXcV0DXwGngNvAZeA6+B18Br4N204G23POJIJxI3dsrwNfAO6ECTxWgrpy4YeA28Bl4Dr4HXwGvgNfBuavBSCt1oQtBdI/gaePvKxuJWl3QQJToWA6+B18Br4DXwGngNvAbejQ1eAjrN4nN0Zwy+Bt6+tGWnAEFI5ZBp4DXwGngNvAZeA6+B18C7IcFLQKc5vRHdNYKvgTdXQaHAooHXwGvgNfAaeA28Bl4D72YHb38c3fVOq4SvgRe9MDHwGngNvAZeA6+B18Br4N3U4O20PaKOzgR0JwTfTQ/enrw08Bp4DbwGXgOvgdfAa+DdrOCdZeiuEr6bGrwr8tPAa+A18Bp4DbwGXgOvgXdTgXeNF6NNKjmXoKGn0zPwjseugdfAa+A18Bp4DbwGXgPvZgJvp7V+i9EmAV5OO8YC6H2uiH5us4F3aL4aeA28Bl4Dr4HXwGvgNfBuZPBOO47ueoCXOUFvHOvQQhmEvK+qnuRjPVoVtY0O3pF5a+A18Bp4DbwGXgOvgdfAuyHBO6dTF4qCN0EQwATEvrczTMHbLThpp3mUiJ4sXvffaOAdm78GXgOvgdfAa+A18Bp4DbwbDbzt5vyP6BYFL1Gu8ot2UZMHb3Z9mNPKDOznRU8Try+adoM5bfAWymMDr4HXwGvgNfAaeA28Bt6NAN40M25WxfexARMzRezo4wA+NRC8kjUeK6EwALz5fK6p4iXey6kq2GeewFv4hsbAa+A18Bp4DbwGXgOvgXejgHezJCIIO9pORGcS4Uf94IUCon0Yzo0ED4QLuq99gqie6mN99iyDt9TovYF3zcEb1hgiSnGkFIakxKSxV3SamwO8jcUATKB0uhEFAWkKXm23DLwGXgPvxMBbJ7SXltsdVVAUCVFSB9QxqfcJrgy8Bl4D7/yP/t7GTBcQ4XxiLK0Ab19jMaow5wFChLoITvRe/koFe84KeIlLfoOC6g33BnZ4EICijA2I6FIi+k4hUDaLg7dW41e5gB4NIC58LEyXE3D5jID3fgD+RESfoYoDVfTBqnD955k1Qt3y19czUNLZ/YoI1xLTF4jwZQA/nxPw/pYK/lRED1XF41V0b+0Dm2IwjgegVonopyD8P2b6IhGuBvDTceANwgR2A89N8RBVvH6ewRvHcq4qfjISDTrwBuwgEI4oUddZgZ+S4jyl4beV2W6cPpKxwnEhvTZwfIDqyGMgAIg6/uMi+HaZshwEXdyVSS8E8DQAUdF2B8DlIFxWNRujtkwSvHsC+J8i+sxcuxMOquf99W5F25P8PyaiXxLhOnJ0NQHXAPi+KjplwctMRQdh6gRsA2EvADJjtS4A8CkA3xhX/rzoyCoQR4ogpJ2jtuwVhHxA1JEHhTU+wHvZGkf62y7gfQDd4mMNAOxChAbQ24cM+N4OgN+4gNqquB2K611AtwL4HgE3gPBjAE0D72YDsKPvMdPpRLh8EHhVEzQSeqdF9NwdDU5PEa9ne69PWU/wVrg7ZhX9vip+r8ybFra6VzLT+4u8ttPyhTsf8XqlCJ5R6li2BO8MAnpTWbgRAc0dceE57YPAS4Tf97FuE9HD+mE7nWEEwDm6hpnOhuLzswBeF1Aoom/wsb5ede3aQWa6kRjvAfAx8XpH/znVGzz4aYHioB33xd+agTn6lVMY8kEArhqohgWXjGDrwBGo1+64Jzqv6LBbOiL7r1u2Br+vOhwhSV3y6LTHL4RW1W+q4qkl8vnWsMZPEa//GUVTc9DFAF5R5g31BXeOC2gbKrQ7rZZHXGBjpxHg/T3vZZt4PawftmsxkklMX2bGeUR05dgRXgLCmht/roSdd9wT/yCKZN8ZXWP0VwDOHfWCRsOBHA2vXoSFdsv/R9zRB5QenJpcu3kzMa5wji4G4bvLdz0G3g2d0ukPH2OmM4jwH6PAO+yxan/Fzu62VfVEH+vrVLFg4J098BIBzSU/9vHTEPA+xXv9oIg+Yt3LMNOvA0cnedFL1gG8fyheP6uKvdexDoOZ/gTA1/rPKawxanUy8M45eHNl/Z+h+kxV3Dav4M1GwotGSMrAW28wfKxPir1+SLw+cmb6UKbvMePJqqOfyDUW3NhR940A3nrDje6DCQudlv+Bj/ShmJFzJKIdQUjvYKZzgpBiA+/mAfBt7PidzuEDAHYMAm93btOA0d7+aRG5n5/nvZ4mXh9n4F1/8FbBLgA4R28T0VNnEkoKhHX+u7DGL4s6EsXTGwkDEXYD6Lsi+rD1Pu0goNNAeNugv9XqPHguq4F3LsGbu9G62Md67LyBlwhoNZOb0aLtTgred6rqtlkrr0S4q1bj/UC4fQyoUGu4Ip+34cFLyQjvTIE314WgVuNvBSE/p9WM7zbwbrLETP/kHL2VGFcOA++oecBDfv5tEX2zeD1aFYGBd23BS5RsttJuFRxhIaBW51d22vLeeQESM31QVQt33qVGxhkHQTETWGRHX0tHd1e03OSA+rDFWQbeuQVvrhx6Ijpc/MR2zZwqeImATkvQKXKTrQAHhCDg4zodfxFmtJy6gA4D8Jlx5SesMRoLbmw7Y+CdnRQEdJYITjbwbtJEBGVHH3KO3gXgphXg1VzYsxGNXrbxB7qrXvUo8ThNRB9q4J0ueImAqKNoNePxS4eT6Sv7ENHVIjqxkHTMdJeq/kIVv2ImEVEmwgOIaB8R3XWC5bXNjp6sgusK4KEY/kH7x7H8c9VpOsl30A0uoB/7WK8nws/CGgsAxJGw97olCOhRINrLx/owQB827KaQmO5kxqOguGXISAXCGg1btPbHO+6LvzHn4P1jAP+4WcGb+97rAfzxBKY5TA28WXSSEjfZD1TQter1/pNCERE6xHS7eP1JEPI9zIiQLAwOxCOMY9mTHe2rorsX2X00CPgidjh+bBXSBIEuoKmBdw3r8ckAzhr1gsaCgxszpaHd8v8eR/qQ0qhP3OABNJcXDgIAtgCT53MQ8iedwxFq4LVEhF+6gM5NRtNwXz94u6vweyM7JD8zejqj3Ar3h3uvZ4jXI9LPmW/wEtBZSuaruaDYSt1pglc1CXNUcCT4WSL6xdU0pkT4TxfwmUT4e1UsAckmKXEk8D4JTRPHChcQXMDdSAPEqKniCInlFBGsavc/ZjpeVS8afZwEF44PLeS9fsZHeihKhr0L6/xeAl6taR44l4TkAZJpByl4EceKWo0BpiScDvXcHD5WVY8Qr0eL4P5BQIdgSGQORTKqFAwLPabAjvviyh2lajJ6zI4ubS75F5WcFvO3AP7C+9X10kHIQ3G1sBgMrGsbEby563GqeD1TpPJ1nRp4VZOnSkVGapnx7DjWz6+qzju6iZnOIcInobiHOInowI7QaXnUGg6BWw65EUeKTsej0XCII+lu4gRCQMAfiOhh4vVwETwovdn8MREeiwIRLYgIi1uDotCvBN5ddgufx44uW++RcBWg05Fx57jQqgDe+oI7lggXt9NwhNlULZGknWwsOHhJNthKP3dvVfyZj/W41aw1CUM+iRhnG3gt9Tcy3w4cnQXCFT1hp3LgbSw6hHVG874YUW6Fbn/8xLST36qCfUX1R9M+9ImDl4B20yNq965Czlb2j6ro0wSveEURaKjoEZ2ObK8OXbowCOmEfPit7NgKgTcHPRUFO3p9FMm7teK0XBfQtvTmaVTDBuKRLfBvtVv+Bol1J5QD3keI6aXdG0JJYuBWAO/ytSl2s4GwxhMFbxbjtb7oQAA6HdneWvJHlATvJ9jRC4F0442K8B0E3lHY3ejgTacB3K6Kg1T0x7MC3uSpkhSKBEPAK7zXi6teglqdX6mK9/dfl1WAN6l+vfWvTkQMQrNQOQ24cMzrquDdedfwSA5oOxRYL/SqjsduBt4qUxrqC+5EZroABEisiCKBqkLTdUYDwNsNf0kMxLF+yMd6dOm+jHFz4Hg/BXYYeC0NK9Sxc/RRdvQuFdyQFez6gkNjgbu4jdqC5pJfOQc4t2FBmcDmFUesJgbebAVykU5v2IjvNMEbdfzo9jAB6sFRW75a8abnH6E4WER9ECzHs1sNeEU024jCsaPPVt30JAz5hUT4xLCeVrwiikZenQcS4SYAjZIjzBcR4/jc9QUTgTmJh82cjAJ5L/CxIgxnD7yqCczz8xCJVg/eLFWBbz94x2F3w4O3tx7+jYq+vGR7OLUR3k67wOgu4VlxpF+sdL5MnwT0iCwjgvz0gcmDF0RU6AG6C0Y8ZZkWeHN1fO2wq4g6RVcuVpvS0AVvLh+8V7SbfiB4e0KpZm286CVxpC8thxkgcNSzXoCOOeSqGFiDGJyW5nP0l+k+Zjq/sejObyzyHT0NcdqhL93nl0NJVQDvKh69rx68BHQKQnccfKcB3mwOXWfMblFE2NN7vb7KRiLEdKGqnjAg77u7hRUGLwNQggzYYoqITo0jeVuFO/W7wprbHyPmOrIbCcoHtFtyo3jdUhrbNT6ZgLM0P+pAvaPfA0P+DZgXv5bgzRbcLCyuXHAzSfBWgW8evAl2XQIRGHjTenc3gINE9AfrCd5sC/Exabc4khtVy7c7w57ecG5brqmDN91sIf9zEhKw3OYfEwNvyYGiUSnZ/rwb/nDwa2It7OtVj/AOSPk8S55iCtRjRR6B8FQA36xwA3kcEd7TPYcTnv8dWLI0Lu37sC2449b20A7jvnviZFMDLgfeVdbtyuB1jt7frgjd/nPPpjpMZYQ3fawofsy2p6LvjCMtvZWzC+hSZjpqdCYlbc548GoXgMOuFRQf9l5fUuE430NExw1qnRW9m6wM7Ly9fsl7/d9V89kFdDURnU6ErxBKglfRrRf51w2d5kFJ7NIq4B00ojsoHyYN3jLwzcBLRCl2i9WzeQUvO6o0/YMdfUBFjynQZk4cvNl0Bu9H1ytVPd/HK2+WC5SlS4hw9IgmB0wAMY8Fr48lCYGWbGwztI/JdlfrGaQQ7U5Ryr9+YUtQCr2rAa8LaPtqt5gfBd7xFaXwiOlERnhzAxkQr2gteTQWHXxux1DmNI/Tmxfx+qaoI++ocBmOBLDdwGupVNrnoVtw523tbmMokkxr6HQkmYhOubuyFLvj6pHEgKxOvKXBmwL1Eh/r1yZ6gZKBg5NU8ZiJghdAqxmPbLgI2FNEry87ykJEd7kA+xdaJa7JY77s8X0XvI4Q1BkSa9Ebh52jSG5Swf1K3ljc4Rw9Ehh+rCOLEuEA8fovqqhPaBTuJnZ0GRG2q+I66t+6dgh489tidtoyEmtBmICwCHi7I7oLbvwT6CmCtwh8XZDEGC6K3XkHLxH9hQvon32s31fVsOR7byfCH6jqT9cSvNno25jCtFcUyQ9VsVepc2LcXqvxfqq4q2g+ZuANaw7AYMgNA+/IPmgAeKugtyp4t+4cvp1Zvwad+N5lLKo/U8VNhbrYIq+ZMHiZk3aiB7x9i+LTO58HRm3/I1XsVLLPiGp19zgAPywE3uxC7bJ7Dc0d8cgGoX9P6/yWb/kLqiUuvA79na78nQ4//mRIv8LQXZHzXMukxcvmJIZP82nvfRZxx60ttNvJI4dsjmK6VWPPdaESxxhHilWsTq40wjtLaRx4VYF2c+wj7AO912+X/e4g5Is4m6NaAvbdx5wpyspWCBE9L+rIaysgc2j81hFVNp/2F8F1qro4jbwkxr1MdAUxfZiAK4nThxwVwNsLWUJjwQ0EbzaiW2+4Uk3btME7Cr7JVIug1JOVuR7hZTpBFRcmbSXO8rGeVKHsn6Ki7xjSDEwFvNmq+hHd0cEqWm7NQBr5hB29usx7iizYnSR4s/LT2OJQr89fHF5VYMtOwQdrNX7F2AXRxaaurCZKw4ns6AKVbJQ9ebpTALx7x7H+X/F6WCUcOPocMx3acw558GaP5uoNh4UtAcKQIKLYdY86bvnFEu69O+qGjqK+XqY8eJd/kQdrPnOyR+K9v0tenJ/Y3vt+XbX3KJ2ol60SJFoGXZZZ3QzP5hrRmOsxFq7a6/i+66G5P+qKa6XLI0nofYQz7qagzPVgAsAEzuN2leAFku1kK67i3/DgzRqkUZ28xHpKq+nfXjZPg5CfDkLpRW5UJZN709Ojjny5bP1sLLpTmOkdow6s0/LJ1BoaCgdiRx+NOvLitchfZvoJM97Ljv5GFXeVBW8PfENCY9Fhx73JiH+txmgsutLt3FqCNw9fHyvCGmPL1qBSGzTHI7wnEOHCrC4TYy8AV6tgv5Jl6QeqeqAq7lkL8BaA0sntpj+zbF66gJ4N4ItlWpyi014mCd4uehcD1BvztbVwCt4P1Gp8zHqDt9Zw5xJhe7frIBCBHDFqIlprLfmda3V+nPe6tyqeoKL7F4mnPLqu4Jdhze0P6I6ec3j1odeAGdh1jxoaC0HyKFp7L8Zuexp4DbzTA28y0ivF5httNvAq0G6NHuFVxRne65vL5mlYd08G8J3KLWr19KROR64pW0jY0RlEeMu4ztHHhULs7BSEfF7UkZevZX47R59zAZ0A4OdlwNvfrm7ZKaw893w9wKuazEsOQ65UdDYKePP9qwvoKPH60ZKLo8BMfyqiV+Sq4eTBq0BzfNzv0wCcXjYfGwvB06nMjXbR/BY9ttn07yt58/4r52h/APeNuNFAY0swjyO8hcEbFwTvPOy05hx9V4GDVNBZcQ6vPvSa7qjuLrvXwAN23FLFLrff0npX1JGXKDQESAk9DcigoBqjfjfoX837NVXcir/n/q+5vFXowL9nv2sBK+6Kx9UE7SI3yV1NR2c0P0oDSr+5O4ePNH2bglZcA83s2j3uXqZmr5fsVdr7Pu15X/KzpB+ZvSf9HZA28vnfZZ9/e5nrkbsB0D7wam6xkHZ/BwSa7KRUap6sj7VsZ7gpRnjbY3Z7U9XTfaynlQcvrwK8qzrtJ0cdubosfJyj04nw1qIjiuN2DqzVHXwSQuwRKvqmONYjAQRrke9E2AHgCNXBG1AUGO3D4tag6nevC3hrdUattrnB2z8QwUyhAleJ1yeUrAsf815fNLUR3mLgPRXA28rmY2OxJHiLljHRVzSX/MUlj+enztFjDLzzD14i3M2ODvWxfmPoa7IR3uX5roSddwu74WyIkkdvv/l1O183nideT/JenwhLlganmd1pbd7AO26Os4ie3Foq/2gxDPkZIHylGriSKAMV3fuMKJIrUWVKg6NCK3UJQHPJD1041QferMPMNrB4hAheoKJHiuh+08x/ZroWwEGq2irboYXh/ExpMPAug3dQnXaOXuK9frjU5zLdBuCRKvpmAKUiJRSa0lCg3Wm35MwKZf5QAJ8rWmZcSIUamnkE78AIL5MD76W1Gh81qSkNq9paeIrJBXQZMx0voj8nouUQqePAmw8yr+k+0rvuUYP3gjtvbXeHHLP1hOlOGbur4pVxrK9R1fub8yzNMniJgFqDj4/a8qFJ7mOeTrb/gggOniR4VZMoDWOO9ani9ZtljzkI6UJ2VDqkECELtZS0B1oy20T0wrgjr6nQUT4VwLfKHGhF8A5KD1DFM1T1MPH69ElFe0jhcjMRHg3gzrLvbSy4oTE2DbyzC95BYRuJsAsRXS2ijypxXTyIfq2ie08avAW2Mn+mKq4oVQ4A1Gr8AXZ0TBHEEqNw+Z5H8O60a/hcH+vnC4GzZH1rLDCCkMZFr0HcSTYIGlevZmWEl5h+5hydTYS/Z8adCoKKplsVjwHvq553zbHO4VJV7MiDd8UdSDYxcyV4050w0vmuwO96r6eK18N1nfeHtmTgHYjMNA6vj5MVoivmm5eEbndv8CnttNZp+3GL+naNY7leFaU6PSLc5QJ+OIBfF82fqO0R1pItN32cLPhI4ChFQ9vs5WO9URW7ljzW33ASluyWoj0rMyGs0Yr2LIoUKoogpJ44o2PA28V+7jS3quqR4nGiiD5yNZWFHX2eCc8t1WRqEtO2QpB8A+86gzf3eSsKGBOd7n25KUplUxHwJlPMRmbWA6KO/lBVy9ble4OQH67j6rKO2YRlA4A3i8ObROORnhvwaYM3eXqfju4WWxQ4M1MaiHEtFH+kgmZ+PVF27kPfl20tnMYnvYyZTkEubll/S9/dvSS/WCsDL/WOEqfxWg8Tr28X0QPMgAbeWQFvttMapWG2Wku+dAfcf7xT33hihMLU67lxrK+rAK1PO8bho0ZkKJ20TjwcvCLaXVA6KongU1XCzAQhX+AcTiwKwUH5AyRbAsexLu+Y1rfDUSnw5m6UKDm3g30s/6DAbhXqSxwE9HgQ/q0MeMkR6nVXuuwaeGcDvMOmKxHT70L122Vjj04cvOOnNXwwjvXlVdodouHtDpYX9kEFCOvj0Tuv4O3fWrjd9GM3/CgLXtXEaJ127zQvF3CZa1VxpzU+hkAf6C/rkmyMcbyqXlC1TWCmPxPRzxZ+TwbeAZn8XxzQWUT4IHQleLtB1XMjvxgAXpWe3+8hoq8TwWtUdCoV2ZKBtwx485WnCHyHQWpa4M22Fm6P74zvL15/XHbkNIXM+0T0VYPyIxu9zoK/DwVvfic47VnFmb/5vcjHclyFhu0eF/ABAG4uNOoZEHiIAYeCt/9YfbKLXBz37s40DLzJrkbJX5joUyLlUc+ODifg02XB243Ra+CdO/Cmo1XDjotU8RUf68GTbpyL7LQWxzr2mhCwn4j+oMoUH3Z0HhSvH3Q9XG6LYGjyc6cjqDeGb1ayUcCL1E1RW1a1NnhQiLYo6h08ISqBXsJCpxp4uxtPiGj3aWUUpZtWMe1MwNXe66MrnWdA2wEcWWiKzDDwrhxhoQ8R0ZkE/HQQeLudBy1PdRgA3u5FTkd7nqSqp4jXZ9n0BwPveoJ3IHzzI3gF5pJNa0qDpiumx2+hhT8Xr5+sklnMdJ2q/pECO5gJLkjjsOQeExUGb/q2OM7mVWErEX1LRB9X5djCkF8EwscKvTag0TGLC4MXCGqEdtODmFCrc0/+d9qSnNvgUbrnqo5flDPge08BUHz7TAU4ICwsBmW/x8A7Q+DtDwW6sm7iTSJ4xyQb56JxeKO2x5gpoFDgdT7Wc6u1O/g2QE9TVU9E6UY2PffN6S6P1N0II6zxwGkOGwW8FaIVFU794M0yMSiA3lWM8PbstJZNpYg6vfWNHZ0uFafyMNMt7PA4Fdwy6tgKg7fvw//dBXQqES7rLmQjjA0D1DPyiwTDWR8iQADFX4joG8Tr/uZFA+96gLcfvu2WL7xoYlrgTT872W2Ixr7uVVFb3lNpjlWCkvcqcCKAKA/+suBNP69GhAs6bTm26pwvZnqLqp4xDjYuINRqPPKmIH0Qtav3uoOAaFXgTUPFuZAhXrs7OaaLkc6OI31jhZGKPyfgU6U6bJvSMPfgBcZHYmHG76viO6sNyF8GvEgjNMXR+HmlBPyNiL5sFaOR7wpCfuOKOPoDwJtNc0AaTjU3B3+uwTtN6I4Eb8GR3kmBN2uL282Va1PY0R+o6NWqCMs3EoBjOtR7/dxEwdt3EZrO0XvZ0VmquKPogaEfvLpiDvADVfVEH+srpjWPyZKBd1zqjImBu1bgVVUs7fCFNnxgRy/2sf7tajKPGHc7pvcQ08UAfl4CvA9W0Vd6j2NVdefVHINz9Dov+tdUoEFxrlC780Af649FsCWd//ULZlxGTB8DcC2AuCp407broSL4cBzJQRXa0RY7ehQUPymXTzalYSOANzuOMX+vi+I68atbIFkYvEjmfbaW4qJl8X0qeuxqjosd/cw5ehcRLlXFPUPBq2kEFgWCWrpwU/TlzSX/wbkC727hc6D0hfRJ2NRTZ8R6kHHonSR4s0GcQbvcEVFDFdeJ6CMq9htniwzevnvV4B3wZVexo7eA8HWMWIiT/xsNBu/y/5M7vQNF9CQf67PMkgbezQZeShevtZq+2DabTI+A4ioRnVjdTuvjHexoBxG8KgLxukiEPSYa4o3giempKnr12AJAhKDgKu44lq/7WJ9W6H6c6WZm3O1j/Tkz/cqF5JnII5nowXEkNRHdl5geKqL7drddqdpuBnQOlawv+ce7FqVh/sGrWigWKpjoQ97r0WsB3mQNwcrHzwOPHwAzDvOxfmqyIR/pNmbc6WO9HsA97EhVQemCujoxPYQZu3uve6J89Jf1j8O7hp1yWONT2dGZo8516AFNYA5vf1nutIaPOBPTR32sR1W6cWL6soj+r6mDt++gf+0COp+YzodiaQV48/N/JRfubDB4s4UvIEINwAu91zeKr3YXYMnAO0/gzepDu1WsY85G/8Iav7nT8mfMyxx5InxCgf+DAkHO0lHaoh99mo/19Fk8Z2a6TESfVwWBi1sCkKNSO4AYeGcTvIXRm7SVr/BeL666qqkoeLPuut3y6QLOIjdv3CDCZVFHnjEH7c2G3GltKHhDfgM7evdMgDe9Sxq1xToxjo8jvaDSIIKj64joCarq1wS8A0YxPstM7yDCtYMWvPU4WJfn+g4Abz+GH6Cqx4nHMZMc0bJk4J0l8OY75yiSMo/AXBDyWT6WN8wkfBVwIX0mDPnFnY4sjZvPmDbcyYY5xT7/8Z22fBcAz9qpu4BeqYL3V8mXWiNdvGM7rW0Y8OYHfMYVamL6w3S+Y+lyXQa8WWou+bFhyvqu677MtN17fZKBd/7BO+kpDdnd1LiNL5hxiHj9QqV2g+kXBH20Ku5Zc/D2yf2/goDPBPBRIsSDwIvuBhfJZG7naBh4uw2Vj9PFPTNZuwb+t0zD+TQR/bqBd/OCN+ugl3bEhRaTdBudhssWVP2Rj+ViEaxvXGwF2OE2F/A2VXwESMKJdToyfgFPuR5lF1X9iSpm5kY43cXyHBfQtjLlawUe69XxaOCdZfCWQSX9lir+VVX3mjZ4AaC15CEl0FtvOABgH+vrvZe3qmLRwDuf4J3KCG9aT9stP/LGnZgep6L/VGXRJjN+xY4eo4o71w28/Q0OM33MBXSaKn6yArx+GbFEgHO8HBZtE4CXlmvQs0T0iwbezQ3e5U46RlQQvTnwdt+vwCMl1r8S0eerYsua1HNHX3WOzlbFVymtCJJSpBB4K1TtsMYgwqNE9DjvcYSK7rZObdzHXUBvF8H1QUAgomQXvRLnpJoE4a9XxK6Bd/bBWxa9AOogulaleBzTquBN0BsX3hghAa92B6qS7b5xiIhuU9ED1/OJExHazHSFKo4E0BoBJizuFBp4pwReEOCjAjGfCfuo4t9VUXoxNDNuZqZHzQR4B8Dnh8x0BjM+qX3g7QcSE21Y8NLK3N/Q4K3QUDA7ej0R/XYJChE7/D0RfafIi+NOcZAQ07FEdECJY2Hn6EoifKlqiS0K8n7wdguh9qwhXQTwRFU9RARPgmL//BSh7gIL6gWo9uUdM90N4AZmfI+ILgfhu0ASwSW//eMag7f7vbm0NxRPUNU/FMWTVHEAVHfPjyIMPGf0flb+3InpXgJuZKbriPAVInxLgVuzKVycnm9V8JYKFD+iGRLVl4rXJ4JQdItBVsX3oLik6ve6gJINBSofMw5Ur4eCIAXBy8z4BTu6QHX412YLQn2BOapE9EYQHg4UOwYATkU/AeCr0wccnQzCQwocm2PG5UT0mfJ3LkkVjKNip78CvFgZnhTAHlAcpKIHi+LxUBwgfTel40KermjTmO4D8Gtm3Ji0Rfw9QL8L4L+BdD1R+tpBkQJ62w+XbGQzOoRbXUVfq4o9qrVSa+IP0mRqwLeGT1sYuctIqKKnqeJ+Zfo4ZmwHMPbJtEqRUPPYqsDb0r5KUa7p/OVMgrfvKJdcQG8movMGnZ5Cu5mUxU6dd/COKHQbGryV7lhrXGbhUnJTVKJ8+FgKgyQIeeDuNqNSsiVv9fJaNHZjQfAud0TZhjHp6+JI0Vh0EFVELUEcK4KAEDYYjgmtpSReMbm04Uo3p8lvXjGD4O3pUJmT6xnWGZ22gJlQbzC812Q1cXZcaaD2Wj15zNRseoQBD9xivbsR5YTAO7GmiFGp3sgq2lZiWlXoJeJk7nap+uUVcTz+mFWK1aNk98Hp1NFhfUXxu//ixyZ+dTFfi763IHi7a3lEc3UkTEKR1eoOQbqhjKp2tzrP8i1Ko0i4gFBvOLSbHuyS+rX8RItWtrMFwVu0noR1Kl2n1tofnVZyYzcUvAXKP5WsxOJlom1clWNIyp1i5sGbzHfjT4c1PnzcRYtjRRzJqhrl9QRvgUw08Bp41w289QUHVUXUzoE3jU/bbm5M8NbqSZzdbGe1PHiTBWOKVsvAa+A18E4TvM4NB28cG3gNvJsQvFnMwKKxSmcFvCUyz8Br4DXwGngNvAZeA6+B18C7mcHbC19BuylrG9W5JHgrZJqB18Br4DXwGngNvAZeA6+B18DbD19NQl7MEHi5eqtv4DXwGngNvAZeA6+B18Br4DXwDoZvlMJ3PYvjBCqDgdfAa+A18Bp4DbwGXgOvgdfAOw6+gs4aT3WYYCUw8Bp4DbwGXgOvgdfAa+A18Bp4i8JX0Wn6qcJ3CoXfwGvgNfAaeA28Bl4Dr4HXwGvgLQvfZHHbJKM6TLHQG3gNvAZeA6+B18Br4DXwGngNvBXh21F02qtb3LYGhd3Aa+A18Bp4DbwGXgOvgdfAa+BdLXwFnbaUbmjWKBl4DbwGXgOvgdfAa+A18Bp4DbyTSZ2WRxSN3lt9HQq3gdfAa+A18Bp4DbwGXgOvgdfAO+EC0hREUe8c33Us1Abe/kYmZLAz8Bp4DbwGXgOvgdfAa+A18E4Avh7eY723LDbwDkm1mgO5YiAy8Bp4DbwGXgOvgdfAa+A18A4oBT5KOnoYeGcSvHncjGt0DLwGXgOvgdfAa+A18G4y8L760KvP97H+pSoWDbxDCgEBcaxoNdd3pzYi7MOO3uVjfT7Wm94zCt4e+DoaCCQDr4HXwGvgNfAaeA28mwy8rznsmu7BqOJ/qOgpIvq8dRtNnUHwdtEbCVoTjtlb9hiCkJOONDmGQ8XrNu/1iQbewZU3qLkVnYCB18Br4DXwGngNvAbezQ3epFBStxA+XUTf4L0+HeuEzVkB7zJ605FeWp/vz4O322AoAMVWAH/pvZ4oovsaeHuvWxgyKG2MDLwGXgOvgdfAa+A18Bp4ezpCEHJ/1xeIx5tE9LGbEbxZifBR0smtddEeBd7+vAOwt4i+SbwerYotmxm8+VSr8TJADLwGXgOvgdfAa+A18Bp4e8CrgEKTLyKAFFtUcZQXPVG8PnzTgBfLI73tpl/TmbSlwJt2sLlG5vfE6zYv+oI1Gq2fSfBOMxl4DbwGXgOvgdfAa+DdeODtXqH077uo6gle8BoV3XMjgzeP3rWc3rBK8Pa+T/Fs73WbeH2KgdfAa+A18Bp4DbwGXgOvgbcYeHuuGBF+RwTH+1hepoqdNxp41wO9kwRvt+FJfreTKF4qyfzf3zHwGngNvAZeA6+B18Br4DXwFgNvtyCnKDtARN8sokeowm0E8GbnGaXTG6aN3mmBt1vKl9/7YFU90XscrapbDbwGXgOvgdfAa+A18Bp4DbzFwJvYarkTPTANqXXIqIsx6+Bdy5HeNQRv8n/qfvbvqugZIvqcEnlg4DXwGngNvAZeA6+B18C7ecHb8/cMY4JnisjpInjCvIE3O28fKdotvxHB25NvKjjEezlVBE808Bp4DbwGXgOvgdfAa+A18BYFb64SEFBX4IXe6+t8rI+uN/hLYY2fNdPgXYOR3pkBb+9nbRHBy9L5vw8x8Bp4DbwGXgOvgdfAa+A18BYD73KB1qTDCmuEWQdvdvw77vWIOpPfkW0WwZv9TtLyQoQHi+Bk8frfAM7Y6MjN48zAa+A18Bp4DbwGXgPvbIL3/w8A8FGo+UpgwvEAAAAASUVORK5CYII=;fillColor=#A8DADC;strokeColor=#457B9D;fontColor=#1D3557;imageBorder=none;sketch=0;imageBackground=none;labelBackgroundColor=none;" parent="f5-iDyckK68P6CHZA5I4-19" vertex="1">
          <mxGeometry x="60" y="20" width="200" height="60" as="geometry" />
        </mxCell>
        <mxCell id="f5-iDyckK68P6CHZA5I4-74" value="" style="shape=image;verticalLabelPosition=bottom;verticalAlign=top;imageAspect=0;image=data:image/png,iVBORw0KGgoAAAANSUhEUgAAAlgAAAE7CAMAAAA2MA+HAAADAFBMVEVHcExtsz9tsz9tsz9tsz9tsz9tsz9tsz9ssT9tsz9tsz5tsz9tsz9tsz9tsz9tsz9tsz9tsz9ssz5tsz9tsz9tsz9tsz9ssz5ssD1tsz9tsz9tsz9tsz9rsj1tsz9tsz9tsz9tsz9qsjxtsz9tsz9ssj5tsz9ssz5tsz9tsz9ssz5tsz5tsz5tsz9tsz5tsz9ssj5qsjxtsz9tsz9rsj1ssj5rsTxpsDltsz9tsz9tsz9rsj1tsz9tsz9tsz9tsz5ssj5tsz9tsz9ssz1tsz9tsz9rsT1rsj1tsz9rsj1ssz5psTptsz9tsz9ssj5tsz9tsz9tsz9ssj5tsz9tsz5qsDptsz5ssz1tsz9ssj1tsz9ssz5tsz9tsz9ssz5tsz9tsz9tsz9tsz9tsz9ssj1tsz9tsz9nsDhtsz9psTptsz5tsz9tsz9ssj5tsz9tsz9tsz9tsz9tsz5tsz5tsz9tsz9ssj1tsz9qsDttsz9ssz5tsz5ssj5tsz9qsjxtsz5rsD1tsz9tsz9tsz9tsz9tsz9tsz9psDptsz9rsT1tsz9tsz9psTptsz9rsDxtsz9ssz5ssj5rsT1tsj9tsz9tsz9tsz9tsz9tsz9tsz5tsz9tsz5tsz9tsz9osTttsz5ssj5tsz9ssz5tsz9ssj5ssT1rsj1ssT5tsz5ssj5msDhtsz9qsTttsz9osDhtsz9tsz9tsz9tsz9ssj5tsz9tsz9tsz9ssj5rsj1tsz9tsz5ssj5ssz5tsz9rsj1ssz5tsz9ssj1tsz9ssj5osDlrsDxpsTplsDZqsTxirzJosTptsz9rsT1ssT1ssj5rsDxrsT1psDprsT1ssj5psTpkrzRtsz9psTxrsj1osTpssT5ssD1qsjtrsj5rsj1psTxrsj1qsDxtsz9ssj5tsj5rsT1osTpssz9ssD5lsDZrsT1rsj5nsThqsDtnsDhssj5msDZrsj1msDZnsTlosTpssj5ssT9us0BuskBkrzNssT1ssz5ssj5tsz9ts0Bus0AbYLRfAAAA/XRSTlMAEAlH0PDgwK+AIfJgQJSgKucgMH5Q+QNspGvtigL9ZPzuB/awEZAL/voOOcxwBgErDPH4IhMUAfvl6SPi6NuDXPPYHvXWmCXeBBgWqy4FCvfjGzOMCc8PVii5CLVZOmjv1G16JsfsKeZen11mNWFa38LOUco3pVMKt048P0Q+Qnmo68W+poU3w5uXSVyBWo6amZXTvcS7iK52kTKc1aBNY8gtnhqhs8EXQTt8ekhC2aN5dTFys7IcRtdMquRstelL1bi6QHRuVsYGgZioo9xWhWR9yUMD0rrSfrBqq9S/vZ1yb4/hZhDie1BokoRISvJYslyOidnF/fQwf/P0gnA/jQAAJvtJREFUeNrtnXlAVlXexy/IwzNsoiCQCggKCMgqhgiIC5gr7iYqKrllijomirmLZS5ZueGSpmWWZqZmpo626Uw5Y9nu29tU0zTNVNPsM828M+/7wAvI8tyz3Ps7956HZ+n3/ZPnnnPPPefDWX7n9ztHUVAoFAqFQqFQKBQKhUKhUCgUCoVCoVAoFAqFQqFQKBQKhUKhUCgUCoVCoVAoFAqFQqFQKBQKhUKhUCgUCoVCoVAoFAqFcrZGrWxbfWpX2xUTsSpQEjUuznZL9wdhZaCkaUmurUlF87E6UJK01mJrUU4lVghKiuJTbPYqOI9VgpKhRTa1XsAqQUlQxF4CLB+sE5QEZfYhwLIMw0pBSZhiEVzZBjyJlYIyL68sEqx2WCko85qSQoBV5YWVgjKv9OsEWFewTlAy1CZGDVYYVglKhkZ1VHdY3lglKCkadtCOqyEZWCEoSZpV2szVhsewOlDyRsPpFQ1Y3ZmajZWBkqn44sr+JeNux4pAoVAoFAqFQqFQKBQKhUKhUCgUCmVU8ZPe27bskx/J1yfLth2eFO+IIqd5JzdoSlo64OlRycmZI3k/Du1+bOnxhTM6vbYyI7Mr9P1d63JkP5xW97JkhmdMWianDFHeyZlpvPdEdO1e/5mZXUcaq6co7+xp82d0qteK4om8TIYe67Fm8CjJTTT07BvPdIu2OUrR3T5/4+xQmQUeVbzVb97sgqzweg3asH78wqDBWi5O6VuvD8kK72mdUcj40X/1xslzk6IT64uaGFN077zpSwHbxI/1S+kWXpTSgfJUGHwocnd+eHhWwZatauDbndjQM3zO/TMpn5nsRXsLwssqNi5l/L8vnbqxNGVM/Wf2TNl1vfx4iGBNZfdIHVGQ1Ny2MRbrtuOMCKH4hbvqaiAnP1JmkMdHD32aZHO0wj99OEpWgadtq+5MvcB38vipT3ESjD3d9NTAqeS/c9iRAiqvmIr9q3R6yw4Bjc+WnVDhc3Keb0s+6+2b8MX2Tf7uZ9R5ra1o/GH0dmKDenXkbrJlCtaXCzhHTNtTkUi3hc/+lcRz4zY1/Tb3RWlcVV6rtbWGaq9J8cf1XrK7jPOGmPz7+h9jJBk22+7YhIWqzOZXZLHz6rm4f6ZGD3jE7tHxLZSu3lCkymVTCwQH7FPYs/haQMsPk+3mDN6LKgYwizZkGwytKSuqeTVlmbxGxd8Yu986yMHKf1mirbWUuMzfbHGjwjZpv6P9ltXkRGHKelXg1Va7HmGDVlYHF3XnFeMF1YMzG/86aT2VR9umSVgn1Z/3tZD1ZF/7H15qnrSt3c0vWd8XkvWr6sJirY/LOTCrZbj0sf8l6zUZXP3lhq01deNNc8XN6wh4SXWgetBdou6UdjeBFz8+XC+nHuxiTFIHNg/o1fDXwB/TORQ1TsEK1b917tXcL11S/+81dqjJ40drluz+cTo11et0ls7HDWk+TGmf+oddyaaxiugXbmtdhfczM9OqvAzrGS+W2w1jI8lzEy40zr436OfUswNznTSTeCyyftYVyVz9NM6nZhB/bh5violJVEVE/V9nzdYrWaz2GVvzxwDWVFtufVwUMclMNH0wXNfNttbXo2mGy7sPvsZY3PIfHW8hfttya5bdB5RR9WDGzP0l4qE7pyjJI9jpSxtWw0OvEH8e1JQXSVxO/bp1bYF+wWLO8CvKaz+slkobVjvTsiQfhbP8UZszdMdyo1zFCLyl7+rmcYuqzvq/lscCMypYTRVkuA/5TLYSzEnu09ArjNpJ/Lmsaf7dluxtS+q4qgKVbB/XxHAftJYq6idaU8mu9lGTYEXanKN3jRV3uthbfty0wLpAoVKfGXzJEkBNZv3nkgHz7cp5qe9qWAB4kygGZHDAsk1XVpbBCpZTwq6oWTfhtZRSZxcrIf9hHzDH1d9szpKhGfzqIsG39GtM2Ib8IV9RVnQTyKhsKwlWe+KJMV24U5oNU9hgteOBtajwIrRgY5jhiZMOitSSNZ4Gq6Mprs5XOQ2s/LHixR3rI/qWgxEcsHyVHmLfHrtVDyz+XHt7uhhYOalx8IKxToDIvilWTXHKErlgbbc5T1taY9weU8gBa+Axwbq35RZrg8UfVxP7K2JgJQ0UKVg5vdlVLVpPJ7YmyQTr+QFOBCvguGhxZwUIv2TOOA5Yc0cI53VzmCZYGrPjeEGwBHtl0gafLv4PWDaiSCJYE562OVN/nSBY3kcYc9fLIx6p27Pf2HF2UQ7rHZfHcsAyonnGwCpqozgUrMQZRD2VGDFMJkoEq3+0U8GKeVjQqYeyjHY+MK3JIBbhtXJmdT71jicUIFi5FXH7N85/MfKB3UP4D803AlZZF8WxYNluqh2SxvItyAW7xndauHDh4Q4PpOjNME2AlXzQ5lztzBQq7yJyGrB7GvFERvmIcHLdDgEr8aWXFzTvz+VN3ZLLea7PMXGw1jfv9BoE6+ClyH379s28Xsq3ox9S1cI83vLj+tQWhyHvpalWR4H1ixong1Xz30LlJU25GxiegyOLN9o3+GRvAFijOy4lXPX8Z+SzH70uBFbRoOAXQyMUM2DlR/YY1ujE5l249dIAAAQn2QNhQCS5fZB5crFDwLq7vc3Zuny3SAdLVEPPUM5WxovN670rzSYNDbAWr2TZYR5l7hxZVoLBit7Uj/CXEwdrrt9wwmWKbYbItfPA6LqLvXGzgFVXncbIB6v3HTbn647eAmtCohcZwX1y2PQGt5qDM1u6NC5Y0ds4bjElc1mPP5AGBGvvIWo7VBis3WfpYn3JMhHH2NnYVrD2vMK3cZyRM6qlgxXU0wXA6rkGXuAFRJUGavVu7VYsGWy/CueB1ZnvHzAuhTVstgOB5bOVscsuClYwM0igkrVfsLHl9yss8Lpwv7J7gmSwel+1uYIEDg7eSiSdKvK5HLDmrNby+2KR1RYAVnRb5qpEEKyXprCLdZjRJU1u9hlcwFjpd9Pyrol4RC5Y99S4BFg1D4FL/BP5YOVs1UzUjjEa5t6uC1bRdI4/tRBYO3n3oUScph9OmchyfiaXxhzP/WCZYA3/zEXA+ni4UbC2mAaLsiySeo2xwOqiB1YfnoucEFgxfObz6Bl3ftNO9FMMJ679Ol+ZuUEiWM/ZXEXrjIJVNsssWOt13Q0ZeyMjdMCK5U4bhcAK1ijVHnqu2hRPtIRezKYc0/vK4lxpYE0a4zJgfT3LIFi2ijxzYFUV6hv7d1KpfPM0wcrhrylEwBodqlEqf2plGN1oIk1nIPoT/drpIA2szTbX0XXoqpCyDlb0MAXWDEC6+XSyEk2wxitSwIrTDO2N42023e7D7WE1B8NTksBaE+5CYI1+1pgdq75l/I4ZB6tgIiQi4F7e0p4N1mxvKWAlas+3aVfVlxsHNaphk6Ypxv5/jIDV9Vc1LgRWzX/9HFRqb5Ytb5DfeaNgpYISBlLpqr35YOUsVaSAlRuqWailFD+dbv0wlVdaHWWfkgLWPUk2V1I40OQwnpl6wOnVw4yANQY2twuh4gRzn+KDpblSFQDrXu1DSfwLOGBRGUW/DKvbfjLAyk6xuZZSYNHia3nhm/eOP5ksDNYI2AEl6bSvwGNcsHLbSQJrr3ahJlo5YN1P/r0v8HyP40USwPrG5mqCmRwi+IH1RQO3r+0uBFZiObC2DlMux5VcsLQbQwCs32iXKWovByzKolsRAfvKiRXmwcrLldPN7PDz+84qB6y+vYwZHFQaMn6JPxysMujdWwuo2MOZPLASe8gCS2cASz/NBmtsgMAiVa1g82A9LmPm/vGhBov579pI2XKseRzWZZXq5HPqwIpRQLAuA/+VlSlUYMN2Hlh3RcgC67BOofawwRpXxLGN6Otl02BJCaCY13ybcdT7o2V4OfwUVPYndY9tyLrYLy8KAtZ94AqjFqPneGDpnP0jAFYX0R2BW2BVkvvTiUuhX3nSbJTO8lckcHDUPgzifRme88DAikpAwGr4A8cBYP0GXGPU7L2UA1biNGeDRcXJx4CdvzMCTIIlI4DiM1Vx034lASxoYMX8LEBm4evX6oK1DVxjfpTtjAPWkPPOBquEbNzOYLC85pgDS0oABbEddjxHQp7QwIr5oCD7ouA8HbAWgqvsRWp6xgFLz4DheLBmCNrD7NXXHFgyAii+J0/53CRj/g4NrAi6E5Rf/mFtsJaAq+wFKmsOWJGKs8GizJwpcLByTYElJYDibdJR/X0ZK0NwYMVT12EZbslsZbCmOx2sbZQZq5XAkhJAUfsHMttfSjFmwQMr1lpBg++m8xpgzQBXWiqZtA8brJxKp4O1iJxjHZwC/cqoKjNgHQ+QAdb7ZLa3SQGr5yr4h5SUQvwzKnrJmLxT3cBONlhVS50OVonxVWGhxQRYkgIoOjgGLJHACiWtx37AKURxo7hgwQ+sCwaaG+b0cDpYlLkhB+z4Pc7MoSCCARS1psDqVmYTPDpeILCiXsMXlubrZbmHC1Y1+D1UAGicy4J1gezH4UfUTjVxPpZgAIVl868XHf5HiiGwki7dtnXNw38vEAMLHljRtO1Z/qj2K2JW8sBqD70xpjv1hgSXBSuDssWkQqtyo4ktHbEAirdv7dIe6zJHHKyPL9zaNQsRPKhpnSKswiC/gxpG0108sHqOA77gsc7ATWgXAGsUtWE+D1qPLxkHSyiA4n9va0n3vShYm1oMXe/MFRkPv56lGNDQ4jOLeZuIWSd5/ljQ62IOUykPuSxYCrVhfhO4LAwpMA7WAYEWzr9gl7BHXzGw5k6y++3fH4iMv9sVgyqefh/bBPFoFAesONj9bFG0o98k1wWLum4lADjJoqZYcLBEAig2qZ2V/l4rBNbP1DM7kV1vaGAFq9lCI/sycjw4lgPWnMdgQy11DlufYa4L1kzqM/vB/n3ogzOhYIkEUNxPBNw9OEcELAvhgu4tcEUBNLCCs5G6kUYraQEHLOAFV4vori7NdcGiP/NO0PWjGUmGwRIIoHjrdySUKSJg/ZO0oC//Ak5W+EOKGT22i7NjzgDLF1Ll6bt5fYBLghVCrbRge1eM/30gWAIBFG/RrlGLRcD6gko+RYCslGxTZHmdY6/hWAGrEOP7EipV4hIXBmsUfc9JBSBoZOkAw2DBAyiuMtYRQmAtY9jJBUbDdYo5snYyF9wssHrqz7Im0v+PA8e6MFjKGfoz9U1ZU1jX7sDAggdQzGbcNyw2FH7PuPV7+SUwWMDACq7IoN4jXLBsk3V30k7QbpHrFVcGayl97VSubgTYy+GGwQIHUBSwLElik/ck1mmXXovB8/fHzYE1mDipMJgPlu6SaTWjxhe5NFjpDN+4Uh3fmbXMO4VAYIEDKCzPs5ILmhuOMtv7MpQsbmDFuPIZMwJ1o7Z6EQ2+RQMsHReqdowj34d4uzRYtL9rndpqRg89yd4Vg4AFDqCofY+V/GRnMQNpAHMh8lPwmafswIqQIw3D+ZgjT2l/rD9hcjijBVaR1rGAxQO1trVdFKxsljHvEY2sznIuTICA9TA0gIIZuhKUK7qlE/tHVj4vQodjZmBFr+ZW8e2iec7FNCJyuVwLLFviC9xbhB87yOrS81wcLPYJF/u5RxC8xruIAwBW8l3AFr32O0bqwFjxTejo51id71vQLosRWBFvP3coPaTxtVuIzFZqgmWznQ7hWEaZx3G3+LW7KlizmH5qVvbxNWkvcCdJALCgARRljP2U5X+oMeSPxTpKuvAGdP5OB1ZMVW8t39eGN20oJkbcORk6YNVd5M7YNTwfzOzl+2a4PFjpG5lf2X4m3c9HBe3mV4s+WOAACoYFacKyWkP+WDbbK4xzFAKhXdblSWRS8hSMxMmVTOetEPJwi+pMPbDqbIglaqtsRHEHjnuq3XnqrgqWcv4UZ8Ffrl7xZ68+pzVF0gULHEDxAd0JTGCOXjAP0jsZZH0K9aHZQW4LMWYCFZFtqHV05U7OZFvn9q+KyJKm/VHvcV/utXAes79my2XBYh3P1/j/Oi917a1/x5EZ8x95QrtKdMEKAgZQjKaih5VMtlkT6PPuM5i2OUBvy6UCK5imlqJBBxYVTkxrNMh2zQ6spjZEB0wDgVXnHZ7vs/fAvCOnNwycw30muo3iDmCl7+V/ZsCQm/fWaVBf3SZYr9dhTQa25WZqebScM9uGBlNco5ci+6CD4RX9Hqtp2lMd7HfixIkORxazYqQ3RAHBgkgVkeq6YCmFBRI+Vu8YfWgAxatUvOhHb9vMgVX7NGWQGn4n8LPIwIr1Bqunaf1IgZUjfujOZC83AUtZWyT8cVWkn+QL2iWABlDU/p1KynWRh4d/fUettwKB7oZkYMUhY1xZR/LAKugkmtdAtZeaK4PFOFZZR8FtyYML92mXABpAMfd2ymEkyTxYiVQFdf0AOn9Xr1G7xxnhKrY5hpQCa4iSIJZXe2IL1KXBUjaKfVyFFzUkaF9VNAsaQPEc5Q/xlc08WLY/U54pb0LBIgIrCncZAGumwgXLV8kMFsmqL3ldJgVW52kuBFbaIyIf9+M8hXISuKBZAOgNFO3JGVbyX2tkgGVbTBpKfw6eWBKBFd5nLKJcrY/QAktJOwLP6vIqvT1JW9UCUbAGPMkDq1wULOrQ0vSZMeCPK+ihTCJjf7XD49ZkwXKupexGgRodi1CIPWV1/S30c6nAiqWlYlyNsNsZYoGljAKTVUF7Ex0jTWYFY/XAukluPA7jbEMl6h0dOh5AYv850I+r6ziXkLbSAq2LisABFD3JNiyca5ME1qukEd0f6j9DB1ak9R8owNUD9tYOJliKtx8sqyOMKwqmkJj76N0lNpI8zfRU0y/kSUnRxTpZkSfgJL3GeGgBbAkeN4zVBWreaAEOoLhKdlg7bLLAojyVI7ZAyWAEViSnQtGyzFTZ5dhg1e1BAjDPZ5/+d4J4TP+YETI4q9mZ5CzRXxToHWtF7ogOYl7O4bW/m+7HFc2sny9MpPwUtEKo4QEUvyVS9rDIA8tG3t+3FWxkYQVWxL+4G2RnIOZEPLCUWR11ckoK5gwK/n3ULaR/cPwstQNSt+ZpTCbR++lHaZ9jblxR2qp3EL/1VqT4auoHLWsDOIAilrgH66OjNRLBeoXYg5xwJ3g0W8f6rPhDHfWmjhcXkjd7ccFSoipvauQUU7qWW78vaNcKQ+pQhz0tferKMtWKR/9esgzV0mEg9xK05EVaX9envPFN1Oy1SOOwMngABdntPajt7CkI1v+RC9fv4Gt8TmBF4cvVvtxEnTdNp0+S4YNVN3Wb/gSnE83vGBSl0br77adhoEMS7Jd/R+ytxwvtTsuv8AfkVGmHYpVWHP3IylL2Dm10xZdNS/YV1PEEpzQGY3AARe23REod06HowWtvE43zIPhEcI3AirxFkdWMndT252YyzUlaYNWtzS8k0DdIzu04fbDObPxMkxNk7BnYYZ8RZ5r+Z4s2qkk81NyzjPAHZRXU7PpYrXeU4IJ9l8iqik5pW9lc5OH0nEnj5mD4DRRVRP1lW+SCZSGMZCNvgLsszRsrMvN6vBw5Ynef2FvaWb1lxqpenI5DG6x668Fj04MrYgd0q1dR7M24bcd7peu37qw9N+vefOcJ+Ck5Gf0G1aVImXmW/GFY+ZW+sbEFp9sMBebkVRLXOTY2t2MJ4DjIoXmrvtxu9b1VUTdf2l9SnK1lvLDZVnOzmgA/i2MEsaN3W61csIhTQnTWnGoBbqyIirglTQ50wbrVoYwNLa5TRkQ6GJT0ujcrQuKniIoQeHFDeSMimEN1/LSf/GRlPK+myHccpkcQXz6s8+E3UJCH1X4uG6ydREV+Cz8zC3pjhZ5gYHmG0lN3123152x6GXS5qrKQsRTaw306GT7cjCauOc941SYZrOgHiTeUwbusgkwES0y3N5siBnbRX14OPcEwdlbxbw7+B7xTGEKEqbxRKxssMqws+X44WPSp8giW9saR/UEMd5W307G0jmBVOt/J7+5X4U23QT1MD9WN0hIH6wPCsn+HwCl/r96NYIloIWExmTeVf62xfz/m1l0Rdy0SdVSg5QgvgvMD5YM1l4DjZwJbfjXzohAsuEZSBtGYMadLChlj4vBVRzghCPxrWT/sJtByxDE3C2Lkg5VD7PqtyBIoX9FxBAuuScyjWLMqtn85dU3GsO6Z9eqet2DF9CPcMIIC7hFlUc8ItFs0sTF+2CYfLHKi1GOOQAFtz/RGsMBayvf9Dsi/OfuJes0u0IqWGr2Cm/k9Is0WniG64WLgypO31MNZ9vdCjlX9ESywxiXZTGojN2/6qntNa4PajSjqPkeANVvtUj8yRehTP0hGsKCKLzLJ1Qj+lR0Px4hk9LF6C2Hk644A6zLherJY6Ftj3kGwwCo1x5WVf+RvxNtCOT2hNot3LXIEWBZivA0W+9qjUQgWVKtMjYVWDf/qEF+hrD5RN9rYLEeAZSNiXHaIfe6QELPVfZLyiPFYy/sME1d0r9c61e5DsdvcdqhTPxjjgmDVPm+2tikXyRSPBUtZeNkgVjHbNJ1/fiaWG2Ef7eEYsO5Rp/i14Cf/2mxlDyP35Pd6LljK2G0XjXB1cIV2tg+YAstBPdYv1Sl+K/jNy8zWdSZZ1dsUT9bYTotFsSrrN0wn02ccDRZ1J/QvHQ7WM2ZrOn2POsPEs4pnK3n1A50FKjh2v/7x+jsdDdbm3uKDLwHW7wXB+th0RQ9WRwBsj1A8XiGp5/rAqjdlD+TWhixHz7E2kAeIAK6dIHy+3hUEa7T5au5if5zKxaeUH4RCuwTr3pt9sW0l7P4iQdPrZnXqYn0zSDgRN/1UrP5biJNY7hAEq0jGMrwlCOCJScoPRenDx3Uacaov0ysha87F9TNC46FZCYL1T/Wg0B1wgNUl9QsBB5uQ16DscAJYyqr7bqE1cNtE5Qemp06W9zuwt9p6amCDTj0xufRI5JeHxG5KzjIFVte5+kn+pbrA4gLgkNMq4hPOtf5QWL9dNW16v377SvyVH6i6Zvbyb1Cv29MM7GUITt6r1JvQQ2dDOpC/2NljvwIkeP28uoyzBcHaqaCcLkFzQxYxxm4HpXq3cRlxrNOfIY9fWa4ebz8WBOsqNqvzJWggzTlryCj+1W8Ce0x75z8w/5daYt+o148FwZqHzep8CW7pJBKRex/CB9HO0NjFGmJLJkj0cL5fY7M6X4Kb0ORtkIPn2qQr4EP1OxYKpje/CY2SYHAVc5uxfaJOPqFUPlgDiXncuzVi6c27zaDMS9DRz7aTsOr8Rz5Yf1W/YehbgumPRmGzuoDEXJOp035fy5IOFnFx6/mBYskluCajJEgsmMKWSBwU+buPayVzVUbsRT37L7H0EoIpUDJ0j1i7EbYA5R81ksH6EfGCNwTT98cmdQ1FidlIidgs5cloyWD9iSjfXwWdsXpjk7qKxWG0kO2dOGVIeVouV/cS4A7rKZS823FsUJfpsjYLNR159PKf5IJFHuj3jljyO3BJ6DoC3wN9a3JMjDXJn8vk6gaxAQ3xC7RTn0nYnC6kXwhNwJ8kUv8tXCJYpIv84D4iqakb7UMC/fz8AtFi6iQl3yXSevuJ1F2vybM43CBtBb9PFDLfqo+K9GqKoQ5GtJyj/iJLuxvDidSrkmRxVTOfyHp5tZBtVL1FHtqye20Jdf9G8gqr633DvNyqzMtfEWi+f71HJt8hiavap8nDaZ8VGmbVx3F72R/zb3H3Pqup97UkuBVaz4vcpv0rcrwqHCQHrFjSlKEI7WQSFwiob4ELdm+u7HpfX7fqfR8Xmb9TtqLKGClgpZL59hLJl7zyhPDb8HJnrkLsfdLcalyHX9JUp6ep5OOlbOZQNqgdIssC4pKmUOLnQHcGS33hm9Wdiv6NQBMmUteITbCa5yqFOg4g41WR9OvUicl7Rf3ceSAkviXIjcqeLXAgY+016gSbwTfkT7DEtgTIizDJi3atbgwW+S1uNWG8R8BoEH4Plfzfuea4+p83qSxXBgikp67ujfMgsKzu/C3gy8br9Rl9is0f/2yGqyKaq95XRGbu1GXjVg8Ci7wf0eJWpV8j4gz6Lp3+jxapXCnviSxURz+reDBY1Oe6V/E3m2rIOj+HrySOg8rgyyJLwu0KguWymjVGxOGP4QH87++NcTXmW0ZpTovk8PUsBMuF9ZzIpOYfjAzGnjPCVcoC1lpCKIt1CoLlwhr+mcC0ZsBrjBymvNtNmKsvhrMsNyJHF9Z8PBzBcm2Tg8h8+QbzhJ8/HRTDqiqQ5fM5UeiEmZqHFATLpdV7skhzfs68KHf4+AD4rDv8SB4rj4+OCsF5RUGwXFxBIjZJ2xH2EfIffgrs+Gqvfmt+slfn1bAKwXL5LkvsvM/n2Ll89MfPATdpRG/4lnM3eBcxz8EdvREsl5dYYIXtNk42Uc9eGqM5INZWPf2noZzEKwYIleEyO4BCC6ygIL8GBQYZcKZpSlyX2qj3oGgWHgCWYGBFUiduRhlvfNqZx1bO1V88yK/1MUJcUQEUOmCFJqg2SHyDw+CV4xUYrPbyslj9BJ2jDGXhCWCJBVbYwvlkKR/d/bcvbpD7RIlJvm/9/mwmP9XaKrFl5c5MEbACGf49lgRYzxPI9g3yTYB3XAayqHd1pxI0dHep7uXI/7BgzPxtmrmlFb6zbnv1htcvDhp08fXZi4++vyQjTTPBilfFXk8EUGiDFcpzG9N3JPfy09gKhUUBGckiJE7r433D3AgsocCK+tFwHSD4OD67TpDD58tFj0VSB1Bog5XAz8ai00SpOjvswfqTNSNZ6B6T6U6eWc8PEGzb77pLe/cfRINfiQAKLbBCfDRzStAoVoi+g6wemYayCNF3GHGnPutx0ZOJrkqKrco+KvhiKoBCAyxf4//8YSCHIM1Oy1gWgEuL3elW4TxhZ9DX28h47zTRmwKoAAotsADNyptxA9P78MkymAWERneawX8j3CYD3u1q2jb7+87Cr2V5NRgHizMawu8655JlNAtICk8NrGjSMw+a7Cb3GnG4yZYKFnPCEiiQnkOW4Sw8DSyhwIrmqef7JkJCf37b1wY4CH9IkQsWIxA/TCiDOOb8ynAWnjYUigVWtPyzvWP01LMPrxlxEKQDKMyCRYMRIujIz4heNJGFh03e67TG2JlX910wMtUKPWrsHFOW371JsKiBRTiXUPMFCfVUc0O9DhjzXrd9skL0TSu3Bxh813bFIFjWBD8/K7vNrKDZUUMG7Ds9fIATLFgWulYKtzs4YNIYg62ddf98gV7r5ytKYw2+iBVAAQHLN7BxLhhm1e2yvFgtb23qJEISLPpNbTKLUK3+zuKOB8o9ZzMs3/8sWA55xYTQN3YmGn/NOsUIWPaToFQ9Y5YfozFTdczpxKTHdBb1p10yN6HD3PMwOaHACmr/8JVvgobqmUN/9rSZ61KYARS6YBG7Jqxhyn5tS/c25BFCwXpdloQsPMNtpsXkYO7KCcu9pw8P5gyKdS4P333Q2VT27AAKXbDIFkvVfCQQMDeP055lScjC08DqfdVmVuFfXdrzlzXFecOzG3ympmRnh2RMe+f9S59JOGf5imIArATAU3FaLU5bE7wsmuRIyMLTwFKOB9gkqNb2f19XPHH17bffPnrug9k3ymxyxA6g0AHLlzbhhtBdbUuDg4xGgVr4SsjC88ASDKxoXd3R2wBYrLV5HL+3CIQt7n012JGQheeBJRpY0Zq6fLciDpYFtt+Syp1VW4A7gSGKxCw8ECzBwIpWFC+AQhsstvOChfuYD8yvxkvDGi4hC08EK/mgi4K1M9MIWGw/gDiu8R26fWLlz88lZOGJYIndWNF64gZQaIPFfs6Pt9YP0jRxaeXQjKaELDwTLNHAilYSN4BCEyxOKHQQr9XCoI4EYVwzlIQsPBMs8cCK1hA/gEITLI7ncSiv1fyAZPLRlJGFh4IlHljRCjP3xxVDYPEOegeDxY3jgYMlnoWngpWX63JgaQRQyAHLi0OFn3mw/BCsJn3jcmCtU4yBlQpt0yDOchFORZAiLQuPBctIYIVDpRVAoQlWkGCbWs1TYUWw+LonyaW4Cn9IURw8FCrYY7WGjAVWOGzmrhlA4djJO5wKL3lZeC5YRgMrHCPtAAojYIXgqtBZ2uxCYF1XDIMVJ2hCQjuWo2U4sEK+dAIoNMHyYT+Xymt8tLw7XM+5DFjrFONgcVqDuwmNe4UOl6nACpkzd70ACm2w2J4FFu5cDL0bHG9ycBGwHlLMgBUMGoRafDzRH8vhkhBYIUNXFFNgWbwgI2GL8yZ6kDpeQT1dwathjTmwWAYH2rfBAunM7OWrMfGWkIVng+USgRX6ARQ6YDFO7PDRGDBdOErHy2PIcoHACkAAhR5Y1MFo2lHIrhtXGOQxYDk/sAISQKEHFkkWgyv7iVgYoM+jX+OjvTYQzsLDwXJ6YAUkgEIXLJuvXZN4sc41C9ac+7jK2Q3BngOWswMrQAEU+mDVtUkjWl6BzNOpgrQnP8RRMYyj43315k/CWTC+pbFfDQpzt3tPGJrwtFPBAgVQQMCqvxYpwS+B87NVZ7lmEz0fS0YWjG/xTfCLa0TS6u5oPV/kRK4CfqpIA0tLQXqbw01kgk/0k5CFzlmkFncn6wvnzd9rNiutApZV336qo1DFAVn4aSfwdXOwCqucBlb+2NYBi2pTL1+xDBg2WAlZ6B3oHejmZP3NaWC9qbQKWCzTvMVUjycnixCdNHHuPoGPdBJX7yqtApYVto/Hl+ybKTRXAHoFdyctf9Q5eznLDZQ1Qfg1vmax4N6lYzoLPw8HS+nqDDflR9OMFJVsCx+913AXV4EWk1yZzyLEw4dCRYno19qhFeH9jF2kQk54gwINcgWdJGneV2g2Cz+Pnrw36C83WpWrG28aLaiF9IbR7DZ8tLDw0jcZWFK1S2M2C60O18cz9nb8lyW2GlaJy/wNlzOBWvCF8lsnQa//05k+x+nfEWEuCy8fzzWQNqvyWm2rYFV7zcwVRCr70a1/ai/OiGIFeAukanBhhXkbmMqC2+X5egxXivLRQ586PvA+/NOHo0yV0m5e0zzQhQQbxkIJZDetbwL8RhtTWTB3zS1+nuP0V6+hZ994ppvj/B2iu33+xtmhZgvZ5BejqnyvwDj7uZY1VeCiI6/AYF9iy89PsL8wlUUYkdY3OEzxPMVPem/bsk9+JF+fLNt2eFK8lDLW33DkF0b9T4cE+TUozIjDXFBjYr/AIKOXb5nIIiQosDFtUJCCQqFQKBQKhUKhUCgUCoVCoVAoFAqFQqFQKBQKhUKhUCgUCoVCoVAoFAqFQqFQKBQKhUKhUCgUCoVCoVAoFAqFQqFQKBQKhUKhUCgUCoVCoVAoFAqFQqFQKBQKhUKhUCgUCoVCoVAoFAqFQqFQKBQKhUKhUCgUCoVCoVCO0v8DvS0oXe2lGdEAAAAASUVORK5CYII=;fillColor=#A8DADC;strokeColor=#457B9D;fontColor=#1D3557;" parent="f5-iDyckK68P6CHZA5I4-19" vertex="1">
          <mxGeometry x="101.5" y="100" width="115" height="70" as="geometry" />
        </mxCell>
        <mxCell id="f5-iDyckK68P6CHZA5I4-77" value="" style="shape=image;verticalLabelPosition=bottom;verticalAlign=top;imageAspect=0;image=data:image/png,iVBORw0KGgoAAAANSUhEUgAAAT4AAACfCAMAAABX0UX9AAABPlBMVEX///8AAADRpBv/3Hb8/Pz/4Hj/3nf/4nnu7u6tra3d3d2+vr5qampYWFgwMDDTpRn19fXR0dE/Pz/p6enW1taEhIRvb2/Hx8fry21ERET/5XuWlpaMjIyioqJ9fX3U1NQgICC0tLSnp6drXTJOTk7WuWMpKSkXFxdlZWWMekIoIxTNoyk4ODhKPxvCwsIREREAABDAplmUgEWefBVvWA8AABQzLBhXTCmBcDxhVC3FqluxmVOxixfavGTAlxk2KwixkTNtZ1d0a1HJtXtCOyZpX0AOFByAdVLQt2+RglWzn2GlkVdSTDvixnU9OS0iJi0DESGrmmqGeE8TEQodGg53ZjdHRDWHbiVTRR17ZyyVhE9SQAifhDOTezkqIQWDZxFzWg9CNAksKh5pWCiujjaiiT/DnzJhWTyshxdPPwyo2JQRAAAQbElEQVR4nO1deV/aWBf2AIEQDAkEwhLAsBhQIottQcVap+M40zo674y1nU61ndbWtt//C7x3ycrq/LTQkjx/VBou4ebJ2e/JZWXFhw8fPnz48OHDhw8fPnz48OHDh/fAircdeeuBXkIJirfihUuD9K3n8uNB0gDirZnDxGIdoDKH+fxgyEAbAOTQ9FESD2icPJ8p/UgowU8q4k9NTBsUQyPgaTs3r0n9OEjCz0eYHDUzeUwRD4DuWdx3HsNQIf8LYQdSk4ZQ9tTTn465ec7sRwAHx/mfKX36BMcao2//kv8VpkioN5GBZD4bpwSVxo6QjHd/yz+D2Jxn992jDD9FIs8pQYB1U5S4RIYgkeAkEfsWKnzhyAmUFz3d7w0V+DUSDv9OKZILq3wurrYNNkGN5/hV4+VpmBmAsujpfm8owrNIMJw9AxudPzr4TzsZ/5997HkkyHQnqLeHQehD/GHvq32+ePbzKfpfFzO2E8T47c+/qmedR4g9TN/qoqf7vYHSFwwHf/t17zQYiTBhhCCOBAfkJYMOna6v4zGIPn7R0/3eYNAXRDwhuoIUkQGiL2ghzDBBSp+fdgzBpM+N7CYc5YcPIvpqi57uwiAWleKYvLYIT236wkw+n48gGWS24YTx6VtBQRxCihPFJPGgheHMrILiPpu+vT7AbjaMXAmsj6PPU7YvVJF1GsNpPG9EIO006xpThpylpeEN2O12N6vIkUS2syMajehrLOhKFgBWIYlso1SSGzlHWAdR56gWynlN9rZhL89E1mEdq6+DN8OlIPrSi7qYuWNNA2iUWRHXQUOi5CQw7aiNcgARU3Ohi0ljzgdOZxJmstnHRBSZEygu7HLmjDJAzeEpQjWn/DmiX7EOp6ZwVQlt+c0NhzWMZDdQEHhB4r5nnsl5y8MLExVw8WfLXxyeRwz+KGv5nk1fOHgC/e31bBCPYJ56peKCVHJYzzK1ukleW0vbZWMeXmxkmbAlb8H8i4Fl+JgBDIKRMDV+jN6eWtFfGoi5cbURNhYtKoVipewKXoiD2c46+KMmkAjfY+jmw6b/yHfi7OhZlxBFqM1YObORAOgdbVUfh7GhQ8gjz5uPGKhe4H/DRI3XL7wSNcN/qKpLKqyjLBezF9zB2IWLDQM759VthL0wDag9Uq+q3D47YBOKCn9S3xEOVjF6vYuqgd7mRXV3d2tA4sDHuzB7NX0JEJJvKXxiRkapXAd+D9tBcjjY2zYdb6S/4whhgp+90aQh1bXbXGcrjRO6l6+uAI4GVoqGvIXlRvKIybDhdsOR0w7viWVezhnWTRpTVAHUv6+aAUH4A3o7VoEgctEPWmW/3YuIJXvZfzySc8SgMGMEV0IxYPzqEHEXCAiv4bMZnQTD2d6ASBxGZHBuJnTru8ZC3PKjOGNBLEMSuNcC5g5BOGzb+hrZPs/aWN80Q8Bw8B/Q5zT/BWM6fRlcujoHeBOwsAXPTN1lUBTY2zTQ68GWqcnMibtSs7yoTKEvsWrlvfuG8AnCJZyhtC1MMrfBJlS73QFCt9uHzT2SbzDINWtxT/hd3HcxyfZxiLze1Ze3hL53hD5hf3//iwr/PF5fXw+S+G4DdrN5hslnd2GblP3wW49PYJVLpbyQtHGT2hgLyGFcNwXh4CGm7wml79yuw1D3y+z1XgyY8AB6ewyxelv2CC9UXKS6Pk5KYhphICAgfX2waWqv8ABDg1+63a4R/DGRbeibooew1+3u/Qpyq9WKeUF/Q40xIYbUANh6j0j7l5B28MbUXoJLUB1rG1iBYcdVr1frqZAoircuRPzIUEYD3Eod6leBwIO3ptAJ7+A9Ud73TzA68GGr95h62Ui2D4MB9B/njUz4aOsDQC2XyyU90d8nDYdoWPQumjhEFh48eU8FTjj4eoCP/PuQ4Bj6OzT6C28j3xFhglXYyRL6tjc+g14opBEmNqAuFeLumkFLB3hrBsmBB2bEEjgwAheM13BGWzGCTH8bu+BwuAt7pNIXYX73Rq3FRNnpe0MF7DHO901LJ9gmz4k+PDVCZIaW7lGsx9C/f3nsiQQ2aTsPKQfnr78CPBjPmgnh5gOcDHW7GGw+h5wX4j0Hipa8pOJwfCgEHsLDqezh1BfgtzHdQpH1NnhjhchGKGlEuFGAXeIz9t83qaGbzN9VpzPKH3Pa8USw7EYMNPynQtIM6miJhO3cTNHhHdCG+WOyZzPLX8uIBr7qAnReOeVNeAWvptAnXACSP8eSZTByqnmor8UBSYNWAR5duthq9h99meZBMH/PwzZ/zPqxx5yuhRi04dGVm6zm8YdpyotCwR2AZ4xZIs0/r0PJE3naGCQB3LKH7B98nUIeGfKpDS9PSe2eCf4F3n2QI0oK8m5uLuF6evSHvcsHqJ9kI2Hm9LOHn3+OQee11nErr7ADO7PoQ/FzH+Dl8+BJBzzSETQGCYAr4eMjt/oKu/BpJn3IAF4dk9WQpMdyDRusBlUBB8L1Q1qewggIf8PhbPqwAh8BtM880ww5DDEJVZJrXEH7UBCaNwRN4Ss0DSZn8CdcXTSbR17lj4eXJNcQAlV40X/S2/zwAa87PjmHfnXjcv/goDmLQ1zR/+KNtY0RKKDekNro5fULGINHWv/hq083s+TwKxrqQedRBmrxHvQA6qslF3OFspKWa3TRSP18+eVmIoPCO4A3m957/D5Vx/5VCFwDaAoXot23JsgiCCulWoUa3n6kc3S9fTO2DoNC7Df7wmFH9UZ93oIYhwvE3j4SPYUmXGUHfc7+UK6skG4X/fVlc4RB4cEB9tWHXmkMMlGCPhKn/U2oWdddtp6uB96dwopspoQp3Pz88SAwlKLQOtdr0L3EXxS7DeFgE5y9jBl7d4JRLkKJKGZQu/40sgwiCLgfwUPhMweAA72joQ5JNukyfiMIlWVkCh9dHDZd5cH9t/D2zbV3+BNrOKsVLmC4TYNtGPTVJ31UKtfa0NnaaFpKLHz5+m7/AGfKDU905eLych/Jz824DZUKBn9TSlBSUUcieP3RUmIaGKK74Y3neDNwjOPl67HLEzHV6JKKpUuVCe4gtCajmPDDpwOXDgvVmRvULQXicIVjlk59bCcUpzrj50nnkKKYwNdOIygE+l5Y8UjDLta16iRuQgUHf1NabddkFFB/PrQdsSD0l3+9bQ3qZCWjN3kruZgtgFMfsOLSKnIjH20v0txa+tbmHFbdgPCxDZPHSI04hTbj+TQW6/DRpSmBwtKXr6JwRIpUl9P9ZMjEzBO2eGQELw0jKNwcQbseXy0vaQ4ixjsfBVopuS8zFWrVcCs5JVA4PDs7Q9nLcWkpCVTgggRpwqv7XB9LIC9yTAkk5cGbq6OlXH9jdTg8wGi+utdnz0Jco00k0PTBzY1lXP2NAah1DLV9308tp5AEnl1ZTkT4uIRF6Fg8aUK/971+OESgennTpAhsDNe9fnyIko1vUCBJIC98tGUCwCM1hPtDouFIWXz6/jNCrAOLnowPHz58+PDhw4cPB2KK4oXHv8dDbMVid+rPCTU82qBH0MI9FXc5QWj1lvSxatwFbRmWJUlj3l0qu7emTxrun1yGvb4A9PadCpO3l76GjMEDaOTFqnK/0icp+tyXOZHuRuNQu4Mc3Jo+unyEH2bgV265jPSfEJ2yKv+tkIY6y99Je29PHwWh71tgAfRJGuRwX+hwc4TEcc5qkZRaW+PcwsJyHEfiFYO+EJdyjwhJnDROvu6VPueWL9H5r45k8B3jAJLmgaLcwMsOybqaS5vRXGtVxz1nvEPGUqWa1q7rjSilr7XS4lVQebvDOxRt6GqcH3M9bvrYYkkuFdbM/7aisRAyYrJMNyNhi7Jccq14ZAqlUqlCZ9ZKr/INuUINT7Rcwtu/R6PzXGZvYL3FBJgXjuYQKpqukR60m5ZNMkSrj142pC89NILTjAPJkYjaSZ91opzBEQ+6WLS6i4xvtjZvF62ZoeEJa39twrTt0O+bo8lgNRI9VGyrgXhQQFU4rpI0JyZp6RTLskrb5FNExrIux7i1KN+i9NVAKylyHMzFMS4OWoVlJXS2ka2dHfThXwhQebmBP0hFuwE5RFGNx0fKLfwqad8UEXf36jyP3iXn0VeVSgG9T/ZQjSfRHVN1PT7HX+qJ0amJduSMu6NUIjGYJLIBdciwgohkuriGRCZuaxSmD3j8ES4JxlPhvMljYbTHyqYP5yuks1xCp6gT77UKdYhn6IZEehxzKmLBpkYWnVWNYVWV8G0Uy6x5EnzvRSyaafabrGBNgmzMrGatqSpg9YyyOri29RENxUiZ10OB6dOp/ckYqzstu7kZ6eWQ+Nn0IVtvRky8cVA2z81i+aPfXjPOhqY2bjt2FI1r5unm63lDptRFLd+rgL2tQME1n5CoU3LSbkeN6bPJApaOMANJnh5xwKYvbkc8KSP1ka2WNtnyZ2Uq9fjrxwVIYg5on+bc6SO6izd8S6lmX7vi6IpPWFfAldO8rlHJwBbI+QyVM+7TCAnoQutrxg9QNkZ2ZrfoYx1mHlsKrOWyNbxoEclRI9Iak+WJmXK0okObKP7c6UOT1Wj6brkFxdGaIxod8lLDcnISCRU1Z5TtpC9JjADrTm2HIgmLvpgzgilQKyxbVsRWCERfznXAOlPD9O8p4xNzpc/8TVcKeq+d9K1Q8SBBSCPaajUIfRwy7s5oZCZ9Qxpn0Rd19p4qlJwp9ClDUTHtAW7nsJdeCH349kcrGNGiqUhO+hANcSSDmvmT7AVKn+Z+aGgsfTreBJJi2No76bN/jmc2fYUhdnBDTDFEP7oQ+njbs4ZyBgfOe0y1C1nuGqWA0sfmJts+Sp9Yh/bkb7XoazmSHRwMYZs7hb6Ku1E6BY7gaBH0ieBoIjHuvsvzlogkKtasSjSokMG1588ofTgUW1uZBIs+5/fjIKm8MpW+lvuxN9u1LIg+l+1ZQ6qAJ4fjPkO2Em0Sy6bNWbFtSl8GXOI3Sh8+c2NiNcoOXJK2pCMRVzGVU+jDkaCjI9NSE+y0U8Y55vlDKbLLKaqUE0yfRnM1nUpZxQxu00ZshpVeNT4pjqUvhDz1xG2VbPrQ9daplCJvTu/RFPpIQmQnO5aa4NUGcpYY3Klu+R+BovW649sUGpzi0B772ShOxZIkQ0LE1lqZmA5Jgz5s/UAtRIsyvt1j6FtJ4UdTS+VYrFgb+fESR86LCwZRaYWNtc2Ybhp95EfgShlOSsVkoi5QFFfYCpisYoevpBJzaimPuutuazTXxWGzVQahpqZlPKZbLJuuRrK2pF91r7Tp5tWnzIhsNFNw0CfiHE2v4XKYITfT6KO3DeJxlRgRPMskr0NNMaeFz1aflwJX0mlnJU1UyIa/Co7+Y7hHkS+b6selk/VkIbXClUqmR8gUkm3QGkX0iZDC8+aJ0qsN4+aL5VXMup4ujwlc7J/CiuqEYi1qfJddOqs4s464cdKKEb/jMphRVyuICdMIieSuLvSxTIUmT8MLEWMM2cylikmrGe7DUrlSlsa9Z790fkCKFaMZw+aEuBYpcNtvS7FyYqGrn8rUp/h8zIBP353g03cn+PTdCYWlfJZsbuBaLe92m/nw4cOHDx8+fPjw4cOHDx8+fPjw4cOHDx8+fPjw4cOHDx8+fEzF/wFAB4+d9hUJ5wAAAABJRU5ErkJggg==;fillColor=#A8DADC;strokeColor=#457B9D;fontColor=#1D3557;noLabel=0;snapToPoint=0;overflow=visible;portConstraintRotation=0;connectable=1;collapsible=0;dropTarget=0;container=0;fixDash=0;perimeter=ellipsePerimeter;part=0;backgroundOutline=0;fixedWidth=0;comic=1;" parent="f5-iDyckK68P6CHZA5I4-19" vertex="1">
          <mxGeometry x="80" y="190" width="158" height="89" as="geometry" />
        </mxCell>
        <mxCell id="d9ss2GVCNz7CZdesLHr9-38" value="" style="shape=image;verticalLabelPosition=bottom;verticalAlign=top;imageAspect=0;image=data:image/png,iVBORw0KGgoAAAANSUhEUgAAAUAAAABuCAYAAABWQcpYAAAABGdBTUEAALGPC/xhBQAAACBjSFJNAAB6JgAAgIQAAPoAAACA6AAAdTAAAOpgAAA6mAAAF3CculE8AAAABmJLR0QAAAAAAAD5Q7t/AAAAB3RJTUUH4wIDABI0bTG7ZAAAGshJREFUeNrtnWtwHNWVx/+3Z0aj0cOSZUm2LMm2JBvb2MYvHsYxD5PETiAJkE1INlths6HYDdls8WFT2Y/7cbf2w9ZupbIhlWxlCyrsbjYECIRAXhsIZDEQXibGJli2wRj8lGxL8+y+Zz/c05o7PT0veSSP5POrmrI80923b/e9/z7n3HtPA4IgCIIgCIIgCIIgCIIgCIIgCIIgCIIgCIIgCIIgCIIgCIIgCIIgCIIgCIIgCIIgCIIgCIIgCIIgCIIgCIIgCIIgCIIgCIIgCIIg1BM1F09a//TadYrcnaQiv3Nuef5luY2CIFwSAqgf29ypsucegs7eBBV7lZoWfNr51KuH5FYKglArzpw748zZAbip9dA5wEttQm7iS/uI5E4KgnAJCCB5gwB1gAAQQXnpO9c8un693EpBEOa/AEKvABDP/9ddodzU3bnn747I7RQEYV4LoCIaxpTLS+ajM5+LvP/clXI7BUGYtwLoPnZlFEQjefGbsgIXKy/5ldwvdzfJLRUEYV4KoMqebQNooED8fCvQy9waOX/kOrmlgiDMTwHUuUUg3Vcofr4V6C1UbvKr+okdLXJbBUGohuicEkDSSwF0FomfHxP0MrtV6oNdAB4pdQz94tdBXjaKxCIvsvHvZf6MIIgFODcg6GUAtYSKHwCQ1wov/VX9+NbO8AMQcOypTznHnvofNfrDv/J+dmNUmoAgiAU4VyzAkQLRpmAsEIDO3qAy458CcH+R9ffIulUqO/ZP8DKrlRO9HpTZD+A30gwEQSzAhibzzB0KwPCU0IWJn7ECm+Cm7tGPbuq19z9OBOVO/Dm8zGqQBrxsl8ol79FP7WyWZiAIIoCNbaqefiMB6OVlxW/KCsxdhdzZO+z9ex5Zuw5e+s8Anf/Sy3wc5w/fJM1AEEQAG9v9dScXgqi/ovgZKzCivNTd+tENywAg8+o3HOVO3AWdW1G4i9uu3NQ9+vGr22o5F+/VW/v0yzffpn//icsPPf6AtCJBEAGcaagXoK6K4jelUrkNKnvuiwDQdOjRzXAznw+PGWY+rFLHd1d7Fvr1W4cdGvu+olM/Vjj9wPLF310mzUgQRABnFu0NgrCgvOVHefeYtKJc8kveQ+vWUXbiLmi3r4S1mICXusd7bGNnZfG7bUh5Z+6DN7EblFWg1DpQcp00I0GYm8yZUWAFGgYoVlb8rL+JCF7OHSZ3/J8jTmaTUlTactTZ65z0+CcBPFDG8htS3un74E1+dCqOSIgDNDxL96kbQD0TPrgATgHwrO8WArgMQDuAYwDeBpCdw+1bAegCYA90ZQGcRkEwWBABbHgPWA9VJX4gEAjaA7wcOXpichdaCaoFUAXpXwtWkTTBTX5FP7LhSee2vSfDxe/MffAmd+XFj3xhXjkLtW8H8AUAHeH+/rSE4RSA/wBwnr9bCuBPAAyyZ5AF8CKAJwBk5rAAfgzAahY8BeA9ftClpPsLc8IFdh/e0AT4SRCC4hcQNQJIA9oDdIZAkwRvAtCuvW2Ihujs1So79umir1+7raT4mS5GK91nb2iahY6cANBax08C+YzgDoDrAazwqw0gBuBqAGvmuAUYL1NvQQRwDpykN9EOUH+45Vfo2hJoSgApab7WKUCnASrYHoGYoReFl7pbP7x2qf+z99qtQ8o7/e2S4mcSMfSraKZ9tuzgOn5sEmwBBisXAzAwD9o51clyFkQAL0bz9bpBtLi022sZgL71l6Z89ErDWIGer5kUJmSAl92MzPjnWPxWON6Zb0NP7i4tfgBASwC3+yJ1aj3Nj7/vlNYDSJcoR1xFYd4yN2KA2h0AqLO0+AWsPzdv/U0dIk3wUoBqC4sF8v5Ejs6k/iL382tecfSZb1QWPwCgTuXoQQAHZtm1OwDghQtw5zKWuKUBvAoT/4txBR0AJwC8Kd1EEAG8uCbgMoCai7QnYBEWWH+5oGlorMBIM4GiQH5U2N9dwcsRdDR+ebSNHoSeXBwufkU0A7Rili+IghnJ3FvHY74IM8q8BUALi9/TAN6XbiKIAF5EOAmCKr3+l0DE4ldk/eW3ozTBSwKqnYzZpNhuJAWdI+hoKyLLl0acuNsHqmT5Tf1fYXZGgmeaHIBnAfweQBOAJOb2FBhBqEjDxwDdJ66PADRSwQrLW38p2/oLDnhwLDDHvxCmxM+LtiKyvB+RNoUaxM8ItMJI9tld8yG1FrHwjYv4CSKAjWD9pT9oAdFgKfGZsv7s2F+Y+Pl/ZgAvaTSOCBcsfrztskjkfJs0J0EQAayvALqphYVTYIqFLT/thcz6hpLzBM0XegLwsoBXlfihvPgZH32pUtlF0pwEYW7R+G4beX0g6gyxuqb+0R67tenSlp/9vc4CuXMEZ1ErYhdi+eW/74SifgAH53h7iKBwVNmfNlPrdgpAG4BeAAt4+0mY1SdnULj8DoH9WgH0AVgMswImCvNYm+D9j7OLXq+lbP652mU6MCPjp2EGgU7xOVyIodHFx++GGWSK8nU4D+AkgA8AnLuAerXw8ZfAvDYixsef5OO/f4HXzYFZidTH97WVr13OqsNx/ptEAOvWOvUgQO1h4mesP4LWCpQiwK0wT5C/9nIEeC1oWVYX8ePGx7kK5y6tAD7JAuALw34AzwS2a4JZXraEK68AvA7gef69C8BVANbDrC2OWSJ5BsCDMMvRgiwEsBXABhaJpoDIEovQWX7QvATgyDQ6tLZupl/mFQAWhZTpsfCOwkw5Gi0j3qXEdRDANgArLUEP1ivH4vQW1+u9GkRkAYBNXIfFMCtfnBLX7Y8wo/1Ha7huikXvKpglhQtD6qC5DmMw07NeYkEnEcALtgD1CECRkuLnATpLRgBLip9lLboEamlBy8YBRDvqIn7m6aho1RwXwBiAYRYCfx7gWW7oFLAElgMY4obvcGMHgMtZHPt4Px04fpI7SdCyWAfgIzCrUZQlUhRieS5igVwHYA8L9GQN9cyyiK3hc+0vU6ZigdkMkyRiD8zUoMkqr+e1AG5Afg13qZU4UQA9bFmthxmN/z+UX4OtWJA+ivz6bW0JUrnr9iyA51B5jbe/HPIGfrCVq0PMskA38H15AQ0+mNbYMUCzbGMoVNiIzMCHByN+XumY35Tl5xJ0ogUtWwcQ676AmF/49yPJZ2535rAAllpZUu22q2GSKSxF8UoTv1O+ziJot79tAD7DQmTvp/h3+6OsbVoB7ARwO4tULQK4GsBnYZb5kSXkwbLsurYAuLHK8mIs6B/nbW2rM6xedjkdLMw3ozCLTZANAO7gh5Etek6F69YOYBcLZ6zM8eMAdgP4BFt9dh2cCnVYCOAW3j8uFuA0cR++vBnEAhjM+MKxPy8LUKp8zM8XP6oofjRd8YOCXhZTx1qRz65yqUDcqT7MndcXE9+1I25n4+xS22zizp4IdOAsx91Os5USYyHp5nidfRM2sov3cBUWDbEldHPgXDMcwzrNsb8El+W74jpQHnF5yRLlbINJLhENiEaOyzhl1cu3zOJWOf6DYRLAL0Ia3JKAuPrCmoZJY/YB/x1jy816nSyILcIPcZ33lIjx3gBgB/9t1yHF+41xfeJ87G4WbLLu+Q6u5y/RoOnHGloAHW+yIywN/tTAhz/y65UWqwLx2zIz4sf0R2Je1ywKYIytoOmQwYUF9YMXZA13BL/xjwJ4AyYo7vF5End+nwG2EBKBizrKLtooC4wfZ2ziTrYVwJWBzraJ42a/reJcewMW0X52N9/hzu2X1wKTHWc7gJGARbiRReznIQ1igC3FaOC3w+x2HmRh89NzJbicHVyObR1fy3G7Q4EyNrPLbIvfERaaQ4EHge/+bgNwDV9H4n93cP3PBo6/DsB1AfHTAPYB+B2Ad7kM/1o1c9jjGrZMo5aQX8cxx30igLXH/7oB6ikSHzIDHzpLfKuprNs7k5afdawuKOrjhjjTaI63DUxTsH5e5wbZwv+mOUb2uzLWEbjz7eSOaVsGrwL4aUiHJD72UcvC+YQlghEWqv1snVRDjs/1aRQngiCYwY83WFBuYovJsQRnG8ygxaGQup1hYfPTpL0B4BG2goPlTAL4A7ebW1jgbct6K4snWa7pikAs8ByAn7CIB/FgljU+wZb1h/nh9y6HJHKB7Tv43thWuccPl1+XuFZJFvZ3ue43Wl5Agq3hwxXahAhgcTd3B0HUUSh+yMf+kgC8MuKX4wGPLTMS8wseqw3kLUN+NHSmaUN+xLZWAWyZATfYZXft2SrcnWHkk5T61s4fATzOnbmS+L/IcaabrPK72fr4dZUPkOcA/KoKS3gSwFNscW8LiNM2Fh0vYMF+n+u4hd3DJ0PEL8gEgJ9xPYYsd3iIXd2zlsC2BmKKp5AfiCoZUeIHk+IHycESgrSR47G2dfkKW5eVBjSyAP6XH2ybLCt7OVu3extNYhp8EEQvByhuix8RQXsKOkNAJiSlFcw2nmuJX085y4/qIX4AKAKlZ3NN8IWmw6p3O3qTxV9Xse0m5AP8ikXm11WIny1gz3OnV9Zx1qD8wIFf/jswo5TVhgH8jn0s4AqvYpc6SJKtvv8EcD9bYNVwDmYttj2k18GCYtfdC5xHa5UPtXMsxntLiF+CHyJOQFx/g+pHczNsLU5Y5xgDsBYNmIi2oQVQQY8UDGbAH/klE/vTpWJ+yMf8embU7Q2cL0Ymfvr1Rs82PBPnl+WOW00n6WQXzrZgDoa4kpUYZxfUFoIemKB/OTw+11pjtWO8n52Bt40ttHJu9jiLVpQtuT7eZxjAMuQnFft98SjHIm3xsEed0yxKCNR7F9e90v0t9/DrgxlgsXvW3hoE3OcYu8P2vRnA9GPWl54L7P5kaxQTh0cKBMcf/EgjMN4XEvObZfEzXZmG4h3PJWYh1qHY1Xptmvu/W+dzGUf45OYwerhD20ISZXfSKSHSKuRv3+3V1v/90dtjZc7Vn0g9Hd5my6Yd+SD/AIrnStrlLWLLdCXX3V8F4s89zPExj8NMIh4LWKYqYNV6HLtbi3zuRgUzMLSCQwlH2DoeY8Gs1uLvt+KqvrXZDjNY4pS5F2H/bwmU28EPvwkRwGp6VXasDaCBvO1np7uionRXRGR+qyh+mBnxMz8OONHswlkSwPc5ptMIFuV5VJ85elGg3fmjyGunUW4whhFBfrpHqX3GanC1w6zOsYCA+6tdgtZvG8yo6FVsmTkIvr8hPwrcweJzBZcRFI+g0OzjOOi1AfH1J1Nv4zZ4htvJUf6cRPmpQt2B4ynkR90v5N74o87tjaYzjSuAXroL0H1FLzpK+03NnudH8HK++PXPvuWX36ALpBfXYA3NF3Kofp6X7+7pGlyzam+SLyjlmEDxyGctrv5ESNwsGhDAXphlhatROOXGP0enRH0c5FfiVLreT/JDZ7slmGRZhP4g2XIuO8li+Dp/JkPCYa3TcJur3d6p4t6IAOYvobcURJ32wIdXZP2ZSz0V89s6cDHFD4DqUA4tA/AyhFJEZvj4ThXiMd1BIAqIpz8Fxwm4erfDDJAEV09k2Co7w+LlwUxraWdLsgPVx2hTMKPuozBTdIYtgQlbrtbK5zQMM9Dxs5BQiDPH7/18EkA9CFDr1MRnbTI629ZfYcyv/yKLHwBQFGpeZIeeSdwQq+q37FrWY4CmkvUdKxOzq8a1iwX+7wWsu+0c79OBBvImhyyOsjVm7+MPkAyz2zxQ5bXwYAaCDvM+q2DWBfeyBRgLuKO+dXgZ//5fyMdLCcWxx7Mwo+XpOtwbQu0DXZewCwy9EgSnKNV9wVQXgJovZsyveD+l9bBoXFmSIe7v25i9VGK+MEznZe9NyC/F80lbwrEQJo4XbCB72GVNlmhA/tK/UyxId3E51Yp0li3BUeRHjXtZFAdhlsJ1WOVp/u4jLIJZ5Cc0BwX2DbZY5yUNOQ0muedvlVkDzC868tNd5YrFL1HR8qvXPL8q91M04j6zvRlCKc4ELI0mmCwis+JXsEgtmOb+Hbw/Berju8X+mlvb7T0KM4k4WUOfvBBX0V9v/Ca7yPcD+B5bchnLktNsCS4P1CU4zad7PjfGhhTA+NGfJEB6BfkZX3I09aKjqXl+zcbtbep1LrLbWySAAyqW7rjERK0W9+gUCifJOuy6RWe4XP+mLUDhmttaWBWwzDQKc/d1oXiE+wBqG3VejsKpKJUs0koToF2YKTFPwKzSsY/bjMJldccClnETu/OYhXsjAjh15dzJThANTKW6TwFwzVQYz6Up8Ys1mvgZeqCoVwy9koyxVWTP5xuZhigpmHjZjTDTP6ptyxGYaR21TsnohJkSYq88mYSJv9khpWCy07M1WpibK4iHn6PwSgB3wqwfjlVxbN+dTQaO32n9/QE/oOxruQHhq13KEYNZc7yNj9+wYtiQMUDSbi9Idxnrz4z8Tg14VBS/asVqRsQPAHUo5Q2iAdc9Ngj2RF4/20iCO8wJFCdMLcUA79MJMx/uAMzcuEqTvDXMCozrYdb4VrMczk/esBSFc+TehpnA7JNG8asBFlZZH7+MgQqNbDNv18P9Nw0zEFLNpHiq8J2fAKLf+q2br/PDKE6EUIo1fI5RmLmH/rzFk43WGBvTAiQ9SBoLtKtASYDcWiw/upji5zfkIdG5shyAGfSwE2kOAfg0d+xK9LLl08n7drEIVvtaAgUzdWQnKifsTMAkD706sP8kzOCGG3Dvg3MMr7AEpRTtMNlttlVx7i6LUoTFNg6TU3G4ijqvQeEk62CKMsAkPjgeuDeb+HpXYzUPw+Qq9F8vsARmJUlDvjSsQS1APaw9xHTWZHv2ctZUl8Z0ewvalIJMhalACia5wFLkl5X5K0I6YTK17IdZYeJZrmsbTOB+R4g1VuvSQN9NW4r89BR/2Zg/aXc5zLSWVSGu7R4uE4EY2km24vw5gD0APgeTUOAtFk6/jFYW/u2WgFWaorOfvYst1nXr5jKe4d/OB67NAt7+Ouv4it3hYB1Ow6QIux2FS+2u4QfPc8jnatSWjnTCpPPfjuKBor1o0BeGNaQAao+GtEfQScDNECiRMKO9DS9+UybsSvfZ65uiO56Rl4uXZhRmlPIWFCZTXQLgNpgRSf8tY4qFsoctiWCW4jF2ZyslOFB8TD9TssMxrpXsfp9kC85fU9yDfKZm+xhvsEgEp/NMwLwHY0nAguqDScF/nMvJsCXWg8Ks04DJVNON4uVwPlmYUeXegNB2waw+uRZmYOYs8oM+A7y9ExDGvSz8CLECezlMYO8zAjOt5hTXI8n3ooO37wwIuMMhiV9i+qtvLi0BzP1oXROde2/EywDuBIHiCSS2DJQZ7UVjiZ855oCjUu0h7oVQeOFe4A60izu8nRLeX9eKkBhHUPwerdLCUGyl7QNwK4uq70YuD3Gh7fei+BbgPpjko6VejPR7FpyrAucc4e8HQurjp+YfZbH4DMqP7p7gmJz/Dhb7uvkvJqp03d6GSUHmlXCzf8XbbUc+w7Of1aaPy61UxlE+z5ON2ggbTgApe7bdc6nfPUegWAKJrQONN9Wl0u+KFsPJ9dRZAB3raWy/iKZeqBrKsNezOpj+KJ/H7uc4u6P9yK8TJpRe7+uvwDjIlt9oFfWyz/V13v9jlsjqMvsrdttfYtEoZ2lmYLJaZ1kE4wGhC7uvmuOij/J5RUKstSBHYPIN3sxhgUiV1y3HoYInUX6Cc5q3OQXzfpBFKP/GPruMLMw8xKdQeyqtS1sAvWxukTepF2tVyfJrUPEzv3XC0QMofgnQdHFhplvYaZjq/VR1uVONW2WcCKmoP/fNs7Z7H9NfX6vZpTwKE2xfj/D32/rbpmCma7zGn4kKN+kDmPluvpV1nL/fy79dBfMODH8OX/B9txN87V+ASTVVzajxJIvgKMfOBvkcgu/rzfF9fIXFdYLdySP88PSvaal5hO+zCG6EGR1eElKOX48kW78v8fWuZiVMDibx7CjHENci/P3J/sNsku/jy2wpZ9DgNNz8nIn7Ft2k05HH4pctbWlaPBfFj0ug2F8617z+vTrep7A1qG6d20K1ZcQsC8XOa1cPWtgqW8wxJV+8MizOx/lT7ZSM4LkG66SQT0e1GPlsNRkWoWP8IJhu/eIsTP4qkTiXf57r8V7AogzeB19cKr2QPWG5v345viU3xmJ//AJEyc8ws5g/C1gIPS7jNB//FBr8XcANbQGqxMLB5qG2RKx7DsX8gr8TFLnuSB0vC81Co6qljJkMaCfZ4jpcp+Plqqj3OH/+MAP1ybBFd2SG73Wqztct7LzO8+dtzBMabh6g07XoRYrTf+usN2G0puHm+ZX9XbvIZiboF+lx/QQEQRAXuFbOPHh5c3yhsyuaUPdGm9UOJ6KaGt3t1R5pN41Xcin6Vvosftz9pwfOSvMSBBHAaTP+0PqFsVb6bKxF/XU07qxXjm+xNo74kSa4GRzMpei7mfP0QNdn3zomzUoQRADrJ4QPrx2Mt0W+HG3GlyNNaplyLr74EQFelk7kUvSD7CS+c/iFyFub/mEfSZMSBBHAuvPut7Y4ncsy62It6qvRZtwRiamu/NnP5iRnwMvR+Vwaj+Um6Ztj7+LF5V874ElTEgQRwBnn+P1XxFq63A/FWtS9sWa124mVeNHKDIifdpHNpenpXJL+NTWGX/V+8UBampAgiADOOiceXNPa0unc0tSq7o3E1dVOxJrSU2fx0x60m6FXckkZ4BAEEcAGYuyhDT3xNv2FWAJficSxWjlQ5fWtevEjDbgZOphL4buZCXqg6zMHZIBDEEQAG4sfLb4SH/1OaiTWou+OJdSdkSbVp9T0xS8/wIEfZCfpO4f3RN7a9I8ywCEIIoANzDv/tsrpHIhuaWpVX4s24/ZIVC2oOFBii59538h5N0WPZZP0zbF3ZIBDEEQA5xhnfnB5PN5JO6Mt6t5oHDudaKWsv2YFh5ump7MywCEIIoDzgbEfrlvQ1K5vjyXwN5G42uxEipf+aY+0l6FXskl8K32Oftz9eRngEAQRwPkkhD9avTTe7twZbcZdkRiGoBABwfNyNJpL4d+zE/TAQhngEAQRwPnKkX+5QnUsyw5F47gWDvVD46ibUc+f+CMOXfZ3+2WAQxAEQRAEQRAEQRAEQRAEQRAEQRAEQRAEQRAEQRAEQRAEQRAEQRAEQRAEQRAEQRAEQRAEQRAEQRAEQRAEQRAEQRAEQRAEQRAEQRAEQRAukP8Hc7/xYGUbMKMAAAAldEVYdGRhdGU6Y3JlYXRlADIwMTktMDItMDNUMDA6MTg6NTIrMDA6MDCESC91AAAAJXRFWHRkYXRlOm1vZGlmeQAyMDE5LTAyLTAzVDAwOjE4OjUyKzAwOjAw9RWXyQAAAABJRU5ErkJggg==;rounded=0;shadow=0;labelBackgroundColor=none;labelBorderColor=none;sketch=0;fontFamily=Times New Roman;fontColor=none;strokeColor=#457B9D;fillColor=none;html=0;" vertex="1" parent="1">
          <mxGeometry x="640" y="-700" width="320" height="110" as="geometry" />
        </mxCell>
        <mxCell id="d9ss2GVCNz7CZdesLHr9-39" value="" style="swimlane;startSize=20;horizontal=1;containerType=tree;newEdgeStyle={&quot;edgeStyle&quot;:&quot;elbowEdgeStyle&quot;,&quot;startArrow&quot;:&quot;none&quot;,&quot;endArrow&quot;:&quot;none&quot;};rounded=0;shadow=0;labelBackgroundColor=none;labelBorderColor=none;sketch=0;fontFamily=Times New Roman;fontColor=none;strokeColor=#457B9D;fillColor=none;html=0;" vertex="1" collapsed="1" parent="1">
          <mxGeometry x="620" y="-580" width="100" height="80" as="geometry">
            <mxRectangle x="620" y="-580" width="440" height="280" as="alternateBounds" />
          </mxGeometry>
        </mxCell>
        <mxCell id="d9ss2GVCNz7CZdesLHr9-40" value="" style="edgeStyle=elbowEdgeStyle;elbow=vertical;startArrow=none;endArrow=none;rounded=0;fontFamily=Times New Roman;fontColor=none;strokeColor=#457B9D;fillColor=#A8DADC;" edge="1" parent="d9ss2GVCNz7CZdesLHr9-39" source="d9ss2GVCNz7CZdesLHr9-42" target="d9ss2GVCNz7CZdesLHr9-43">
          <mxGeometry relative="1" as="geometry" />
        </mxCell>
        <mxCell id="d9ss2GVCNz7CZdesLHr9-41" value="" style="edgeStyle=elbowEdgeStyle;elbow=vertical;startArrow=none;endArrow=none;rounded=0;fontFamily=Times New Roman;fontColor=none;strokeColor=#457B9D;fillColor=#A8DADC;" edge="1" parent="d9ss2GVCNz7CZdesLHr9-39" source="d9ss2GVCNz7CZdesLHr9-42" target="d9ss2GVCNz7CZdesLHr9-44">
          <mxGeometry relative="1" as="geometry" />
        </mxCell>
        <UserObject label="Frontend" treeRoot="1" id="d9ss2GVCNz7CZdesLHr9-42">
          <mxCell style="whiteSpace=wrap;html=1;align=center;treeFolding=1;treeMoving=1;newEdgeStyle={&quot;edgeStyle&quot;:&quot;elbowEdgeStyle&quot;,&quot;startArrow&quot;:&quot;none&quot;,&quot;endArrow&quot;:&quot;none&quot;};rounded=0;shadow=0;labelBackgroundColor=none;labelBorderColor=none;sketch=0;fontFamily=Times New Roman;fontColor=none;strokeColor=#457B9D;fillColor=none;" vertex="1" parent="d9ss2GVCNz7CZdesLHr9-39">
            <mxGeometry x="80" y="40" width="120" height="60" as="geometry" />
          </mxCell>
        </UserObject>
        <mxCell id="d9ss2GVCNz7CZdesLHr9-43" value="Division" style="whiteSpace=wrap;html=1;align=center;verticalAlign=middle;treeFolding=1;treeMoving=1;newEdgeStyle={&quot;edgeStyle&quot;:&quot;elbowEdgeStyle&quot;,&quot;startArrow&quot;:&quot;none&quot;,&quot;endArrow&quot;:&quot;none&quot;};rounded=0;shadow=0;labelBackgroundColor=none;labelBorderColor=none;sketch=0;fontFamily=Times New Roman;fontColor=none;strokeColor=#457B9D;fillColor=none;" vertex="1" parent="d9ss2GVCNz7CZdesLHr9-39">
          <mxGeometry x="20" y="140" width="100" height="60" as="geometry" />
        </mxCell>
        <mxCell id="d9ss2GVCNz7CZdesLHr9-44" value="Division" style="whiteSpace=wrap;html=1;align=center;verticalAlign=middle;treeFolding=1;treeMoving=1;newEdgeStyle={&quot;edgeStyle&quot;:&quot;elbowEdgeStyle&quot;,&quot;startArrow&quot;:&quot;none&quot;,&quot;endArrow&quot;:&quot;none&quot;};rounded=0;shadow=0;labelBackgroundColor=none;labelBorderColor=none;sketch=0;fontFamily=Times New Roman;fontColor=none;strokeColor=#457B9D;fillColor=none;" vertex="1" parent="d9ss2GVCNz7CZdesLHr9-39">
          <mxGeometry x="160" y="140" width="100" height="60" as="geometry" />
        </mxCell>
        <mxCell id="d9ss2GVCNz7CZdesLHr9-50" value="Sub Section" style="whiteSpace=wrap;html=1;align=center;verticalAlign=middle;treeFolding=1;treeMoving=1;rounded=0;shadow=0;labelBackgroundColor=none;labelBorderColor=none;sketch=0;fontFamily=Times New Roman;fontColor=none;strokeColor=#457B9D;fillColor=none;" vertex="1" parent="d9ss2GVCNz7CZdesLHr9-39">
          <mxGeometry x="220" y="200" width="100" height="60" as="geometry" />
        </mxCell>
        <mxCell id="d9ss2GVCNz7CZdesLHr9-47" value="" style="edgeStyle=orthogonalEdgeStyle;startArrow=none;endArrow=none;rounded=0;targetPortConstraint=eastwest;sourcePortConstraint=northsouth;fontFamily=Times New Roman;fontColor=none;strokeColor=#457B9D;fillColor=#A8DADC;" edge="1" target="d9ss2GVCNz7CZdesLHr9-49" parent="1">
          <mxGeometry relative="1" as="geometry">
            <mxPoint x="830" y="-420" as="sourcePoint" />
          </mxGeometry>
        </mxCell>
        <mxCell id="d9ss2GVCNz7CZdesLHr9-48" value="" style="edgeStyle=orthogonalEdgeStyle;startArrow=none;endArrow=none;rounded=0;targetPortConstraint=eastwest;sourcePortConstraint=northsouth;fontFamily=Times New Roman;fontColor=none;strokeColor=#457B9D;fillColor=#A8DADC;" edge="1" target="d9ss2GVCNz7CZdesLHr9-50" parent="1">
          <mxGeometry relative="1" as="geometry">
            <mxPoint x="830" y="-420" as="sourcePoint" />
          </mxGeometry>
        </mxCell>
        <mxCell id="d9ss2GVCNz7CZdesLHr9-49" value="Sub Section" style="whiteSpace=wrap;html=1;align=center;verticalAlign=middle;treeFolding=1;treeMoving=1;rounded=0;shadow=0;labelBackgroundColor=none;labelBorderColor=none;sketch=0;fontFamily=Times New Roman;fontColor=none;strokeColor=#457B9D;fillColor=none;" vertex="1" parent="1">
          <mxGeometry x="720" y="-380" width="100" height="60" as="geometry" />
        </mxCell>
      </root>
    </mxGraphModel>
  </diagram>
</mxfile>
